STARTFONT 2.1
FONT -DIGITAL-VT220-Bold-I-Normal-80col-100-1000-75-75-c-500-iso10646-1
SIZE 100 75 75
FONTBOUNDINGBOX 83 100 -16 -20
STARTPROPERTIES 21
FOUNDRY "DIGITAL"
FAMILY_NAME "vt220"
WEIGHT_NAME "Bold"
RELATIVE_SETWIDTH 50
SLANT "I"
SETWIDTH_NAME "Normal"
ADD_STYLE_NAME "80col"
PIXEL_SIZE 100
POINT_SIZE 1000
RESOLUTION_X 75
RESOLUTION_Y 75
SPACING "c"
CHARSET_REGISTRY "ISO10646"
CHARSET_ENCODING "1"
CAP_HEIGHT 70
X_HEIGHT 50
WEIGHT 10
QUAD_WIDTH 50
FONT_ASCENT 80
FONT_DESCENT 20
AVERAGE_WIDTH 500
ENDPROPERTIES
CHARS 237
STARTCHAR U+00FD
ENCODING 253
SWIDTH 1000 0
DWIDTH 50 0
BBX 83 100 -16 -20
BITMAP
0000000000000000000000
0000000000000000000000
0000000000000000000000
0000000000000000000000
0000000000000000000000
0000000000000000000000
0000000000000000000000
0000000000000000000000
0000000000000000000000
0000000000000000000000
0000000000000000000000
0000000000000000000000
0000000000000000000000
0000000000000000000000
0000000000000000000000
0000000000000000000000
0000000000000000000000
0000000000000000000000
0000000000000000000000
0000000000000000000000
0000000000000000000000
0000000000000000000000
0000000000000000000000
0000000000000000000000
0000000000000000000000
0000000000000000000000
0000000000000000000000
0000000000000000000000
0000000000000000000000
0000000000000000000000
0000000000000000000000
0000000000000000000000
0000000000000000000000
0000000000000000000000
0000000000000000000000
0000000000000000000000
0000000000000000000000
0000000000000000000000
0000000000000000000000
0000000000000000000000
0000000000000000000000
0000000000000000000000
0000000000000000000000
0000000000000000000000
0000000000000000000000
0000000000000000000000
0000000000000000000000
0000000000000000000000
0000000000000000000000
0000000000000000000000
0000000000000000000000
0000000000000000000000
0000000000000000000000
0000000000000000000000
0000000000000000000000
0000000000000000000000
0000000000000000000000
0000000000000000000000
0000000000000000000000
0000000000000000000000
0000000000000000000000
0000000000000000000000
0000000000000000000000
0000000000000000000000
0000000000000000000000
0000000000000000000000
0000000000000000000000
0000000000000000000000
0000000000000000000000
0000000000000000000000
0000000000000000000000
0000000000000000000000
0000000000000000000000
0000000000000000000000
0000000000000000000000
0000000000000000000000
0000000000000000000000
0000000000000000000000
0000000000000000000000
0000000000000000000000
0000000000000000000000
0000000000000000000000
0000000000000000000000
0000000000000000000000
0000000000000000000000
0000000000000000000000
0000000000000000000000
0000000000000000000000
0000000000000000000000
0000000000000000000000
0000000000000000000000
0000000000000000000000
0000000000000000000000
0000000000000000000000
0000000000000000000000
0000000000000000000000
0000000000000000000000
0000000000000000000000
0000000000000000000000
0000000000000000000000
ENDCHAR
STARTCHAR U+25A1
ENCODING 9633
SWIDTH 1000 0
DWIDTH 50 0
BBX 83 100 -16 -20
BITMAP
0000000000000000000000
0000000000000000000000
0000000000000000000000
0000000000000000000000
0000000000000000000000
0000000000000000000000
0000000000000000000000
0000000000000000000000
0000000000000000000000
0000000000000000000000
00000007fffffffffc0000
00000007fffffffffc0000
0000000ffffffffff80000
0000000ffffffffff80000
0000000ffffffffff80000
0000001ffffffffff00000
0000001ffffffffff00000
0000001ffffffffff00000
0000003fffffffffe00000
0000003fffffffffe00000
0000003ff80000ffe00000
0000007ff00001ffc00000
0000007ff00001ffc00000
0000007ff00001ffc00000
000000ffe00003ff800000
000000ffe00003ff800000
000000ffe00003ff800000
000001ffc00007ff000000
000001ffc00007ff000000
000001ffc00007ff000000
000003ff80000ffe000000
000003ff80000ffe000000
000003ff80000ffe000000
000007ff00001ffc000000
000007ff00001ffc000000
000007ff00001ffc000000
00000ffe00003ff8000000
00000ffe00003ff8000000
00000ffe00003ff8000000
00001ffc00007ff0000000
00001ffc00007ff0000000
00001ffc00007ff0000000
00003ff80000ffe0000000
00003ff80000ffe0000000
00003ff80000ffe0000000
00007ff00001ffc0000000
00007ff00001ffc0000000
00007ff00001ffc0000000
0000ffe00003ff80000000
0000ffe00003ff80000000
0000ffe00003ff80000000
0001ffc00007ff00000000
0001ffc00007ff00000000
0001ffc00007ff00000000
0003ff80000ffe00000000
0003ff80000ffe00000000
0003ff80000ffe00000000
0007ff00001ffc00000000
0007ff00001ffc00000000
0007ff00001ffc00000000
000ffe00003ff800000000
000ffe00003ff800000000
000ffe00003ff800000000
001ffc00007ff000000000
001ffc00007ff000000000
001ffc00007ff000000000
003ff80000ffe000000000
003ff80000ffe000000000
003ff80000ffe000000000
007ff00001ffc000000000
007fffffffffc000000000
007fffffffffc000000000
00ffffffffff8000000000
00ffffffffff8000000000
00ffffffffff8000000000
01ffffffffff0000000000
01ffffffffff0000000000
01ffffffffff0000000000
03fffffffffe0000000000
03fffffffffe0000000000
0000000000000000000000
0000000000000000000000
0000000000000000000000
0000000000000000000000
0000000000000000000000
0000000000000000000000
0000000000000000000000
0000000000000000000000
0000000000000000000000
0000000000000000000000
0000000000000000000000
0000000000000000000000
0000000000000000000000
0000000000000000000000
0000000000000000000000
0000000000000000000000
0000000000000000000000
0000000000000000000000
0000000000000000000000
0000000000000000000000
ENDCHAR
STARTCHAR U+00FE
ENCODING 254
SWIDTH 1000 0
DWIDTH 50 0
BBX 83 100 -16 -20
BITMAP
0000000000000000000000
0000000000000000000000
0000000000000000000000
0000000000000000000000
0000000000000000000000
0000000000000000000000
0000000000000000000000
0000000000000000000000
0000000000000000000000
0000000000000000000000
00000007ff000000000000
00000007ff000000000000
0000000ffe000000000000
0000000ffe000000000000
0000000ffe000000000000
0000001ffc000000000000
0000001ffc000000000000
0000001ffc000000000000
0000003ff8000000000000
0000003ff8000000000000
0000003ff8000000000000
0000007ff0000000000000
0000007ff0000000000000
0000007ff0000000000000
000000ffe0000000000000
000000ffe0000000000000
000000ffe0000000000000
000001ffc0000000000000
000001ffc0000000000000
000001ffc0000000000000
000003ffffffffc0000000
000003ffffffffc0000000
000003ffffffffc0000000
000007ffffffff80000000
000007ffffffff80000000
000007ffffffff80000000
00000fffffffff00000000
00000fffffffff00000000
00000fffffffff00000000
00001ffffffffe00000000
00001fffe0007ff0000000
00001fffe0007ff0000000
00003fffc000ffe0000000
00003fffc000ffe0000000
00003fffc000ffe0000000
00007fff8001ffc0000000
00007fff8001ffc0000000
00007fff8001ffc0000000
0000ffff0003ff80000000
0000ffff0003ff80000000
0000ffff0003ff80000000
0001fffe0007ff00000000
0001fffe0007ff00000000
0001fffe0007ff00000000
0003fffc000ffe00000000
0003fffc000ffe00000000
0003fffc000ffe00000000
0007fff8001ffc00000000
0007fff8001ffc00000000
0007fff8001ffc00000000
000fffffffff0000000000
000fffffffff0000000000
000fffffffff0000000000
001ffffffffe0000000000
001ffffffffe0000000000
001ffffffffe0000000000
003ffffffffc0000000000
003ffffffffc0000000000
003ffffffffc0000000000
007ffffffff80000000000
007ff00000000000000000
007ff00000000000000000
00ffe00000000000000000
00ffe00000000000000000
00ffe00000000000000000
01ffc00000000000000000
01ffc00000000000000000
01ffc00000000000000000
03ff800000000000000000
03ff800000000000000000
03ff800000000000000000
07ff000000000000000000
07ff000000000000000000
07ff000000000000000000
0ffe000000000000000000
0ffe000000000000000000
0ffe000000000000000000
1ffc000000000000000000
1ffc000000000000000000
1ffc000000000000000000
3ff8000000000000000000
3ff8000000000000000000
3ff8000000000000000000
7ff0000000000000000000
7ff0000000000000000000
7ff0000000000000000000
ffe0000000000000000000
ffe0000000000000000000
ffe0000000000000000000
ffc0000000000000000000
ENDCHAR
STARTCHAR U+00FF
ENCODING 255
SWIDTH 1000 0
DWIDTH 50 0
BBX 83 100 -16 -20
BITMAP
0000000000000000000000
0000000000000000000000
0000000000000000000000
0000000000000000000000
0000000000000000000000
0000000000000000000000
0000000000000000000000
0000000000000000000000
0000000000000000000000
0000000000000000000000
000000003ff803ff800000
000000003ff803ff800000
000000007ff007ff000000
000000007ff007ff000000
000000007ff007ff000000
00000000ffe00ffe000000
00000000ffe00ffe000000
00000000ffe00ffe000000
00000001ffc01ffc000000
00000001ffc01ffc000000
0000000000000000000000
0000000000000000000000
0000000000000000000000
0000000000000000000000
0000000000000000000000
0000000000000000000000
0000000000000000000000
0000000000000000000000
0000000000000000000000
0000000000000000000000
000003ff8001ffc0000000
000003ff8001ffc0000000
000003ff8001ffc0000000
000007ff0003ff80000000
000007ff0003ff80000000
000007ff0003ff80000000
00000ffe0007ff00000000
00000ffe0007ff00000000
00000ffe0007ff00000000
00001ffc000ffe00000000
00001ffc000ffe00000000
00001ffc000ffe00000000
00003ff8001ffc00000000
00003ff8001ffc00000000
00003ff8001ffc00000000
00007ff0003ff800000000
00007ff0003ff800000000
00007ff0003ff800000000
0000ffe0007ff000000000
0000ffe0007ff000000000
0000ffe00ffff000000000
0001ffc01fffe000000000
0001ffc01fffe000000000
0001ffc01fffe000000000
0003ff803fffc000000000
0003ff803fffc000000000
0003ff803fffc000000000
0007ff007fff8000000000
0007ff007fff8000000000
0007ff007fff8000000000
00007fffffff0000000000
00007fffffff0000000000
00007fffffff0000000000
0000fffffffe0000000000
0000fffffffe0000000000
0000fffffffe0000000000
0001fffffffc0000000000
0001fffffffc0000000000
0001fffffffc0000000000
0003fffffff80000000000
000000003ff80000000000
000000003ff80000000000
000000007ff00000000000
000000007ff00000000000
000000007ff00000000000
00000000ffe00000000000
00000000ffe00000000000
00000000ffe00000000000
00000001ffc00000000000
00000001ffc00000000000
03ff8001ffc00000000000
07ff0003ff800000000000
07ff0003ff800000000000
07ff0003ff800000000000
0ffe0007ff000000000000
0ffe0007ff000000000000
0ffe0007ff000000000000
1ffc000ffe000000000000
1ffc000ffe000000000000
1ffc000ffe000000000000
01ffffff80000000000000
01ffffff80000000000000
01ffffff80000000000000
03ffffff00000000000000
03ffffff00000000000000
03ffffff00000000000000
07fffffe00000000000000
07fffffe00000000000000
07fffffe00000000000000
0ffffffc00000000000000
ENDCHAR
STARTCHAR U+00FC
ENCODING 252
SWIDTH 1000 0
DWIDTH 50 0
BBX 83 100 -16 -20
BITMAP
0000000000000000000000
0000000000000000000000
0000000000000000000000
0000000000000000000000
0000000000000000000000
0000000000000000000000
0000000000000000000000
0000000000000000000000
0000000000000000000000
0000000000000000000000
000000003ff803ff800000
000000003ff803ff800000
000000007ff007ff000000
000000007ff007ff000000
000000007ff007ff000000
00000000ffe00ffe000000
00000000ffe00ffe000000
00000000ffe00ffe000000
00000001ffc01ffc000000
00000001ffc01ffc000000
0000000000000000000000
0000000000000000000000
0000000000000000000000
0000000000000000000000
0000000000000000000000
0000000000000000000000
0000000000000000000000
0000000000000000000000
0000000000000000000000
0000000000000000000000
000003ff8001ffc0000000
000003ff8001ffc0000000
000003ff8001ffc0000000
000007ff0003ff80000000
000007ff0003ff80000000
000007ff0003ff80000000
00000ffe0007ff00000000
00000ffe0007ff00000000
00000ffe0007ff00000000
00001ffc000ffe00000000
00001ffc000ffe00000000
00001ffc000ffe00000000
00003ff8001ffc00000000
00003ff8001ffc00000000
00003ff8001ffc00000000
00007ff0003ff800000000
00007ff0003ff800000000
00007ff0003ff800000000
0000ffe0007ff000000000
0000ffe0007ff000000000
0000ffe0007ff000000000
0001ffc000ffe000000000
0001ffc000ffe000000000
0001ffc000ffe000000000
0003ff8001ffc000000000
0003ff8001ffc000000000
0003ff8001ffc000000000
0007ff0003ff8000000000
0007ff0003ff8000000000
0007ff0003ff8000000000
000ffe0007ff0000000000
000ffe0007ff0000000000
000ffe0007ff0000000000
001ffc000ffe0000000000
001ffc000ffe0000000000
001ffc000ffe0000000000
003ff8001ffc0000000000
003ff8001ffc0000000000
003ff8001ffc0000000000
007ff0003ff80000000000
0003ffffffffc000000000
0003ffffffffc000000000
0007ffffffff8000000000
0007ffffffff8000000000
0007ffffffff8000000000
000fffffffff0000000000
000fffffffff0000000000
000fffffffff0000000000
001ffffffffe0000000000
001ffffffffe0000000000
0000000000000000000000
0000000000000000000000
0000000000000000000000
0000000000000000000000
0000000000000000000000
0000000000000000000000
0000000000000000000000
0000000000000000000000
0000000000000000000000
0000000000000000000000
0000000000000000000000
0000000000000000000000
0000000000000000000000
0000000000000000000000
0000000000000000000000
0000000000000000000000
0000000000000000000000
0000000000000000000000
0000000000000000000000
0000000000000000000000
ENDCHAR
STARTCHAR U+00FB
ENCODING 251
SWIDTH 1000 0
DWIDTH 50 0
BBX 83 100 -16 -20
BITMAP
00000000003ffffe000000
00000000003ffffe000000
00000000003ffffe000000
00000000007ffffc000000
00000000007ffffc000000
00000000007ffffc000000
0000000000fffff8000000
0000000000fffff8000000
0000000000fffff8000000
0000000001fffff0000000
000000003ff803ff800000
000000003ff803ff800000
000000007ff007ff000000
000000007ff007ff000000
000000007ff007ff000000
00000000ffe00ffe000000
00000000ffe00ffe000000
00000000ffe00ffe000000
00000001ffc01ffc000000
00000001ffc01ffc000000
0000000000000000000000
0000000000000000000000
0000000000000000000000
0000000000000000000000
0000000000000000000000
0000000000000000000000
0000000000000000000000
0000000000000000000000
0000000000000000000000
0000000000000000000000
000003ff8001ffc0000000
000003ff8001ffc0000000
000003ff8001ffc0000000
000007ff0003ff80000000
000007ff0003ff80000000
000007ff0003ff80000000
00000ffe0007ff00000000
00000ffe0007ff00000000
00000ffe0007ff00000000
00001ffc000ffe00000000
00001ffc000ffe00000000
00001ffc000ffe00000000
00003ff8001ffc00000000
00003ff8001ffc00000000
00003ff8001ffc00000000
00007ff0003ff800000000
00007ff0003ff800000000
00007ff0003ff800000000
0000ffe0007ff000000000
0000ffe0007ff000000000
0000ffe0007ff000000000
0001ffc000ffe000000000
0001ffc000ffe000000000
0001ffc000ffe000000000
0003ff8001ffc000000000
0003ff8001ffc000000000
0003ff8001ffc000000000
0007ff0003ff8000000000
0007ff0003ff8000000000
0007ff0003ff8000000000
000ffe0007ff0000000000
000ffe0007ff0000000000
000ffe0007ff0000000000
001ffc000ffe0000000000
001ffc000ffe0000000000
001ffc000ffe0000000000
003ff8001ffc0000000000
003ff8001ffc0000000000
003ff8001ffc0000000000
007ff0003ff80000000000
0003ffffffffc000000000
0003ffffffffc000000000
0007ffffffff8000000000
0007ffffffff8000000000
0007ffffffff8000000000
000fffffffff0000000000
000fffffffff0000000000
000fffffffff0000000000
001ffffffffe0000000000
001ffffffffe0000000000
0000000000000000000000
0000000000000000000000
0000000000000000000000
0000000000000000000000
0000000000000000000000
0000000000000000000000
0000000000000000000000
0000000000000000000000
0000000000000000000000
0000000000000000000000
0000000000000000000000
0000000000000000000000
0000000000000000000000
0000000000000000000000
0000000000000000000000
0000000000000000000000
0000000000000000000000
0000000000000000000000
0000000000000000000000
0000000000000000000000
ENDCHAR
STARTCHAR U+00FA
ENCODING 250
SWIDTH 1000 0
DWIDTH 50 0
BBX 83 100 -16 -20
BITMAP
0000000000000000000000
0000000000000000000000
0000000000000000000000
0000000000000000000000
0000000000000000000000
0000000000000000000000
0000000000000000000000
0000000000000000000000
0000000000000000000000
0000000000000000000000
00000000000ffff0000000
00000000000ffff0000000
00000000001fffe0000000
00000000001fffe0000000
00000000001fffe0000000
00000000003fffc0000000
00000000003fffc0000000
00000000003fffc0000000
00000000007fff80000000
00000000007fff80000000
00000001fffe0000000000
00000003fffc0000000000
00000003fffc0000000000
00000003fffc0000000000
00000007fff80000000000
00000007fff80000000000
00000007fff80000000000
0000000ffff00000000000
0000000ffff00000000000
0000000ffff00000000000
000003ff8001ffc0000000
000003ff8001ffc0000000
000003ff8001ffc0000000
000007ff0003ff80000000
000007ff0003ff80000000
000007ff0003ff80000000
00000ffe0007ff00000000
00000ffe0007ff00000000
00000ffe0007ff00000000
00001ffc000ffe00000000
00001ffc000ffe00000000
00001ffc000ffe00000000
00003ff8001ffc00000000
00003ff8001ffc00000000
00003ff8001ffc00000000
00007ff0003ff800000000
00007ff0003ff800000000
00007ff0003ff800000000
0000ffe0007ff000000000
0000ffe0007ff000000000
0000ffe0007ff000000000
0001ffc000ffe000000000
0001ffc000ffe000000000
0001ffc000ffe000000000
0003ff8001ffc000000000
0003ff8001ffc000000000
0003ff8001ffc000000000
0007ff0003ff8000000000
0007ff0003ff8000000000
0007ff0003ff8000000000
000ffe0007ff0000000000
000ffe0007ff0000000000
000ffe0007ff0000000000
001ffc000ffe0000000000
001ffc000ffe0000000000
001ffc000ffe0000000000
003ff8001ffc0000000000
003ff8001ffc0000000000
003ff8001ffc0000000000
007ff0003ff80000000000
0003ffffffffc000000000
0003ffffffffc000000000
0007ffffffff8000000000
0007ffffffff8000000000
0007ffffffff8000000000
000fffffffff0000000000
000fffffffff0000000000
000fffffffff0000000000
001ffffffffe0000000000
001ffffffffe0000000000
0000000000000000000000
0000000000000000000000
0000000000000000000000
0000000000000000000000
0000000000000000000000
0000000000000000000000
0000000000000000000000
0000000000000000000000
0000000000000000000000
0000000000000000000000
0000000000000000000000
0000000000000000000000
0000000000000000000000
0000000000000000000000
0000000000000000000000
0000000000000000000000
0000000000000000000000
0000000000000000000000
0000000000000000000000
0000000000000000000000
ENDCHAR
STARTCHAR U+00F9
ENCODING 249
SWIDTH 1000 0
DWIDTH 50 0
BBX 83 100 -16 -20
BITMAP
0000000000000000000000
0000000000000000000000
0000000000000000000000
0000000000000000000000
0000000000000000000000
0000000000000000000000
0000000000000000000000
0000000000000000000000
0000000000000000000000
0000000000000000000000
000000003fffc000000000
000000003fffc000000000
000000007fff8000000000
000000007fff8000000000
000000007fff8000000000
00000000ffff0000000000
00000000ffff0000000000
00000000ffff0000000000
00000001fffe0000000000
00000001fffe0000000000
00000000007fff80000000
0000000000ffff00000000
0000000000ffff00000000
0000000000ffff00000000
0000000001fffe00000000
0000000001fffe00000000
0000000001fffe00000000
0000000003fffc00000000
0000000003fffc00000000
0000000003fffc00000000
000003ff8001ffc0000000
000003ff8001ffc0000000
000003ff8001ffc0000000
000007ff0003ff80000000
000007ff0003ff80000000
000007ff0003ff80000000
00000ffe0007ff00000000
00000ffe0007ff00000000
00000ffe0007ff00000000
00001ffc000ffe00000000
00001ffc000ffe00000000
00001ffc000ffe00000000
00003ff8001ffc00000000
00003ff8001ffc00000000
00003ff8001ffc00000000
00007ff0003ff800000000
00007ff0003ff800000000
00007ff0003ff800000000
0000ffe0007ff000000000
0000ffe0007ff000000000
0000ffe0007ff000000000
0001ffc000ffe000000000
0001ffc000ffe000000000
0001ffc000ffe000000000
0003ff8001ffc000000000
0003ff8001ffc000000000
0003ff8001ffc000000000
0007ff0003ff8000000000
0007ff0003ff8000000000
0007ff0003ff8000000000
000ffe0007ff0000000000
000ffe0007ff0000000000
000ffe0007ff0000000000
001ffc000ffe0000000000
001ffc000ffe0000000000
001ffc000ffe0000000000
003ff8001ffc0000000000
003ff8001ffc0000000000
003ff8001ffc0000000000
007ff0003ff80000000000
0003ffffffffc000000000
0003ffffffffc000000000
0007ffffffff8000000000
0007ffffffff8000000000
0007ffffffff8000000000
000fffffffff0000000000
000fffffffff0000000000
000fffffffff0000000000
001ffffffffe0000000000
001ffffffffe0000000000
0000000000000000000000
0000000000000000000000
0000000000000000000000
0000000000000000000000
0000000000000000000000
0000000000000000000000
0000000000000000000000
0000000000000000000000
0000000000000000000000
0000000000000000000000
0000000000000000000000
0000000000000000000000
0000000000000000000000
0000000000000000000000
0000000000000000000000
0000000000000000000000
0000000000000000000000
0000000000000000000000
0000000000000000000000
0000000000000000000000
ENDCHAR
STARTCHAR U+00F8
ENCODING 248
SWIDTH 1000 0
DWIDTH 50 0
BBX 83 100 -16 -20
BITMAP
0000000000000000000000
0000000000000000000000
0000000000000000000000
0000000000000000000000
0000000000000000000000
0000000000000000000000
0000000000000000000000
0000000000000000000000
0000000000000000000000
0000000000000000000000
0000000000000000000000
0000000000000000000000
0000000000000000000000
0000000000000000000000
0000000000000000000000
0000000000000000000000
0000000000000000000000
0000000000000000000000
0000000000000000000000
0000000000000000000000
00000000000000ffe00000
00000000000001ffc00000
00000000000001ffc00000
00000000000001ffc00000
00000000000003ff800000
00000000000003ff800000
00000000000003ff800000
00000000000007ff000000
00000000000007ff000000
00000000000007ff000000
0000001fffffffc0000000
0000001fffffffc0000000
0000001fffffffc0000000
0000003fffffff80000000
0000003fffffff80000000
0000003fffffff80000000
0000007fffffff00000000
0000007fffffff00000000
0000007fffffff00000000
000000fffffffe00000000
00001ffc01fffff0000000
00001ffc01fffff0000000
00003ff803ffffe0000000
00003ff803ffffe0000000
00003ff803ffffe0000000
00007ff007ffffc0000000
00007ff007ffffc0000000
00007ff007ffffc0000000
0000ffe00fffff80000000
0000ffe00fffff80000000
0000ffe1ffc3ff80000000
0001ffc3ff87ff00000000
0001ffc3ff87ff00000000
0001ffc3ff87ff00000000
0003ff87ff0ffe00000000
0003ff87ff0ffe00000000
0003ff87ff0ffe00000000
0007ff0ffe1ffc00000000
0007ff0ffe1ffc00000000
0007ff0ffe1ffc00000000
000fffff803ff800000000
000fffff803ff800000000
000fffff803ff800000000
001fffff007ff000000000
001fffff007ff000000000
001fffff007ff000000000
003ffffe00ffe000000000
003ffffe00ffe000000000
003ffffe00ffe000000000
007ffffc01ffc000000000
0003fffffff80000000000
0003fffffff80000000000
0007fffffff00000000000
0007fffffff00000000000
0007fffffff00000000000
000fffffffe00000000000
000fffffffe00000000000
000fffffffe00000000000
001fffffffc00000000000
001fffffffc00000000000
03ff800000000000000000
07ff000000000000000000
07ff000000000000000000
07ff000000000000000000
0ffe000000000000000000
0ffe000000000000000000
0ffe000000000000000000
1ffc000000000000000000
1ffc000000000000000000
1ffc000000000000000000
0000000000000000000000
0000000000000000000000
0000000000000000000000
0000000000000000000000
0000000000000000000000
0000000000000000000000
0000000000000000000000
0000000000000000000000
0000000000000000000000
0000000000000000000000
ENDCHAR
STARTCHAR U+0153
ENCODING 339
SWIDTH 1000 0
DWIDTH 50 0
BBX 83 100 -16 -20
BITMAP
0000000000000000000000
0000000000000000000000
0000000000000000000000
0000000000000000000000
0000000000000000000000
0000000000000000000000
0000000000000000000000
0000000000000000000000
0000000000000000000000
0000000000000000000000
0000000000000000000000
0000000000000000000000
0000000000000000000000
0000000000000000000000
0000000000000000000000
0000000000000000000000
0000000000000000000000
0000000000000000000000
0000000000000000000000
0000000000000000000000
0000000000000000000000
0000000000000000000000
0000000000000000000000
0000000000000000000000
0000000000000000000000
0000000000000000000000
0000000000000000000000
0000000000000000000000
0000000000000000000000
0000000000000000000000
0000001fffffffc0000000
0000001fffffffc0000000
0000001fffffffc0000000
0000003fffffff80000000
0000003fffffff80000000
0000003fffffff80000000
0000007fffffff00000000
0000007fffffff00000000
0000007fffffff00000000
000000fffffffe00000000
00001ffc3ff87ff0000000
00001ffc3ff87ff0000000
00003ff87ff0ffe0000000
00003ff87ff0ffe0000000
00003ff87ff0ffe0000000
00007ff0ffe1ffc0000000
00007ff0ffe1ffc0000000
00007ff0ffe1ffc0000000
0000ffe1ffc3ff80000000
0000ffe1ffc3ff80000000
0000ffe1ffffff80000000
0001ffc3ffffff00000000
0001ffc3ffffff00000000
0001ffc3ffffff00000000
0003ff87fffffe00000000
0003ff87fffffe00000000
0003ff87fffffe00000000
0007ff0ffffffc00000000
0007ff0ffffffc00000000
0007ff0ffffffc00000000
000ffe1ffc000000000000
000ffe1ffc000000000000
000ffe1ffc000000000000
001ffc3ff8000000000000
001ffc3ff8000000000000
001ffc3ff8000000000000
003ff87ff0000000000000
003ff87ff0000000000000
003ff87ff0000000000000
007ff0ffe0000000000000
0003ffffffffc000000000
0003ffffffffc000000000
0007ffffffff8000000000
0007ffffffff8000000000
0007ffffffff8000000000
000fffffffff0000000000
000fffffffff0000000000
000fffffffff0000000000
001ffffffffe0000000000
001ffffffffe0000000000
0000000000000000000000
0000000000000000000000
0000000000000000000000
0000000000000000000000
0000000000000000000000
0000000000000000000000
0000000000000000000000
0000000000000000000000
0000000000000000000000
0000000000000000000000
0000000000000000000000
0000000000000000000000
0000000000000000000000
0000000000000000000000
0000000000000000000000
0000000000000000000000
0000000000000000000000
0000000000000000000000
0000000000000000000000
0000000000000000000000
ENDCHAR
STARTCHAR U+00F6
ENCODING 246
SWIDTH 1000 0
DWIDTH 50 0
BBX 83 100 -16 -20
BITMAP
0000000000000000000000
0000000000000000000000
0000000000000000000000
0000000000000000000000
0000000000000000000000
0000000000000000000000
0000000000000000000000
0000000000000000000000
0000000000000000000000
0000000000000000000000
000000003ff803ff800000
000000003ff803ff800000
000000007ff007ff000000
000000007ff007ff000000
000000007ff007ff000000
00000000ffe00ffe000000
00000000ffe00ffe000000
00000000ffe00ffe000000
00000001ffc01ffc000000
00000001ffc01ffc000000
0000000000000000000000
0000000000000000000000
0000000000000000000000
0000000000000000000000
0000000000000000000000
0000000000000000000000
0000000000000000000000
0000000000000000000000
0000000000000000000000
0000000000000000000000
0000001fffffffc0000000
0000001fffffffc0000000
0000001fffffffc0000000
0000003fffffff80000000
0000003fffffff80000000
0000003fffffff80000000
0000007fffffff00000000
0000007fffffff00000000
0000007fffffff00000000
000000fffffffe00000000
00001ffc00007ff0000000
00001ffc00007ff0000000
00003ff80000ffe0000000
00003ff80000ffe0000000
00003ff80000ffe0000000
00007ff00001ffc0000000
00007ff00001ffc0000000
00007ff00001ffc0000000
0000ffe00003ff80000000
0000ffe00003ff80000000
0000ffe00003ff80000000
0001ffc00007ff00000000
0001ffc00007ff00000000
0001ffc00007ff00000000
0003ff80000ffe00000000
0003ff80000ffe00000000
0003ff80000ffe00000000
0007ff00001ffc00000000
0007ff00001ffc00000000
0007ff00001ffc00000000
000ffe00003ff800000000
000ffe00003ff800000000
000ffe00003ff800000000
001ffc00007ff000000000
001ffc00007ff000000000
001ffc00007ff000000000
003ff80000ffe000000000
003ff80000ffe000000000
003ff80000ffe000000000
007ff00001ffc000000000
0003fffffff80000000000
0003fffffff80000000000
0007fffffff00000000000
0007fffffff00000000000
0007fffffff00000000000
000fffffffe00000000000
000fffffffe00000000000
000fffffffe00000000000
001fffffffc00000000000
001fffffffc00000000000
0000000000000000000000
0000000000000000000000
0000000000000000000000
0000000000000000000000
0000000000000000000000
0000000000000000000000
0000000000000000000000
0000000000000000000000
0000000000000000000000
0000000000000000000000
0000000000000000000000
0000000000000000000000
0000000000000000000000
0000000000000000000000
0000000000000000000000
0000000000000000000000
0000000000000000000000
0000000000000000000000
0000000000000000000000
0000000000000000000000
ENDCHAR
STARTCHAR U+00F5
ENCODING 245
SWIDTH 1000 0
DWIDTH 50 0
BBX 83 100 -16 -20
BITMAP
0000000007fff87ff00000
0000000007fff87ff00000
0000000007fff87ff00000
000000000ffff0ffe00000
000000000ffff0ffe00000
000000000ffff0ffe00000
000000001fffe1ffc00000
000000001fffe1ffc00000
000000001fffe1ffc00000
000000003fffc3ff800000
00000007ff0ffff0000000
00000007ff0ffff0000000
0000000ffe1fffe0000000
0000000ffe1fffe0000000
0000000ffe1fffe0000000
0000001ffc3fffc0000000
0000001ffc3fffc0000000
0000001ffc3fffc0000000
0000003ff87fff80000000
0000003ff87fff80000000
0000000000000000000000
0000000000000000000000
0000000000000000000000
0000000000000000000000
0000000000000000000000
0000000000000000000000
0000000000000000000000
0000000000000000000000
0000000000000000000000
0000000000000000000000
0000001fffffffc0000000
0000001fffffffc0000000
0000001fffffffc0000000
0000003fffffff80000000
0000003fffffff80000000
0000003fffffff80000000
0000007fffffff00000000
0000007fffffff00000000
0000007fffffff00000000
000000fffffffe00000000
00001ffc00007ff0000000
00001ffc00007ff0000000
00003ff80000ffe0000000
00003ff80000ffe0000000
00003ff80000ffe0000000
00007ff00001ffc0000000
00007ff00001ffc0000000
00007ff00001ffc0000000
0000ffe00003ff80000000
0000ffe00003ff80000000
0000ffe00003ff80000000
0001ffc00007ff00000000
0001ffc00007ff00000000
0001ffc00007ff00000000
0003ff80000ffe00000000
0003ff80000ffe00000000
0003ff80000ffe00000000
0007ff00001ffc00000000
0007ff00001ffc00000000
0007ff00001ffc00000000
000ffe00003ff800000000
000ffe00003ff800000000
000ffe00003ff800000000
001ffc00007ff000000000
001ffc00007ff000000000
001ffc00007ff000000000
003ff80000ffe000000000
003ff80000ffe000000000
003ff80000ffe000000000
007ff00001ffc000000000
0003fffffff80000000000
0003fffffff80000000000
0007fffffff00000000000
0007fffffff00000000000
0007fffffff00000000000
000fffffffe00000000000
000fffffffe00000000000
000fffffffe00000000000
001fffffffc00000000000
001fffffffc00000000000
0000000000000000000000
0000000000000000000000
0000000000000000000000
0000000000000000000000
0000000000000000000000
0000000000000000000000
0000000000000000000000
0000000000000000000000
0000000000000000000000
0000000000000000000000
0000000000000000000000
0000000000000000000000
0000000000000000000000
0000000000000000000000
0000000000000000000000
0000000000000000000000
0000000000000000000000
0000000000000000000000
0000000000000000000000
0000000000000000000000
ENDCHAR
STARTCHAR U+00F4
ENCODING 244
SWIDTH 1000 0
DWIDTH 50 0
BBX 83 100 -16 -20
BITMAP
00000000003ffffe000000
00000000003ffffe000000
00000000003ffffe000000
00000000007ffffc000000
00000000007ffffc000000
00000000007ffffc000000
0000000000fffff8000000
0000000000fffff8000000
0000000000fffff8000000
0000000001fffff0000000
000000003ff803ff800000
000000003ff803ff800000
000000007ff007ff000000
000000007ff007ff000000
000000007ff007ff000000
00000000ffe00ffe000000
00000000ffe00ffe000000
00000000ffe00ffe000000
00000001ffc01ffc000000
00000001ffc01ffc000000
0000000000000000000000
0000000000000000000000
0000000000000000000000
0000000000000000000000
0000000000000000000000
0000000000000000000000
0000000000000000000000
0000000000000000000000
0000000000000000000000
0000000000000000000000
0000001fffffffc0000000
0000001fffffffc0000000
0000001fffffffc0000000
0000003fffffff80000000
0000003fffffff80000000
0000003fffffff80000000
0000007fffffff00000000
0000007fffffff00000000
0000007fffffff00000000
000000fffffffe00000000
00001ffc00007ff0000000
00001ffc00007ff0000000
00003ff80000ffe0000000
00003ff80000ffe0000000
00003ff80000ffe0000000
00007ff00001ffc0000000
00007ff00001ffc0000000
00007ff00001ffc0000000
0000ffe00003ff80000000
0000ffe00003ff80000000
0000ffe00003ff80000000
0001ffc00007ff00000000
0001ffc00007ff00000000
0001ffc00007ff00000000
0003ff80000ffe00000000
0003ff80000ffe00000000
0003ff80000ffe00000000
0007ff00001ffc00000000
0007ff00001ffc00000000
0007ff00001ffc00000000
000ffe00003ff800000000
000ffe00003ff800000000
000ffe00003ff800000000
001ffc00007ff000000000
001ffc00007ff000000000
001ffc00007ff000000000
003ff80000ffe000000000
003ff80000ffe000000000
003ff80000ffe000000000
007ff00001ffc000000000
0003fffffff80000000000
0003fffffff80000000000
0007fffffff00000000000
0007fffffff00000000000
0007fffffff00000000000
000fffffffe00000000000
000fffffffe00000000000
000fffffffe00000000000
001fffffffc00000000000
001fffffffc00000000000
0000000000000000000000
0000000000000000000000
0000000000000000000000
0000000000000000000000
0000000000000000000000
0000000000000000000000
0000000000000000000000
0000000000000000000000
0000000000000000000000
0000000000000000000000
0000000000000000000000
0000000000000000000000
0000000000000000000000
0000000000000000000000
0000000000000000000000
0000000000000000000000
0000000000000000000000
0000000000000000000000
0000000000000000000000
0000000000000000000000
ENDCHAR
STARTCHAR U+00F3
ENCODING 243
SWIDTH 1000 0
DWIDTH 50 0
BBX 83 100 -16 -20
BITMAP
0000000000000000000000
0000000000000000000000
0000000000000000000000
0000000000000000000000
0000000000000000000000
0000000000000000000000
0000000000000000000000
0000000000000000000000
0000000000000000000000
0000000000000000000000
00000000000ffff0000000
00000000000ffff0000000
00000000001fffe0000000
00000000001fffe0000000
00000000001fffe0000000
00000000003fffc0000000
00000000003fffc0000000
00000000003fffc0000000
00000000007fff80000000
00000000007fff80000000
00000001fffe0000000000
00000003fffc0000000000
00000003fffc0000000000
00000003fffc0000000000
00000007fff80000000000
00000007fff80000000000
00000007fff80000000000
0000000ffff00000000000
0000000ffff00000000000
0000000ffff00000000000
0000001fffffffc0000000
0000001fffffffc0000000
0000001fffffffc0000000
0000003fffffff80000000
0000003fffffff80000000
0000003fffffff80000000
0000007fffffff00000000
0000007fffffff00000000
0000007fffffff00000000
000000fffffffe00000000
00001ffc00007ff0000000
00001ffc00007ff0000000
00003ff80000ffe0000000
00003ff80000ffe0000000
00003ff80000ffe0000000
00007ff00001ffc0000000
00007ff00001ffc0000000
00007ff00001ffc0000000
0000ffe00003ff80000000
0000ffe00003ff80000000
0000ffe00003ff80000000
0001ffc00007ff00000000
0001ffc00007ff00000000
0001ffc00007ff00000000
0003ff80000ffe00000000
0003ff80000ffe00000000
0003ff80000ffe00000000
0007ff00001ffc00000000
0007ff00001ffc00000000
0007ff00001ffc00000000
000ffe00003ff800000000
000ffe00003ff800000000
000ffe00003ff800000000
001ffc00007ff000000000
001ffc00007ff000000000
001ffc00007ff000000000
003ff80000ffe000000000
003ff80000ffe000000000
003ff80000ffe000000000
007ff00001ffc000000000
0003fffffff80000000000
0003fffffff80000000000
0007fffffff00000000000
0007fffffff00000000000
0007fffffff00000000000
000fffffffe00000000000
000fffffffe00000000000
000fffffffe00000000000
001fffffffc00000000000
001fffffffc00000000000
0000000000000000000000
0000000000000000000000
0000000000000000000000
0000000000000000000000
0000000000000000000000
0000000000000000000000
0000000000000000000000
0000000000000000000000
0000000000000000000000
0000000000000000000000
0000000000000000000000
0000000000000000000000
0000000000000000000000
0000000000000000000000
0000000000000000000000
0000000000000000000000
0000000000000000000000
0000000000000000000000
0000000000000000000000
0000000000000000000000
ENDCHAR
STARTCHAR U+00F2
ENCODING 242
SWIDTH 1000 0
DWIDTH 50 0
BBX 83 100 -16 -20
BITMAP
0000000000000000000000
0000000000000000000000
0000000000000000000000
0000000000000000000000
0000000000000000000000
0000000000000000000000
0000000000000000000000
0000000000000000000000
0000000000000000000000
0000000000000000000000
0000000001fffe00000000
0000000001fffe00000000
0000000003fffc00000000
0000000003fffc00000000
0000000003fffc00000000
0000000007fff800000000
0000000007fff800000000
0000000007fff800000000
000000000ffff000000000
000000000ffff000000000
000000000003fffc000000
000000000007fff8000000
000000000007fff8000000
000000000007fff8000000
00000000000ffff0000000
00000000000ffff0000000
00000000000ffff0000000
00000000001fffe0000000
00000000001fffe0000000
00000000001fffe0000000
0000001fffffffc0000000
0000001fffffffc0000000
0000001fffffffc0000000
0000003fffffff80000000
0000003fffffff80000000
0000003fffffff80000000
0000007fffffff00000000
0000007fffffff00000000
0000007fffffff00000000
000000fffffffe00000000
00001ffc00007ff0000000
00001ffc00007ff0000000
00003ff80000ffe0000000
00003ff80000ffe0000000
00003ff80000ffe0000000
00007ff00001ffc0000000
00007ff00001ffc0000000
00007ff00001ffc0000000
0000ffe00003ff80000000
0000ffe00003ff80000000
0000ffe00003ff80000000
0001ffc00007ff00000000
0001ffc00007ff00000000
0001ffc00007ff00000000
0003ff80000ffe00000000
0003ff80000ffe00000000
0003ff80000ffe00000000
0007ff00001ffc00000000
0007ff00001ffc00000000
0007ff00001ffc00000000
000ffe00003ff800000000
000ffe00003ff800000000
000ffe00003ff800000000
001ffc00007ff000000000
001ffc00007ff000000000
001ffc00007ff000000000
003ff80000ffe000000000
003ff80000ffe000000000
003ff80000ffe000000000
007ff00001ffc000000000
0003fffffff80000000000
0003fffffff80000000000
0007fffffff00000000000
0007fffffff00000000000
0007fffffff00000000000
000fffffffe00000000000
000fffffffe00000000000
000fffffffe00000000000
001fffffffc00000000000
001fffffffc00000000000
0000000000000000000000
0000000000000000000000
0000000000000000000000
0000000000000000000000
0000000000000000000000
0000000000000000000000
0000000000000000000000
0000000000000000000000
0000000000000000000000
0000000000000000000000
0000000000000000000000
0000000000000000000000
0000000000000000000000
0000000000000000000000
0000000000000000000000
0000000000000000000000
0000000000000000000000
0000000000000000000000
0000000000000000000000
0000000000000000000000
ENDCHAR
STARTCHAR U+00F1
ENCODING 241
SWIDTH 1000 0
DWIDTH 50 0
BBX 83 100 -16 -20
BITMAP
0000000007fff87ff00000
0000000007fff87ff00000
0000000007fff87ff00000
000000000ffff0ffe00000
000000000ffff0ffe00000
000000000ffff0ffe00000
000000001fffe1ffc00000
000000001fffe1ffc00000
000000001fffe1ffc00000
000000003fffc3ff800000
00000007ff0ffff0000000
00000007ff0ffff0000000
0000000ffe1fffe0000000
0000000ffe1fffe0000000
0000000ffe1fffe0000000
0000001ffc3fffc0000000
0000001ffc3fffc0000000
0000001ffc3fffc0000000
0000003ff87fff80000000
0000003ff87fff80000000
0000000000000000000000
0000000000000000000000
0000000000000000000000
0000000000000000000000
0000000000000000000000
0000000000000000000000
0000000000000000000000
0000000000000000000000
0000000000000000000000
0000000000000000000000
000003ffffffffc0000000
000003ffffffffc0000000
000003ffffffffc0000000
000007ffffffff80000000
000007ffffffff80000000
000007ffffffff80000000
00000fffffffff00000000
00000fffffffff00000000
00000fffffffff00000000
00001ffffffffe00000000
00001fffe0007ff0000000
00001fffe0007ff0000000
00003fffc000ffe0000000
00003fffc000ffe0000000
00003fffc000ffe0000000
00007fff8001ffc0000000
00007fff8001ffc0000000
00007fff8001ffc0000000
0000ffff0003ff80000000
0000ffff0003ff80000000
0000ffe00003ff80000000
0001ffc00007ff00000000
0001ffc00007ff00000000
0001ffc00007ff00000000
0003ff80000ffe00000000
0003ff80000ffe00000000
0003ff80000ffe00000000
0007ff00001ffc00000000
0007ff00001ffc00000000
0007ff00001ffc00000000
000ffe00003ff800000000
000ffe00003ff800000000
000ffe00003ff800000000
001ffc00007ff000000000
001ffc00007ff000000000
001ffc00007ff000000000
003ff80000ffe000000000
003ff80000ffe000000000
003ff80000ffe000000000
007ff00001ffc000000000
007ff00001ffc000000000
007ff00001ffc000000000
00ffe00003ff8000000000
00ffe00003ff8000000000
00ffe00003ff8000000000
01ffc00007ff0000000000
01ffc00007ff0000000000
01ffc00007ff0000000000
03ff80000ffe0000000000
03ff80000ffe0000000000
0000000000000000000000
0000000000000000000000
0000000000000000000000
0000000000000000000000
0000000000000000000000
0000000000000000000000
0000000000000000000000
0000000000000000000000
0000000000000000000000
0000000000000000000000
0000000000000000000000
0000000000000000000000
0000000000000000000000
0000000000000000000000
0000000000000000000000
0000000000000000000000
0000000000000000000000
0000000000000000000000
0000000000000000000000
0000000000000000000000
ENDCHAR
STARTCHAR U+00F0
ENCODING 240
SWIDTH 1000 0
DWIDTH 50 0
BBX 83 100 -16 -20
BITMAP
000000000001ffc3ff8000
000000000001ffc3ff8000
000000000001ffc3ff8000
000000000003ff87ff0000
000000000003ff87ff0000
000000000003ff87ff0000
000000000007ff0ffe0000
000000000007ff0ffe0000
000000000007ff0ffe0000
00000000000ffe1ffc0000
0000000000007fff800000
0000000000007fff800000
000000000000ffff000000
000000000000ffff000000
000000000000ffff000000
000000000001fffe000000
000000000001fffe000000
000000000001fffe000000
000000000003fffc000000
000000000003fffc000000
00000000007ff0ffe00000
0000000000ffe1ffc00000
0000000000ffe1ffc00000
0000000000ffe1ffc00000
0000000001ffc3ff800000
0000000001ffc3ff800000
0000000001ffc3ff800000
0000000003ff87ff000000
0000000003ff87ff000000
0000000003ff87ff000000
0000001ffffffffe000000
0000001ffffffffe000000
0000001ffffffffe000000
0000003ffffffffc000000
0000003ffffffffc000000
0000003ffffffffc000000
0000007ffffffff8000000
0000007ffffffff8000000
0000007ffffffff8000000
000000fffffffff0000000
00001ffc000ffff0000000
00001ffc000ffff0000000
00003ff8001fffe0000000
00003ff8001fffe0000000
00003ff8001fffe0000000
00007ff0003fffc0000000
00007ff0003fffc0000000
00007ff0003fffc0000000
0000ffe0007fff80000000
0000ffe0007fff80000000
0000ffe00003ff80000000
0001ffc00007ff00000000
0001ffc00007ff00000000
0001ffc00007ff00000000
0003ff80000ffe00000000
0003ff80000ffe00000000
0003ff80000ffe00000000
0007ff00001ffc00000000
0007ff00001ffc00000000
0007ff00001ffc00000000
000ffe0007ff0000000000
000ffe0007ff0000000000
000ffe0007ff0000000000
001ffc000ffe0000000000
001ffc000ffe0000000000
001ffc000ffe0000000000
003ff8001ffc0000000000
003ff8001ffc0000000000
003ff8001ffc0000000000
007ff0003ff80000000000
0003ffffff000000000000
0003ffffff000000000000
0007fffffe000000000000
0007fffffe000000000000
0007fffffe000000000000
000ffffffc000000000000
000ffffffc000000000000
000ffffffc000000000000
001ffffff8000000000000
001ffffff8000000000000
0000000000000000000000
0000000000000000000000
0000000000000000000000
0000000000000000000000
0000000000000000000000
0000000000000000000000
0000000000000000000000
0000000000000000000000
0000000000000000000000
0000000000000000000000
0000000000000000000000
0000000000000000000000
0000000000000000000000
0000000000000000000000
0000000000000000000000
0000000000000000000000
0000000000000000000000
0000000000000000000000
0000000000000000000000
0000000000000000000000
ENDCHAR
STARTCHAR U+00EF
ENCODING 239
SWIDTH 1000 0
DWIDTH 50 0
BBX 83 100 -16 -20
BITMAP
0000000000000000000000
0000000000000000000000
0000000000000000000000
0000000000000000000000
0000000000000000000000
0000000000000000000000
0000000000000000000000
0000000000000000000000
0000000000000000000000
0000000000000000000000
000000003ff803ff800000
000000003ff803ff800000
000000007ff007ff000000
000000007ff007ff000000
000000007ff007ff000000
00000000ffe00ffe000000
00000000ffe00ffe000000
00000000ffe00ffe000000
00000001ffc01ffc000000
00000001ffc01ffc000000
0000000000000000000000
0000000000000000000000
0000000000000000000000
0000000000000000000000
0000000000000000000000
0000000000000000000000
0000000000000000000000
0000000000000000000000
0000000000000000000000
0000000000000000000000
00000000ffff0000000000
00000000ffff0000000000
00000000ffff0000000000
00000001fffe0000000000
00000001fffe0000000000
00000001fffe0000000000
00000003fffc0000000000
00000003fffc0000000000
00000003fffc0000000000
00000007fff80000000000
000000003ff80000000000
000000003ff80000000000
000000007ff00000000000
000000007ff00000000000
000000007ff00000000000
00000000ffe00000000000
00000000ffe00000000000
00000000ffe00000000000
00000001ffc00000000000
00000001ffc00000000000
00000001ffc00000000000
00000003ff800000000000
00000003ff800000000000
00000003ff800000000000
00000007ff000000000000
00000007ff000000000000
00000007ff000000000000
0000000ffe000000000000
0000000ffe000000000000
0000000ffe000000000000
0000001ffc000000000000
0000001ffc000000000000
0000001ffc000000000000
0000003ff8000000000000
0000003ff8000000000000
0000003ff8000000000000
0000007ff0000000000000
0000007ff0000000000000
0000007ff0000000000000
000000ffe0000000000000
0003fffffff80000000000
0003fffffff80000000000
0007fffffff00000000000
0007fffffff00000000000
0007fffffff00000000000
000fffffffe00000000000
000fffffffe00000000000
000fffffffe00000000000
001fffffffc00000000000
001fffffffc00000000000
0000000000000000000000
0000000000000000000000
0000000000000000000000
0000000000000000000000
0000000000000000000000
0000000000000000000000
0000000000000000000000
0000000000000000000000
0000000000000000000000
0000000000000000000000
0000000000000000000000
0000000000000000000000
0000000000000000000000
0000000000000000000000
0000000000000000000000
0000000000000000000000
0000000000000000000000
0000000000000000000000
0000000000000000000000
0000000000000000000000
ENDCHAR
STARTCHAR U+00EE
ENCODING 238
SWIDTH 1000 0
DWIDTH 50 0
BBX 83 100 -16 -20
BITMAP
00000000003ffffe000000
00000000003ffffe000000
00000000003ffffe000000
00000000007ffffc000000
00000000007ffffc000000
00000000007ffffc000000
0000000000fffff8000000
0000000000fffff8000000
0000000000fffff8000000
0000000001fffff0000000
000000003ff803ff800000
000000003ff803ff800000
000000007ff007ff000000
000000007ff007ff000000
000000007ff007ff000000
00000000ffe00ffe000000
00000000ffe00ffe000000
00000000ffe00ffe000000
00000001ffc01ffc000000
00000001ffc01ffc000000
0000000000000000000000
0000000000000000000000
0000000000000000000000
0000000000000000000000
0000000000000000000000
0000000000000000000000
0000000000000000000000
0000000000000000000000
0000000000000000000000
0000000000000000000000
00000000ffff0000000000
00000000ffff0000000000
00000000ffff0000000000
00000001fffe0000000000
00000001fffe0000000000
00000001fffe0000000000
00000003fffc0000000000
00000003fffc0000000000
00000003fffc0000000000
00000007fff80000000000
000000003ff80000000000
000000003ff80000000000
000000007ff00000000000
000000007ff00000000000
000000007ff00000000000
00000000ffe00000000000
00000000ffe00000000000
00000000ffe00000000000
00000001ffc00000000000
00000001ffc00000000000
00000001ffc00000000000
00000003ff800000000000
00000003ff800000000000
00000003ff800000000000
00000007ff000000000000
00000007ff000000000000
00000007ff000000000000
0000000ffe000000000000
0000000ffe000000000000
0000000ffe000000000000
0000001ffc000000000000
0000001ffc000000000000
0000001ffc000000000000
0000003ff8000000000000
0000003ff8000000000000
0000003ff8000000000000
0000007ff0000000000000
0000007ff0000000000000
0000007ff0000000000000
000000ffe0000000000000
0003fffffff80000000000
0003fffffff80000000000
0007fffffff00000000000
0007fffffff00000000000
0007fffffff00000000000
000fffffffe00000000000
000fffffffe00000000000
000fffffffe00000000000
001fffffffc00000000000
001fffffffc00000000000
0000000000000000000000
0000000000000000000000
0000000000000000000000
0000000000000000000000
0000000000000000000000
0000000000000000000000
0000000000000000000000
0000000000000000000000
0000000000000000000000
0000000000000000000000
0000000000000000000000
0000000000000000000000
0000000000000000000000
0000000000000000000000
0000000000000000000000
0000000000000000000000
0000000000000000000000
0000000000000000000000
0000000000000000000000
0000000000000000000000
ENDCHAR
STARTCHAR U+00ED
ENCODING 237
SWIDTH 1000 0
DWIDTH 50 0
BBX 83 100 -16 -20
BITMAP
0000000000000000000000
0000000000000000000000
0000000000000000000000
0000000000000000000000
0000000000000000000000
0000000000000000000000
0000000000000000000000
0000000000000000000000
0000000000000000000000
0000000000000000000000
00000000000ffff0000000
00000000000ffff0000000
00000000001fffe0000000
00000000001fffe0000000
00000000001fffe0000000
00000000003fffc0000000
00000000003fffc0000000
00000000003fffc0000000
00000000007fff80000000
00000000007fff80000000
00000001fffe0000000000
00000003fffc0000000000
00000003fffc0000000000
00000003fffc0000000000
00000007fff80000000000
00000007fff80000000000
00000007fff80000000000
0000000ffff00000000000
0000000ffff00000000000
0000000ffff00000000000
00000000ffff0000000000
00000000ffff0000000000
00000000ffff0000000000
00000001fffe0000000000
00000001fffe0000000000
00000001fffe0000000000
00000003fffc0000000000
00000003fffc0000000000
00000003fffc0000000000
00000007fff80000000000
000000003ff80000000000
000000003ff80000000000
000000007ff00000000000
000000007ff00000000000
000000007ff00000000000
00000000ffe00000000000
00000000ffe00000000000
00000000ffe00000000000
00000001ffc00000000000
00000001ffc00000000000
00000001ffc00000000000
00000003ff800000000000
00000003ff800000000000
00000003ff800000000000
00000007ff000000000000
00000007ff000000000000
00000007ff000000000000
0000000ffe000000000000
0000000ffe000000000000
0000000ffe000000000000
0000001ffc000000000000
0000001ffc000000000000
0000001ffc000000000000
0000003ff8000000000000
0000003ff8000000000000
0000003ff8000000000000
0000007ff0000000000000
0000007ff0000000000000
0000007ff0000000000000
000000ffe0000000000000
0003fffffff80000000000
0003fffffff80000000000
0007fffffff00000000000
0007fffffff00000000000
0007fffffff00000000000
000fffffffe00000000000
000fffffffe00000000000
000fffffffe00000000000
001fffffffc00000000000
001fffffffc00000000000
0000000000000000000000
0000000000000000000000
0000000000000000000000
0000000000000000000000
0000000000000000000000
0000000000000000000000
0000000000000000000000
0000000000000000000000
0000000000000000000000
0000000000000000000000
0000000000000000000000
0000000000000000000000
0000000000000000000000
0000000000000000000000
0000000000000000000000
0000000000000000000000
0000000000000000000000
0000000000000000000000
0000000000000000000000
0000000000000000000000
ENDCHAR
STARTCHAR U+00EC
ENCODING 236
SWIDTH 1000 0
DWIDTH 50 0
BBX 83 100 -16 -20
BITMAP
0000000000000000000000
0000000000000000000000
0000000000000000000000
0000000000000000000000
0000000000000000000000
0000000000000000000000
0000000000000000000000
0000000000000000000000
0000000000000000000000
0000000000000000000000
000000003fffc000000000
000000003fffc000000000
000000007fff8000000000
000000007fff8000000000
000000007fff8000000000
00000000ffff0000000000
00000000ffff0000000000
00000000ffff0000000000
00000001fffe0000000000
00000001fffe0000000000
00000000007fff80000000
0000000000ffff00000000
0000000000ffff00000000
0000000000ffff00000000
0000000001fffe00000000
0000000001fffe00000000
0000000001fffe00000000
0000000003fffc00000000
0000000003fffc00000000
0000000003fffc00000000
00000000ffff0000000000
00000000ffff0000000000
00000000ffff0000000000
00000001fffe0000000000
00000001fffe0000000000
00000001fffe0000000000
00000003fffc0000000000
00000003fffc0000000000
00000003fffc0000000000
00000007fff80000000000
000000003ff80000000000
000000003ff80000000000
000000007ff00000000000
000000007ff00000000000
000000007ff00000000000
00000000ffe00000000000
00000000ffe00000000000
00000000ffe00000000000
00000001ffc00000000000
00000001ffc00000000000
00000001ffc00000000000
00000003ff800000000000
00000003ff800000000000
00000003ff800000000000
00000007ff000000000000
00000007ff000000000000
00000007ff000000000000
0000000ffe000000000000
0000000ffe000000000000
0000000ffe000000000000
0000001ffc000000000000
0000001ffc000000000000
0000001ffc000000000000
0000003ff8000000000000
0000003ff8000000000000
0000003ff8000000000000
0000007ff0000000000000
0000007ff0000000000000
0000007ff0000000000000
000000ffe0000000000000
0003fffffff80000000000
0003fffffff80000000000
0007fffffff00000000000
0007fffffff00000000000
0007fffffff00000000000
000fffffffe00000000000
000fffffffe00000000000
000fffffffe00000000000
001fffffffc00000000000
001fffffffc00000000000
0000000000000000000000
0000000000000000000000
0000000000000000000000
0000000000000000000000
0000000000000000000000
0000000000000000000000
0000000000000000000000
0000000000000000000000
0000000000000000000000
0000000000000000000000
0000000000000000000000
0000000000000000000000
0000000000000000000000
0000000000000000000000
0000000000000000000000
0000000000000000000000
0000000000000000000000
0000000000000000000000
0000000000000000000000
0000000000000000000000
ENDCHAR
STARTCHAR U+00EB
ENCODING 235
SWIDTH 1000 0
DWIDTH 50 0
BBX 83 100 -16 -20
BITMAP
0000000000000000000000
0000000000000000000000
0000000000000000000000
0000000000000000000000
0000000000000000000000
0000000000000000000000
0000000000000000000000
0000000000000000000000
0000000000000000000000
0000000000000000000000
000000003ff803ff800000
000000003ff803ff800000
000000007ff007ff000000
000000007ff007ff000000
000000007ff007ff000000
00000000ffe00ffe000000
00000000ffe00ffe000000
00000000ffe00ffe000000
00000001ffc01ffc000000
00000001ffc01ffc000000
0000000000000000000000
0000000000000000000000
0000000000000000000000
0000000000000000000000
0000000000000000000000
0000000000000000000000
0000000000000000000000
0000000000000000000000
0000000000000000000000
0000000000000000000000
0000001fffffffc0000000
0000001fffffffc0000000
0000001fffffffc0000000
0000003fffffff80000000
0000003fffffff80000000
0000003fffffff80000000
0000007fffffff00000000
0000007fffffff00000000
0000007fffffff00000000
000000fffffffe00000000
00001ffc00007ff0000000
00001ffc00007ff0000000
00003ff80000ffe0000000
00003ff80000ffe0000000
00003ff80000ffe0000000
00007ff00001ffc0000000
00007ff00001ffc0000000
00007ff00001ffc0000000
0000ffe00003ff80000000
0000ffe00003ff80000000
0000ffffffffff80000000
0001ffffffffff00000000
0001ffffffffff00000000
0001ffffffffff00000000
0003fffffffffe00000000
0003fffffffffe00000000
0003fffffffffe00000000
0007fffffffffc00000000
0007fffffffffc00000000
0007fffffffffc00000000
000ffe0000000000000000
000ffe0000000000000000
000ffe0000000000000000
001ffc0000000000000000
001ffc0000000000000000
001ffc0000000000000000
003ff80000000000000000
003ff80000000000000000
003ff80000000000000000
007ff00000000000000000
0003fffffff80000000000
0003fffffff80000000000
0007fffffff00000000000
0007fffffff00000000000
0007fffffff00000000000
000fffffffe00000000000
000fffffffe00000000000
000fffffffe00000000000
001fffffffc00000000000
001fffffffc00000000000
0000000000000000000000
0000000000000000000000
0000000000000000000000
0000000000000000000000
0000000000000000000000
0000000000000000000000
0000000000000000000000
0000000000000000000000
0000000000000000000000
0000000000000000000000
0000000000000000000000
0000000000000000000000
0000000000000000000000
0000000000000000000000
0000000000000000000000
0000000000000000000000
0000000000000000000000
0000000000000000000000
0000000000000000000000
0000000000000000000000
ENDCHAR
STARTCHAR U+00EA
ENCODING 234
SWIDTH 1000 0
DWIDTH 50 0
BBX 83 100 -16 -20
BITMAP
00000000003ffffe000000
00000000003ffffe000000
00000000003ffffe000000
00000000007ffffc000000
00000000007ffffc000000
00000000007ffffc000000
0000000000fffff8000000
0000000000fffff8000000
0000000000fffff8000000
0000000001fffff0000000
000000003ff803ff800000
000000003ff803ff800000
000000007ff007ff000000
000000007ff007ff000000
000000007ff007ff000000
00000000ffe00ffe000000
00000000ffe00ffe000000
00000000ffe00ffe000000
00000001ffc01ffc000000
00000001ffc01ffc000000
0000000000000000000000
0000000000000000000000
0000000000000000000000
0000000000000000000000
0000000000000000000000
0000000000000000000000
0000000000000000000000
0000000000000000000000
0000000000000000000000
0000000000000000000000
0000001fffffffc0000000
0000001fffffffc0000000
0000001fffffffc0000000
0000003fffffff80000000
0000003fffffff80000000
0000003fffffff80000000
0000007fffffff00000000
0000007fffffff00000000
0000007fffffff00000000
000000fffffffe00000000
00001ffc00007ff0000000
00001ffc00007ff0000000
00003ff80000ffe0000000
00003ff80000ffe0000000
00003ff80000ffe0000000
00007ff00001ffc0000000
00007ff00001ffc0000000
00007ff00001ffc0000000
0000ffe00003ff80000000
0000ffe00003ff80000000
0000ffffffffff80000000
0001ffffffffff00000000
0001ffffffffff00000000
0001ffffffffff00000000
0003fffffffffe00000000
0003fffffffffe00000000
0003fffffffffe00000000
0007fffffffffc00000000
0007fffffffffc00000000
0007fffffffffc00000000
000ffe0000000000000000
000ffe0000000000000000
000ffe0000000000000000
001ffc0000000000000000
001ffc0000000000000000
001ffc0000000000000000
003ff80000000000000000
003ff80000000000000000
003ff80000000000000000
007ff00000000000000000
0003fffffff80000000000
0003fffffff80000000000
0007fffffff00000000000
0007fffffff00000000000
0007fffffff00000000000
000fffffffe00000000000
000fffffffe00000000000
000fffffffe00000000000
001fffffffc00000000000
001fffffffc00000000000
0000000000000000000000
0000000000000000000000
0000000000000000000000
0000000000000000000000
0000000000000000000000
0000000000000000000000
0000000000000000000000
0000000000000000000000
0000000000000000000000
0000000000000000000000
0000000000000000000000
0000000000000000000000
0000000000000000000000
0000000000000000000000
0000000000000000000000
0000000000000000000000
0000000000000000000000
0000000000000000000000
0000000000000000000000
0000000000000000000000
ENDCHAR
STARTCHAR U+00E9
ENCODING 233
SWIDTH 1000 0
DWIDTH 50 0
BBX 83 100 -16 -20
BITMAP
0000000000000000000000
0000000000000000000000
0000000000000000000000
0000000000000000000000
0000000000000000000000
0000000000000000000000
0000000000000000000000
0000000000000000000000
0000000000000000000000
0000000000000000000000
00000000000ffff0000000
00000000000ffff0000000
00000000001fffe0000000
00000000001fffe0000000
00000000001fffe0000000
00000000003fffc0000000
00000000003fffc0000000
00000000003fffc0000000
00000000007fff80000000
00000000007fff80000000
00000001fffe0000000000
00000003fffc0000000000
00000003fffc0000000000
00000003fffc0000000000
00000007fff80000000000
00000007fff80000000000
00000007fff80000000000
0000000ffff00000000000
0000000ffff00000000000
0000000ffff00000000000
0000001fffffffc0000000
0000001fffffffc0000000
0000001fffffffc0000000
0000003fffffff80000000
0000003fffffff80000000
0000003fffffff80000000
0000007fffffff00000000
0000007fffffff00000000
0000007fffffff00000000
000000fffffffe00000000
00001ffc00007ff0000000
00001ffc00007ff0000000
00003ff80000ffe0000000
00003ff80000ffe0000000
00003ff80000ffe0000000
00007ff00001ffc0000000
00007ff00001ffc0000000
00007ff00001ffc0000000
0000ffe00003ff80000000
0000ffe00003ff80000000
0000ffffffffff80000000
0001ffffffffff00000000
0001ffffffffff00000000
0001ffffffffff00000000
0003fffffffffe00000000
0003fffffffffe00000000
0003fffffffffe00000000
0007fffffffffc00000000
0007fffffffffc00000000
0007fffffffffc00000000
000ffe0000000000000000
000ffe0000000000000000
000ffe0000000000000000
001ffc0000000000000000
001ffc0000000000000000
001ffc0000000000000000
003ff80000000000000000
003ff80000000000000000
003ff80000000000000000
007ff00000000000000000
0003fffffff80000000000
0003fffffff80000000000
0007fffffff00000000000
0007fffffff00000000000
0007fffffff00000000000
000fffffffe00000000000
000fffffffe00000000000
000fffffffe00000000000
001fffffffc00000000000
001fffffffc00000000000
0000000000000000000000
0000000000000000000000
0000000000000000000000
0000000000000000000000
0000000000000000000000
0000000000000000000000
0000000000000000000000
0000000000000000000000
0000000000000000000000
0000000000000000000000
0000000000000000000000
0000000000000000000000
0000000000000000000000
0000000000000000000000
0000000000000000000000
0000000000000000000000
0000000000000000000000
0000000000000000000000
0000000000000000000000
0000000000000000000000
ENDCHAR
STARTCHAR U+00E8
ENCODING 232
SWIDTH 1000 0
DWIDTH 50 0
BBX 83 100 -16 -20
BITMAP
0000000000000000000000
0000000000000000000000
0000000000000000000000
0000000000000000000000
0000000000000000000000
0000000000000000000000
0000000000000000000000
0000000000000000000000
0000000000000000000000
0000000000000000000000
0000000001fffe00000000
0000000001fffe00000000
0000000003fffc00000000
0000000003fffc00000000
0000000003fffc00000000
0000000007fff800000000
0000000007fff800000000
0000000007fff800000000
000000000ffff000000000
000000000ffff000000000
000000000003fffc000000
000000000007fff8000000
000000000007fff8000000
000000000007fff8000000
00000000000ffff0000000
00000000000ffff0000000
00000000000ffff0000000
00000000001fffe0000000
00000000001fffe0000000
00000000001fffe0000000
0000001fffffffc0000000
0000001fffffffc0000000
0000001fffffffc0000000
0000003fffffff80000000
0000003fffffff80000000
0000003fffffff80000000
0000007fffffff00000000
0000007fffffff00000000
0000007fffffff00000000
000000fffffffe00000000
00001ffc00007ff0000000
00001ffc00007ff0000000
00003ff80000ffe0000000
00003ff80000ffe0000000
00003ff80000ffe0000000
00007ff00001ffc0000000
00007ff00001ffc0000000
00007ff00001ffc0000000
0000ffe00003ff80000000
0000ffe00003ff80000000
0000ffffffffff80000000
0001ffffffffff00000000
0001ffffffffff00000000
0001ffffffffff00000000
0003fffffffffe00000000
0003fffffffffe00000000
0003fffffffffe00000000
0007fffffffffc00000000
0007fffffffffc00000000
0007fffffffffc00000000
000ffe0000000000000000
000ffe0000000000000000
000ffe0000000000000000
001ffc0000000000000000
001ffc0000000000000000
001ffc0000000000000000
003ff80000000000000000
003ff80000000000000000
003ff80000000000000000
007ff00000000000000000
0003fffffff80000000000
0003fffffff80000000000
0007fffffff00000000000
0007fffffff00000000000
0007fffffff00000000000
000fffffffe00000000000
000fffffffe00000000000
000fffffffe00000000000
001fffffffc00000000000
001fffffffc00000000000
0000000000000000000000
0000000000000000000000
0000000000000000000000
0000000000000000000000
0000000000000000000000
0000000000000000000000
0000000000000000000000
0000000000000000000000
0000000000000000000000
0000000000000000000000
0000000000000000000000
0000000000000000000000
0000000000000000000000
0000000000000000000000
0000000000000000000000
0000000000000000000000
0000000000000000000000
0000000000000000000000
0000000000000000000000
0000000000000000000000
ENDCHAR
STARTCHAR U+00E7
ENCODING 231
SWIDTH 1000 0
DWIDTH 50 0
BBX 83 100 -16 -20
BITMAP
0000000000000000000000
0000000000000000000000
0000000000000000000000
0000000000000000000000
0000000000000000000000
0000000000000000000000
0000000000000000000000
0000000000000000000000
0000000000000000000000
0000000000000000000000
0000000000000000000000
0000000000000000000000
0000000000000000000000
0000000000000000000000
0000000000000000000000
0000000000000000000000
0000000000000000000000
0000000000000000000000
0000000000000000000000
0000000000000000000000
0000000000000000000000
0000000000000000000000
0000000000000000000000
0000000000000000000000
0000000000000000000000
0000000000000000000000
0000000000000000000000
0000000000000000000000
0000000000000000000000
0000000000000000000000
0000001fffffffc0000000
0000001fffffffc0000000
0000001fffffffc0000000
0000003fffffff80000000
0000003fffffff80000000
0000003fffffff80000000
0000007fffffff00000000
0000007fffffff00000000
0000007fffffff00000000
000000fffffffe00000000
00001ffc00007ff0000000
00001ffc00007ff0000000
00003ff80000ffe0000000
00003ff80000ffe0000000
00003ff80000ffe0000000
00007ff00001ffc0000000
00007ff00001ffc0000000
00007ff00001ffc0000000
0000ffe00003ff80000000
0000ffe00003ff80000000
0000ffe000000000000000
0001ffc000000000000000
0001ffc000000000000000
0001ffc000000000000000
0003ff8000000000000000
0003ff8000000000000000
0003ff8000000000000000
0007ff0000000000000000
0007ff0000000000000000
0007ff0000000000000000
000ffe00003ff800000000
000ffe00003ff800000000
000ffe00003ff800000000
001ffc00007ff000000000
001ffc00007ff000000000
001ffc00007ff000000000
003ff80000ffe000000000
003ff80000ffe000000000
003ff80000ffe000000000
007ff00001ffc000000000
0003fffffff80000000000
0003fffffff80000000000
0007fffffff00000000000
0007fffffff00000000000
0007fffffff00000000000
000fffffffe00000000000
000fffffffe00000000000
000fffffffe00000000000
001fffffffc00000000000
001fffffffc00000000000
0000003ff8000000000000
0000007ff0000000000000
0000007ff0000000000000
0000007ff0000000000000
000000ffe0000000000000
000000ffe0000000000000
000000ffe0000000000000
000001ffc0000000000000
000001ffc0000000000000
000001ffc0000000000000
000fffff80000000000000
000fffff80000000000000
000fffff80000000000000
001fffff00000000000000
001fffff00000000000000
001fffff00000000000000
003ffffe00000000000000
003ffffe00000000000000
003ffffe00000000000000
007ffffc00000000000000
ENDCHAR
STARTCHAR U+00E6
ENCODING 230
SWIDTH 1000 0
DWIDTH 50 0
BBX 83 100 -16 -20
BITMAP
0000000000000000000000
0000000000000000000000
0000000000000000000000
0000000000000000000000
0000000000000000000000
0000000000000000000000
0000000000000000000000
0000000000000000000000
0000000000000000000000
0000000000000000000000
0000000000000000000000
0000000000000000000000
0000000000000000000000
0000000000000000000000
0000000000000000000000
0000000000000000000000
0000000000000000000000
0000000000000000000000
0000000000000000000000
0000000000000000000000
0000000000000000000000
0000000000000000000000
0000000000000000000000
0000000000000000000000
0000000000000000000000
0000000000000000000000
0000000000000000000000
0000000000000000000000
0000000000000000000000
0000000000000000000000
0000001fffffffc0000000
0000001fffffffc0000000
0000001fffffffc0000000
0000003fffffff80000000
0000003fffffff80000000
0000003fffffff80000000
0000007fffffff00000000
0000007fffffff00000000
0000007fffffff00000000
000000fffffffe00000000
000000003ff87ff0000000
000000003ff87ff0000000
000000007ff0ffe0000000
000000007ff0ffe0000000
000000007ff0ffe0000000
00000000ffe1ffc0000000
00000000ffe1ffc0000000
00000000ffe1ffc0000000
00000001ffc3ff80000000
00000001ffc3ff80000000
000007ffffffff80000000
00000fffffffff00000000
00000fffffffff00000000
00000fffffffff00000000
00001ffffffffe00000000
00001ffffffffe00000000
00001ffffffffe00000000
00003ffffffffc00000000
00003ffffffffc00000000
00003ffffffffc00000000
000ffe1ffc000000000000
000ffe1ffc000000000000
000ffe1ffc000000000000
001ffc3ff8000000000000
001ffc3ff8000000000000
001ffc3ff8000000000000
003ff87ff0000000000000
003ff87ff0000000000000
003ff87ff0000000000000
007ff0ffe0000000000000
0003ffffffffc000000000
0003ffffffffc000000000
0007ffffffff8000000000
0007ffffffff8000000000
0007ffffffff8000000000
000fffffffff0000000000
000fffffffff0000000000
000fffffffff0000000000
001ffffffffe0000000000
001ffffffffe0000000000
0000000000000000000000
0000000000000000000000
0000000000000000000000
0000000000000000000000
0000000000000000000000
0000000000000000000000
0000000000000000000000
0000000000000000000000
0000000000000000000000
0000000000000000000000
0000000000000000000000
0000000000000000000000
0000000000000000000000
0000000000000000000000
0000000000000000000000
0000000000000000000000
0000000000000000000000
0000000000000000000000
0000000000000000000000
0000000000000000000000
ENDCHAR
STARTCHAR U+00E5
ENCODING 229
SWIDTH 1000 0
DWIDTH 50 0
BBX 83 100 -16 -20
BITMAP
00000000003ffffe000000
00000000003ffffe000000
00000000003ffffe000000
00000000007ffffc000000
00000000007ffffc000000
00000000007ffffc000000
0000000000fffff8000000
0000000000fffff8000000
0000000000fffff8000000
0000000001fffff0000000
000000003ff803ff800000
000000003ff803ff800000
000000007ff007ff000000
000000007ff007ff000000
000000007ff007ff000000
00000000ffe00ffe000000
00000000ffe00ffe000000
00000000ffe00ffe000000
00000001ffc01ffc000000
00000001ffc01ffc000000
000000000fffff80000000
000000001fffff00000000
000000001fffff00000000
000000001fffff00000000
000000003ffffe00000000
000000003ffffe00000000
000000003ffffe00000000
000000007ffffc00000000
000000007ffffc00000000
000000007ffffc00000000
0000001fffffffc0000000
0000001fffffffc0000000
0000001fffffffc0000000
0000003fffffff80000000
0000003fffffff80000000
0000003fffffff80000000
0000007fffffff00000000
0000007fffffff00000000
0000007fffffff00000000
000000fffffffe00000000
0000000000007ff0000000
0000000000007ff0000000
000000000000ffe0000000
000000000000ffe0000000
000000000000ffe0000000
000000000001ffc0000000
000000000001ffc0000000
000000000001ffc0000000
000000000003ff80000000
000000000003ff80000000
000007ffffffff80000000
00000fffffffff00000000
00000fffffffff00000000
00000fffffffff00000000
00001ffffffffe00000000
00001ffffffffe00000000
00001ffffffffe00000000
00003ffffffffc00000000
00003ffffffffc00000000
00003ffffffffc00000000
000ffe0007fff800000000
000ffe0007fff800000000
000ffe0007fff800000000
001ffc000ffff000000000
001ffc000ffff000000000
001ffc000ffff000000000
003ff8001fffe000000000
003ff8001fffe000000000
003ff8001fffe000000000
007ff0003fffc000000000
0003ffffffffc000000000
0003ffffffffc000000000
0007ffffffff8000000000
0007ffffffff8000000000
0007ffffffff8000000000
000fffffffff0000000000
000fffffffff0000000000
000fffffffff0000000000
001ffffffffe0000000000
001ffffffffe0000000000
0000000000000000000000
0000000000000000000000
0000000000000000000000
0000000000000000000000
0000000000000000000000
0000000000000000000000
0000000000000000000000
0000000000000000000000
0000000000000000000000
0000000000000000000000
0000000000000000000000
0000000000000000000000
0000000000000000000000
0000000000000000000000
0000000000000000000000
0000000000000000000000
0000000000000000000000
0000000000000000000000
0000000000000000000000
0000000000000000000000
ENDCHAR
STARTCHAR U+00E4
ENCODING 228
SWIDTH 1000 0
DWIDTH 50 0
BBX 83 100 -16 -20
BITMAP
0000000000000000000000
0000000000000000000000
0000000000000000000000
0000000000000000000000
0000000000000000000000
0000000000000000000000
0000000000000000000000
0000000000000000000000
0000000000000000000000
0000000000000000000000
000000003ff803ff800000
000000003ff803ff800000
000000007ff007ff000000
000000007ff007ff000000
000000007ff007ff000000
00000000ffe00ffe000000
00000000ffe00ffe000000
00000000ffe00ffe000000
00000001ffc01ffc000000
00000001ffc01ffc000000
0000000000000000000000
0000000000000000000000
0000000000000000000000
0000000000000000000000
0000000000000000000000
0000000000000000000000
0000000000000000000000
0000000000000000000000
0000000000000000000000
0000000000000000000000
0000001fffffffc0000000
0000001fffffffc0000000
0000001fffffffc0000000
0000003fffffff80000000
0000003fffffff80000000
0000003fffffff80000000
0000007fffffff00000000
0000007fffffff00000000
0000007fffffff00000000
000000fffffffe00000000
0000000000007ff0000000
0000000000007ff0000000
000000000000ffe0000000
000000000000ffe0000000
000000000000ffe0000000
000000000001ffc0000000
000000000001ffc0000000
000000000001ffc0000000
000000000003ff80000000
000000000003ff80000000
000007ffffffff80000000
00000fffffffff00000000
00000fffffffff00000000
00000fffffffff00000000
00001ffffffffe00000000
00001ffffffffe00000000
00001ffffffffe00000000
00003ffffffffc00000000
00003ffffffffc00000000
00003ffffffffc00000000
000ffe0007fff800000000
000ffe0007fff800000000
000ffe0007fff800000000
001ffc000ffff000000000
001ffc000ffff000000000
001ffc000ffff000000000
003ff8001fffe000000000
003ff8001fffe000000000
003ff8001fffe000000000
007ff0003fffc000000000
0003ffffffffc000000000
0003ffffffffc000000000
0007ffffffff8000000000
0007ffffffff8000000000
0007ffffffff8000000000
000fffffffff0000000000
000fffffffff0000000000
000fffffffff0000000000
001ffffffffe0000000000
001ffffffffe0000000000
0000000000000000000000
0000000000000000000000
0000000000000000000000
0000000000000000000000
0000000000000000000000
0000000000000000000000
0000000000000000000000
0000000000000000000000
0000000000000000000000
0000000000000000000000
0000000000000000000000
0000000000000000000000
0000000000000000000000
0000000000000000000000
0000000000000000000000
0000000000000000000000
0000000000000000000000
0000000000000000000000
0000000000000000000000
0000000000000000000000
ENDCHAR
STARTCHAR U+00E3
ENCODING 227
SWIDTH 1000 0
DWIDTH 50 0
BBX 83 100 -16 -20
BITMAP
00000000003fffc3ff8000
00000000003fffc3ff8000
00000000003fffc3ff8000
00000000007fff87ff0000
00000000007fff87ff0000
00000000007fff87ff0000
0000000000ffff0ffe0000
0000000000ffff0ffe0000
0000000000ffff0ffe0000
0000000001fffe1ffc0000
000000003ff87fff800000
000000003ff87fff800000
000000007ff0ffff000000
000000007ff0ffff000000
000000007ff0ffff000000
00000000ffe1fffe000000
00000000ffe1fffe000000
00000000ffe1fffe000000
00000001ffc3fffc000000
00000001ffc3fffc000000
0000000000000000000000
0000000000000000000000
0000000000000000000000
0000000000000000000000
0000000000000000000000
0000000000000000000000
0000000000000000000000
0000000000000000000000
0000000000000000000000
0000000000000000000000
0000001fffffffc0000000
0000001fffffffc0000000
0000001fffffffc0000000
0000003fffffff80000000
0000003fffffff80000000
0000003fffffff80000000
0000007fffffff00000000
0000007fffffff00000000
0000007fffffff00000000
000000fffffffe00000000
0000000000007ff0000000
0000000000007ff0000000
000000000000ffe0000000
000000000000ffe0000000
000000000000ffe0000000
000000000001ffc0000000
000000000001ffc0000000
000000000001ffc0000000
000000000003ff80000000
000000000003ff80000000
000007ffffffff80000000
00000fffffffff00000000
00000fffffffff00000000
00000fffffffff00000000
00001ffffffffe00000000
00001ffffffffe00000000
00001ffffffffe00000000
00003ffffffffc00000000
00003ffffffffc00000000
00003ffffffffc00000000
000ffe0007fff800000000
000ffe0007fff800000000
000ffe0007fff800000000
001ffc000ffff000000000
001ffc000ffff000000000
001ffc000ffff000000000
003ff8001fffe000000000
003ff8001fffe000000000
003ff8001fffe000000000
007ff0003fffc000000000
0003ffffffffc000000000
0003ffffffffc000000000
0007ffffffff8000000000
0007ffffffff8000000000
0007ffffffff8000000000
000fffffffff0000000000
000fffffffff0000000000
000fffffffff0000000000
001ffffffffe0000000000
001ffffffffe0000000000
0000000000000000000000
0000000000000000000000
0000000000000000000000
0000000000000000000000
0000000000000000000000
0000000000000000000000
0000000000000000000000
0000000000000000000000
0000000000000000000000
0000000000000000000000
0000000000000000000000
0000000000000000000000
0000000000000000000000
0000000000000000000000
0000000000000000000000
0000000000000000000000
0000000000000000000000
0000000000000000000000
0000000000000000000000
0000000000000000000000
ENDCHAR
STARTCHAR U+00E2
ENCODING 226
SWIDTH 1000 0
DWIDTH 50 0
BBX 83 100 -16 -20
BITMAP
00000000003ffffe000000
00000000003ffffe000000
00000000003ffffe000000
00000000007ffffc000000
00000000007ffffc000000
00000000007ffffc000000
0000000000fffff8000000
0000000000fffff8000000
0000000000fffff8000000
0000000001fffff0000000
000000003ff803ff800000
000000003ff803ff800000
000000007ff007ff000000
000000007ff007ff000000
000000007ff007ff000000
00000000ffe00ffe000000
00000000ffe00ffe000000
00000000ffe00ffe000000
00000001ffc01ffc000000
00000001ffc01ffc000000
0000000000000000000000
0000000000000000000000
0000000000000000000000
0000000000000000000000
0000000000000000000000
0000000000000000000000
0000000000000000000000
0000000000000000000000
0000000000000000000000
0000000000000000000000
0000001fffffffc0000000
0000001fffffffc0000000
0000001fffffffc0000000
0000003fffffff80000000
0000003fffffff80000000
0000003fffffff80000000
0000007fffffff00000000
0000007fffffff00000000
0000007fffffff00000000
000000fffffffe00000000
0000000000007ff0000000
0000000000007ff0000000
000000000000ffe0000000
000000000000ffe0000000
000000000000ffe0000000
000000000001ffc0000000
000000000001ffc0000000
000000000001ffc0000000
000000000003ff80000000
000000000003ff80000000
000007ffffffff80000000
00000fffffffff00000000
00000fffffffff00000000
00000fffffffff00000000
00001ffffffffe00000000
00001ffffffffe00000000
00001ffffffffe00000000
00003ffffffffc00000000
00003ffffffffc00000000
00003ffffffffc00000000
000ffe0007fff800000000
000ffe0007fff800000000
000ffe0007fff800000000
001ffc000ffff000000000
001ffc000ffff000000000
001ffc000ffff000000000
003ff8001fffe000000000
003ff8001fffe000000000
003ff8001fffe000000000
007ff0003fffc000000000
0003ffffffffc000000000
0003ffffffffc000000000
0007ffffffff8000000000
0007ffffffff8000000000
0007ffffffff8000000000
000fffffffff0000000000
000fffffffff0000000000
000fffffffff0000000000
001ffffffffe0000000000
001ffffffffe0000000000
0000000000000000000000
0000000000000000000000
0000000000000000000000
0000000000000000000000
0000000000000000000000
0000000000000000000000
0000000000000000000000
0000000000000000000000
0000000000000000000000
0000000000000000000000
0000000000000000000000
0000000000000000000000
0000000000000000000000
0000000000000000000000
0000000000000000000000
0000000000000000000000
0000000000000000000000
0000000000000000000000
0000000000000000000000
0000000000000000000000
ENDCHAR
STARTCHAR U+00E1
ENCODING 225
SWIDTH 1000 0
DWIDTH 50 0
BBX 83 100 -16 -20
BITMAP
0000000000000000000000
0000000000000000000000
0000000000000000000000
0000000000000000000000
0000000000000000000000
0000000000000000000000
0000000000000000000000
0000000000000000000000
0000000000000000000000
0000000000000000000000
00000000000ffff0000000
00000000000ffff0000000
00000000001fffe0000000
00000000001fffe0000000
00000000001fffe0000000
00000000003fffc0000000
00000000003fffc0000000
00000000003fffc0000000
00000000007fff80000000
00000000007fff80000000
00000001fffe0000000000
00000003fffc0000000000
00000003fffc0000000000
00000003fffc0000000000
00000007fff80000000000
00000007fff80000000000
00000007fff80000000000
0000000ffff00000000000
0000000ffff00000000000
0000000ffff00000000000
0000001fffffffc0000000
0000001fffffffc0000000
0000001fffffffc0000000
0000003fffffff80000000
0000003fffffff80000000
0000003fffffff80000000
0000007fffffff00000000
0000007fffffff00000000
0000007fffffff00000000
000000fffffffe00000000
0000000000007ff0000000
0000000000007ff0000000
000000000000ffe0000000
000000000000ffe0000000
000000000000ffe0000000
000000000001ffc0000000
000000000001ffc0000000
000000000001ffc0000000
000000000003ff80000000
000000000003ff80000000
000007ffffffff80000000
00000fffffffff00000000
00000fffffffff00000000
00000fffffffff00000000
00001ffffffffe00000000
00001ffffffffe00000000
00001ffffffffe00000000
00003ffffffffc00000000
00003ffffffffc00000000
00003ffffffffc00000000
000ffe0007fff800000000
000ffe0007fff800000000
000ffe0007fff800000000
001ffc000ffff000000000
001ffc000ffff000000000
001ffc000ffff000000000
003ff8001fffe000000000
003ff8001fffe000000000
003ff8001fffe000000000
007ff0003fffc000000000
0003ffffffffc000000000
0003ffffffffc000000000
0007ffffffff8000000000
0007ffffffff8000000000
0007ffffffff8000000000
000fffffffff0000000000
000fffffffff0000000000
000fffffffff0000000000
001ffffffffe0000000000
001ffffffffe0000000000
0000000000000000000000
0000000000000000000000
0000000000000000000000
0000000000000000000000
0000000000000000000000
0000000000000000000000
0000000000000000000000
0000000000000000000000
0000000000000000000000
0000000000000000000000
0000000000000000000000
0000000000000000000000
0000000000000000000000
0000000000000000000000
0000000000000000000000
0000000000000000000000
0000000000000000000000
0000000000000000000000
0000000000000000000000
0000000000000000000000
ENDCHAR
STARTCHAR U+00E0
ENCODING 224
SWIDTH 1000 0
DWIDTH 50 0
BBX 83 100 -16 -20
BITMAP
0000000000000000000000
0000000000000000000000
0000000000000000000000
0000000000000000000000
0000000000000000000000
0000000000000000000000
0000000000000000000000
0000000000000000000000
0000000000000000000000
0000000000000000000000
0000000001fffe00000000
0000000001fffe00000000
0000000003fffc00000000
0000000003fffc00000000
0000000003fffc00000000
0000000007fff800000000
0000000007fff800000000
0000000007fff800000000
000000000ffff000000000
000000000ffff000000000
000000000003fffc000000
000000000007fff8000000
000000000007fff8000000
000000000007fff8000000
00000000000ffff0000000
00000000000ffff0000000
00000000000ffff0000000
00000000001fffe0000000
00000000001fffe0000000
00000000001fffe0000000
0000001fffffffc0000000
0000001fffffffc0000000
0000001fffffffc0000000
0000003fffffff80000000
0000003fffffff80000000
0000003fffffff80000000
0000007fffffff00000000
0000007fffffff00000000
0000007fffffff00000000
000000fffffffe00000000
0000000000007ff0000000
0000000000007ff0000000
000000000000ffe0000000
000000000000ffe0000000
000000000000ffe0000000
000000000001ffc0000000
000000000001ffc0000000
000000000001ffc0000000
000000000003ff80000000
000000000003ff80000000
000007ffffffff80000000
00000fffffffff00000000
00000fffffffff00000000
00000fffffffff00000000
00001ffffffffe00000000
00001ffffffffe00000000
00001ffffffffe00000000
00003ffffffffc00000000
00003ffffffffc00000000
00003ffffffffc00000000
000ffe0007fff800000000
000ffe0007fff800000000
000ffe0007fff800000000
001ffc000ffff000000000
001ffc000ffff000000000
001ffc000ffff000000000
003ff8001fffe000000000
003ff8001fffe000000000
003ff8001fffe000000000
007ff0003fffc000000000
0003ffffffffc000000000
0003ffffffffc000000000
0007ffffffff8000000000
0007ffffffff8000000000
0007ffffffff8000000000
000fffffffff0000000000
000fffffffff0000000000
000fffffffff0000000000
001ffffffffe0000000000
001ffffffffe0000000000
0000000000000000000000
0000000000000000000000
0000000000000000000000
0000000000000000000000
0000000000000000000000
0000000000000000000000
0000000000000000000000
0000000000000000000000
0000000000000000000000
0000000000000000000000
0000000000000000000000
0000000000000000000000
0000000000000000000000
0000000000000000000000
0000000000000000000000
0000000000000000000000
0000000000000000000000
0000000000000000000000
0000000000000000000000
0000000000000000000000
ENDCHAR
STARTCHAR U+00DF
ENCODING 223
SWIDTH 1000 0
DWIDTH 50 0
BBX 83 100 -16 -20
BITMAP
0000000000000000000000
0000000000000000000000
0000000000000000000000
0000000000000000000000
0000000000000000000000
0000000000000000000000
0000000000000000000000
0000000000000000000000
0000000000000000000000
0000000000000000000000
0000000001fffff0000000
0000000001fffff0000000
0000000003ffffe0000000
0000000003ffffe0000000
0000000003ffffe0000000
0000000007ffffc0000000
0000000007ffffc0000000
0000000007ffffc0000000
000000000fffff80000000
000000000fffff80000000
00000001ffc01ffc000000
00000003ff803ff8000000
00000003ff803ff8000000
00000003ff803ff8000000
00000007ff007ff0000000
00000007ff007ff0000000
00000007ff007ff0000000
0000000ffe00ffe0000000
0000000ffe00ffe0000000
0000000ffe00ffe0000000
000003ff8001ffc0000000
000003ff8001ffc0000000
000003ff8001ffc0000000
000007ff0003ff80000000
000007ff0003ff80000000
000007ff0003ff80000000
00000ffe0007ff00000000
00000ffe0007ff00000000
00000ffe0007ff00000000
00001ffc000ffe00000000
00001fffffffc000000000
00001fffffffc000000000
00003fffffff8000000000
00003fffffff8000000000
00003fffffff8000000000
00007fffffff0000000000
00007fffffff0000000000
00007fffffff0000000000
0000fffffffe0000000000
0000fffffffe0000000000
0000ffe0007ff000000000
0001ffc000ffe000000000
0001ffc000ffe000000000
0001ffc000ffe000000000
0003ff8001ffc000000000
0003ff8001ffc000000000
0003ff8001ffc000000000
0007ff0003ff8000000000
0007ff0003ff8000000000
0007ff0003ff8000000000
000fffff803ff800000000
000fffff803ff800000000
000fffff803ff800000000
001fffff007ff000000000
001fffff007ff000000000
001fffff007ff000000000
003ffffe00ffe000000000
003ffffe00ffe000000000
003ffffe00ffe000000000
007ffffc01ffc000000000
007ff0fffff80000000000
007ff0fffff80000000000
00ffe1fffff00000000000
00ffe1fffff00000000000
00ffe1fffff00000000000
01ffc3ffffe00000000000
01ffc3ffffe00000000000
01ffc3ffffe00000000000
03ff87ffffc00000000000
03ff87ffffc00000000000
03ff800000000000000000
07ff000000000000000000
07ff000000000000000000
07ff000000000000000000
0ffe000000000000000000
0ffe000000000000000000
0ffe000000000000000000
1ffc000000000000000000
1ffc000000000000000000
1ffc000000000000000000
0000000000000000000000
0000000000000000000000
0000000000000000000000
0000000000000000000000
0000000000000000000000
0000000000000000000000
0000000000000000000000
0000000000000000000000
0000000000000000000000
0000000000000000000000
ENDCHAR
STARTCHAR U+00DE
ENCODING 222
SWIDTH 1000 0
DWIDTH 50 0
BBX 83 100 -16 -20
BITMAP
0000000000000000000000
0000000000000000000000
0000000000000000000000
0000000000000000000000
0000000000000000000000
0000000000000000000000
0000000000000000000000
0000000000000000000000
0000000000000000000000
0000000000000000000000
00000007fff80000000000
00000007fff80000000000
0000000ffff00000000000
0000000ffff00000000000
0000000ffff00000000000
0000001fffe00000000000
0000001fffe00000000000
0000001fffe00000000000
0000003fffc00000000000
0000003fffc00000000000
00000001fffffffc000000
00000003fffffff8000000
00000003fffffff8000000
00000003fffffff8000000
00000007fffffff0000000
00000007fffffff0000000
00000007fffffff0000000
0000000fffffffe0000000
0000000fffffffe0000000
0000000fffffffe0000000
0000001ffc000ffe000000
0000001ffc000ffe000000
0000001ffc000ffe000000
0000003ff8001ffc000000
0000003ff8001ffc000000
0000003ff8001ffc000000
0000007ff0003ff8000000
0000007ff0003ff8000000
0000007ff0003ff8000000
000000ffe0007ff0000000
000000ffe0007ff0000000
000000ffe0007ff0000000
000001ffc000ffe0000000
000001ffc000ffe0000000
000001ffc000ffe0000000
000003ff8001ffc0000000
000003ff8001ffc0000000
000003ff8001ffc0000000
000007ff0003ff80000000
000007ff0003ff80000000
000007ff0003ff80000000
00000ffe0007ff00000000
00000ffe0007ff00000000
00000ffe0007ff00000000
00001ffc000ffe00000000
00001ffc000ffe00000000
00001ffc000ffe00000000
00003ff8001ffc00000000
00003ff8001ffc00000000
00003ff8001ffc00000000
00007fffffff0000000000
00007fffffff0000000000
00007fffffff0000000000
0000fffffffe0000000000
0000fffffffe0000000000
0000fffffffe0000000000
0001fffffffc0000000000
0001fffffffc0000000000
0001fffffffc0000000000
0003fffffff80000000000
007fff8000000000000000
007fff8000000000000000
00ffff0000000000000000
00ffff0000000000000000
00ffff0000000000000000
01fffe0000000000000000
01fffe0000000000000000
01fffe0000000000000000
03fffc0000000000000000
03fffc0000000000000000
0000000000000000000000
0000000000000000000000
0000000000000000000000
0000000000000000000000
0000000000000000000000
0000000000000000000000
0000000000000000000000
0000000000000000000000
0000000000000000000000
0000000000000000000000
0000000000000000000000
0000000000000000000000
0000000000000000000000
0000000000000000000000
0000000000000000000000
0000000000000000000000
0000000000000000000000
0000000000000000000000
0000000000000000000000
0000000000000000000000
ENDCHAR
STARTCHAR U+0178
ENCODING 376
SWIDTH 1000 0
DWIDTH 50 0
BBX 83 100 -16 -20
BITMAP
0000000007ff007ff00000
0000000007ff007ff00000
0000000007ff007ff00000
000000000ffe00ffe00000
000000000ffe00ffe00000
000000000ffe00ffe00000
000000001ffc01ffc00000
000000001ffc01ffc00000
000000001ffc01ffc00000
000000003ff803ff800000
0000000000000000000000
0000000000000000000000
0000000000000000000000
0000000000000000000000
0000000000000000000000
0000000000000000000000
0000000000000000000000
0000000000000000000000
0000000000000000000000
0000000000000000000000
0000003ff80000ffe00000
0000007ff00001ffc00000
0000007ff00001ffc00000
0000007ff00001ffc00000
000000ffe00003ff800000
000000ffe00003ff800000
000000ffe00003ff800000
000001ffc00007ff000000
000001ffc00007ff000000
000001ffc00007ff000000
0000001ffc01ffc0000000
0000001ffc01ffc0000000
0000001ffc01ffc0000000
0000003ff803ff80000000
0000003ff803ff80000000
0000003ff803ff80000000
0000007ff007ff00000000
0000007ff007ff00000000
0000007ff007ff00000000
000000ffe00ffe00000000
00000007ffffc000000000
00000007ffffc000000000
0000000fffff8000000000
0000000fffff8000000000
0000000fffff8000000000
0000001fffff0000000000
0000001fffff0000000000
0000001fffff0000000000
0000003ffffe0000000000
0000003ffffe0000000000
00000001ffc00000000000
00000003ff800000000000
00000003ff800000000000
00000003ff800000000000
00000007ff000000000000
00000007ff000000000000
00000007ff000000000000
0000000ffe000000000000
0000000ffe000000000000
0000000ffe000000000000
0000001ffc000000000000
0000001ffc000000000000
0000001ffc000000000000
0000003ff8000000000000
0000003ff8000000000000
0000003ff8000000000000
0000007ff0000000000000
0000007ff0000000000000
0000007ff0000000000000
000000ffe0000000000000
000000ffe0000000000000
000000ffe0000000000000
000001ffc0000000000000
000001ffc0000000000000
000001ffc0000000000000
000003ff80000000000000
000003ff80000000000000
000003ff80000000000000
000007ff00000000000000
000007ff00000000000000
0000000000000000000000
0000000000000000000000
0000000000000000000000
0000000000000000000000
0000000000000000000000
0000000000000000000000
0000000000000000000000
0000000000000000000000
0000000000000000000000
0000000000000000000000
0000000000000000000000
0000000000000000000000
0000000000000000000000
0000000000000000000000
0000000000000000000000
0000000000000000000000
0000000000000000000000
0000000000000000000000
0000000000000000000000
0000000000000000000000
ENDCHAR
STARTCHAR U+00DC
ENCODING 220
SWIDTH 1000 0
DWIDTH 50 0
BBX 83 100 -16 -20
BITMAP
0000000007ff007ff00000
0000000007ff007ff00000
0000000007ff007ff00000
000000000ffe00ffe00000
000000000ffe00ffe00000
000000000ffe00ffe00000
000000001ffc01ffc00000
000000001ffc01ffc00000
000000001ffc01ffc00000
000000003ff803ff800000
0000000000000000000000
0000000000000000000000
0000000000000000000000
0000000000000000000000
0000000000000000000000
0000000000000000000000
0000000000000000000000
0000000000000000000000
0000000000000000000000
0000000000000000000000
0000003ff80000ffe00000
0000007ff00001ffc00000
0000007ff00001ffc00000
0000007ff00001ffc00000
000000ffe00003ff800000
000000ffe00003ff800000
000000ffe00003ff800000
000001ffc00007ff000000
000001ffc00007ff000000
000001ffc00007ff000000
000003ff80000ffe000000
000003ff80000ffe000000
000003ff80000ffe000000
000007ff00001ffc000000
000007ff00001ffc000000
000007ff00001ffc000000
00000ffe00003ff8000000
00000ffe00003ff8000000
00000ffe00003ff8000000
00001ffc00007ff0000000
00001ffc00007ff0000000
00001ffc00007ff0000000
00003ff80000ffe0000000
00003ff80000ffe0000000
00003ff80000ffe0000000
00007ff00001ffc0000000
00007ff00001ffc0000000
00007ff00001ffc0000000
0000ffe00003ff80000000
0000ffe00003ff80000000
0000ffe00003ff80000000
0001ffc00007ff00000000
0001ffc00007ff00000000
0001ffc00007ff00000000
0003ff80000ffe00000000
0003ff80000ffe00000000
0003ff80000ffe00000000
0007ff00001ffc00000000
0007ff00001ffc00000000
0007ff00001ffc00000000
000ffe00003ff800000000
000ffe00003ff800000000
000ffe00003ff800000000
001ffc00007ff000000000
001ffc00007ff000000000
001ffc00007ff000000000
003ff80000ffe000000000
003ff80000ffe000000000
003ff80000ffe000000000
007ff00001ffc000000000
0003fffffff80000000000
0003fffffff80000000000
0007fffffff00000000000
0007fffffff00000000000
0007fffffff00000000000
000fffffffe00000000000
000fffffffe00000000000
000fffffffe00000000000
001fffffffc00000000000
001fffffffc00000000000
0000000000000000000000
0000000000000000000000
0000000000000000000000
0000000000000000000000
0000000000000000000000
0000000000000000000000
0000000000000000000000
0000000000000000000000
0000000000000000000000
0000000000000000000000
0000000000000000000000
0000000000000000000000
0000000000000000000000
0000000000000000000000
0000000000000000000000
0000000000000000000000
0000000000000000000000
0000000000000000000000
0000000000000000000000
0000000000000000000000
ENDCHAR
STARTCHAR U+00DB
ENCODING 219
SWIDTH 1000 0
DWIDTH 50 0
BBX 83 100 -16 -20
BITMAP
000000000001ffc0000000
000000000001ffc0000000
000000000001ffc0000000
000000000003ff80000000
000000000003ff80000000
000000000003ff80000000
000000000007ff00000000
000000000007ff00000000
000000000007ff00000000
00000000000ffe00000000
0000000001fffff0000000
0000000001fffff0000000
0000000003ffffe0000000
0000000003ffffe0000000
0000000003ffffe0000000
0000000007ffffc0000000
0000000007ffffc0000000
0000000007ffffc0000000
000000000fffff80000000
000000000fffff80000000
0000003ff80001bfe00000
0000007ff00001ffc00000
0000007ff00001ffc00000
0000007ff00001ffc00000
000000ffe00003ff800000
000000ffe00003ff800000
000000ffe00003ff800000
000001ffc00007ff000000
000001ffc00007ff000000
000001ffc00007ff000000
000003ff80000ffe000000
000003ff80000ffe000000
000003ff80000ffe000000
000007ff00001ffc000000
000007ff00001ffc000000
000007ff00001ffc000000
00000ffe00003ff8000000
00000ffe00003ff8000000
00000ffe00003ff8000000
00001ffc00007ff0000000
00001ffc00007ff0000000
00001ffc00007ff0000000
00003ff80000ffe0000000
00003ff80000ffe0000000
00003ff80000ffe0000000
00007ff00001ffc0000000
00007ff00001ffc0000000
00007ff00001ffc0000000
0000ffe00003ff80000000
0000ffe00003ff80000000
0000ffe00003ff80000000
0001ffc00007ff00000000
0001ffc00007ff00000000
0001ffc00007ff00000000
0003ff80000ffe00000000
0003ff80000ffe00000000
0003ff80000ffe00000000
0007ff00001ffc00000000
0007ff00001ffc00000000
0007ff00001ffc00000000
000ffe00003ff800000000
000ffe00003ff800000000
000ffe00003ff800000000
001ffc00007ff000000000
001ffc00007ff000000000
001ffc00007ff000000000
003ff80000ffe000000000
003ff80000ffe000000000
003ff80000ffe000000000
007ff00001ffc000000000
0003fffffff80000000000
0003fffffff80000000000
0007fffffff00000000000
0007fffffff00000000000
0007fffffff00000000000
000fffffffe00000000000
000fffffffe00000000000
000fffffffe00000000000
001fffffffc00000000000
001fffffffc00000000000
0000000000000000000000
0000000000000000000000
0000000000000000000000
0000000000000000000000
0000000000000000000000
0000000000000000000000
0000000000000000000000
0000000000000000000000
0000000000000000000000
0000000000000000000000
0000000000000000000000
0000000000000000000000
0000000000000000000000
0000000000000000000000
0000000000000000000000
0000000000000000000000
0000000000000000000000
0000000000000000000000
0000000000000000000000
0000000000000000000000
ENDCHAR
STARTCHAR U+00DA
ENCODING 218
SWIDTH 1000 0
DWIDTH 50 0
BBX 83 100 -16 -20
BITMAP
0000000000000ffff00000
0000000000000ffff00000
0000000000000ffff00000
0000000000001fffe00000
0000000000001fffe00000
0000000000001fffe00000
0000000000003fffc00000
0000000000003fffc00000
0000000000003fffc00000
0000000000007fff800000
0000000001fffe00000000
0000000001fffe00000000
0000000003fffc00000000
0000000003fffc00000000
0000000003fffc00000000
0000000007fff800000000
0000000007fff800000000
0000000007fff800000000
000000000ffff000000000
000000000ffff000000000
0000003ff80000ffe00000
0000007ff00001ffc00000
0000007ff00001ffc00000
0000007ff00001ffc00000
000000ffe00003ff800000
000000ffe00003ff800000
000000ffe00003ff800000
000001ffc00007ff000000
000001ffc00007ff000000
000001ffc00007ff000000
000003ff80000ffe000000
000003ff80000ffe000000
000003ff80000ffe000000
000007ff00001ffc000000
000007ff00001ffc000000
000007ff00001ffc000000
00000ffe00003ff8000000
00000ffe00003ff8000000
00000ffe00003ff8000000
00001ffc00007ff0000000
00001ffc00007ff0000000
00001ffc00007ff0000000
00003ff80000ffe0000000
00003ff80000ffe0000000
00003ff80000ffe0000000
00007ff00001ffc0000000
00007ff00001ffc0000000
00007ff00001ffc0000000
0000ffe00003ff80000000
0000ffe00003ff80000000
0000ffe00003ff80000000
0001ffc00007ff00000000
0001ffc00007ff00000000
0001ffc00007ff00000000
0003ff80000ffe00000000
0003ff80000ffe00000000
0003ff80000ffe00000000
0007ff00001ffc00000000
0007ff00001ffc00000000
0007ff00001ffc00000000
000ffe00003ff800000000
000ffe00003ff800000000
000ffe00003ff800000000
001ffc00007ff000000000
001ffc00007ff000000000
001ffc00007ff000000000
003ff80000ffe000000000
003ff80000ffe000000000
003ff80000ffe000000000
007ff00001ffc000000000
0003fffffff80000000000
0003fffffff80000000000
0007fffffff00000000000
0007fffffff00000000000
0007fffffff00000000000
000fffffffe00000000000
000fffffffe00000000000
000fffffffe00000000000
001fffffffc00000000000
001fffffffc00000000000
0000000000000000000000
0000000000000000000000
0000000000000000000000
0000000000000000000000
0000000000000000000000
0000000000000000000000
0000000000000000000000
0000000000000000000000
0000000000000000000000
0000000000000000000000
0000000000000000000000
0000000000000000000000
0000000000000000000000
0000000000000000000000
0000000000000000000000
0000000000000000000000
0000000000000000000000
0000000000000000000000
0000000000000000000000
0000000000000000000000
ENDCHAR
STARTCHAR U+00D9
ENCODING 217
SWIDTH 1000 0
DWIDTH 50 0
BBX 83 100 -16 -20
BITMAP
0000000007fff800000000
0000000007fff800000000
0000000007fff800000000
000000000ffff000000000
000000000ffff000000000
000000000ffff000000000
000000001fffe000000000
000000001fffe000000000
000000001fffe000000000
000000003fffc000000000
00000000000ffff0000000
00000000000ffff0000000
00000000001fffe0000000
00000000001fffe0000000
00000000001fffe0000000
00000000003fffc0000000
00000000003fffc0000000
00000000003fffc0000000
00000000007fff80000000
00000000007fff80000000
0000003ff80001bfe00000
0000007ff00001ffc00000
0000007ff00001ffc00000
0000007ff00001ffc00000
000000ffe00003ff800000
000000ffe00003ff800000
000000ffe00003ff800000
000001ffc00007ff000000
000001ffc00007ff000000
000001ffc00007ff000000
000003ff80000ffe000000
000003ff80000ffe000000
000003ff80000ffe000000
000007ff00001ffc000000
000007ff00001ffc000000
000007ff00001ffc000000
00000ffe00003ff8000000
00000ffe00003ff8000000
00000ffe00003ff8000000
00001ffc00007ff0000000
00001ffc00007ff0000000
00001ffc00007ff0000000
00003ff80000ffe0000000
00003ff80000ffe0000000
00003ff80000ffe0000000
00007ff00001ffc0000000
00007ff00001ffc0000000
00007ff00001ffc0000000
0000ffe00003ff80000000
0000ffe00003ff80000000
0000ffe00003ff80000000
0001ffc00007ff00000000
0001ffc00007ff00000000
0001ffc00007ff00000000
0003ff80000ffe00000000
0003ff80000ffe00000000
0003ff80000ffe00000000
0007ff00001ffc00000000
0007ff00001ffc00000000
0007ff00001ffc00000000
000ffe00003ff800000000
000ffe00003ff800000000
000ffe00003ff800000000
001ffc00007ff000000000
001ffc00007ff000000000
001ffc00007ff000000000
003ff80000ffe000000000
003ff80000ffe000000000
003ff80000ffe000000000
007ff00001ffc000000000
0003fffffff80000000000
0003fffffff80000000000
0007fffffff00000000000
0007fffffff00000000000
0007fffffff00000000000
000fffffffe00000000000
000fffffffe00000000000
000fffffffe00000000000
001fffffffc00000000000
001fffffffc00000000000
0000000000000000000000
0000000000000000000000
0000000000000000000000
0000000000000000000000
0000000000000000000000
0000000000000000000000
0000000000000000000000
0000000000000000000000
0000000000000000000000
0000000000000000000000
0000000000000000000000
0000000000000000000000
0000000000000000000000
0000000000000000000000
0000000000000000000000
0000000000000000000000
0000000000000000000000
0000000000000000000000
0000000000000000000000
0000000000000000000000
ENDCHAR
STARTCHAR U+00D8
ENCODING 216
SWIDTH 1000 0
DWIDTH 50 0
BBX 83 100 -16 -20
BITMAP
0000000000000003ff8000
0000000000000003ff8000
0000000000000003ff8000
0000000000000007ff0000
0000000000000007ff0000
0000000000000007ff0000
000000000000000ffe0000
000000000000000ffe0000
000000000000000ffe0000
000000000000001ffc0000
000000003fffffff800000
000000003fffffff800000
000000007fffffff000000
000000007fffffff000000
000000007fffffff000000
00000000fffffffe000000
00000000fffffffe000000
00000000fffffffe000000
00000001fffffffc000000
00000001fffffffc000000
0000003ff8001fffe00000
0000007ff0003fffc00000
0000007ff0003fffc00000
0000007ff0003fffc00000
000000ffe0007fff800000
000000ffe0007fff800000
000000ffe0007fff800000
000001ffc000ffff000000
000001ffc000ffff000000
000001ffc000ffff000000
000003ff803ffffe000000
000003ff803ffffe000000
000003ff803ffffe000000
000007ff007ffffc000000
000007ff007ffffc000000
000007ff007ffffc000000
00000ffe00fffff8000000
00000ffe00fffff8000000
00000ffe00fffff8000000
00001ffc01fffff0000000
00001ffc3ff87ff0000000
00001ffc3ff87ff0000000
00003ff87ff0ffe0000000
00003ff87ff0ffe0000000
00003ff87ff0ffe0000000
00007ff0ffe1ffc0000000
00007ff0ffe1ffc0000000
00007ff0ffe1ffc0000000
0000ffe1ffc3ff80000000
0000ffe1ffc3ff80000000
0000fffff803ff80000000
0001fffff007ff00000000
0001fffff007ff00000000
0001fffff007ff00000000
0003ffffe00ffe00000000
0003ffffe00ffe00000000
0003ffffe00ffe00000000
0007ffffc01ffc00000000
0007ffffc01ffc00000000
0007ffffc01ffc00000000
000ffff0003ff800000000
000ffff0003ff800000000
000ffff0003ff800000000
001fffe0007ff000000000
001fffe0007ff000000000
001fffe0007ff000000000
003fffc000ffe000000000
003fffc000ffe000000000
003fffc000ffe000000000
007fff8001ffc000000000
0003fffffff80000000000
0003fffffff80000000000
0007fffffff00000000000
0007fffffff00000000000
0007fffffff00000000000
000fffffffe00000000000
000fffffffe00000000000
000fffffffe00000000000
001fffffffc00000000000
001fffffffc00000000000
03ff800000000000000000
07ff000000000000000000
07ff000000000000000000
07ff000000000000000000
0ffe000000000000000000
0ffe000000000000000000
0ffe000000000000000000
1ffc000000000000000000
1ffc000000000000000000
1ffc000000000000000000
0000000000000000000000
0000000000000000000000
0000000000000000000000
0000000000000000000000
0000000000000000000000
0000000000000000000000
0000000000000000000000
0000000000000000000000
0000000000000000000000
0000000000000000000000
ENDCHAR
STARTCHAR U+0152
ENCODING 338
SWIDTH 1000 0
DWIDTH 50 0
BBX 83 100 -16 -20
BITMAP
0000000000000000000000
0000000000000000000000
0000000000000000000000
0000000000000000000000
0000000000000000000000
0000000000000000000000
0000000000000000000000
0000000000000000000000
0000000000000000000000
0000000000000000000000
000000003ffffffffc0000
000000003ffffffffc0000
000000007ffffffff80000
000000007ffffffff80000
000000007ffffffff80000
00000000fffffffff00000
00000000fffffffff00000
00000000fffffffff00000
00000001ffffffffe00000
00000001ffffffffe00000
0000003ff87ff000000000
0000007ff0ffe000000000
0000007ff0ffe000000000
0000007ff0ffe000000000
000000ffe1ffc000000000
000000ffe1ffc000000000
000000ffe1ffc000000000
000001ffc3ff8000000000
000001ffc3ff8000000000
000001ffc3ff8000000000
000003ff87ff0000000000
000003ff87ff0000000000
000003ff87ff0000000000
000007ff0ffe0000000000
000007ff0ffe0000000000
000007ff0ffe0000000000
00000ffe1ffc0000000000
00000ffe1ffc0000000000
00000ffe1ffc0000000000
00001ffc3ff80000000000
00001ffc3ffffe00000000
00001ffc3ffffe00000000
00003ff87ffffc00000000
00003ff87ffffc00000000
00003ff87ffffc00000000
00007ff0fffff800000000
00007ff0fffff800000000
00007ff0fffff800000000
0000ffe1fffff000000000
0000ffe1fffff000000000
0000ffe1ffc00000000000
0001ffc3ff800000000000
0001ffc3ff800000000000
0001ffc3ff800000000000
0003ff87ff000000000000
0003ff87ff000000000000
0003ff87ff000000000000
0007ff0ffe000000000000
0007ff0ffe000000000000
0007ff0ffe000000000000
000ffe1ffc000000000000
000ffe1ffc000000000000
000ffe1ffc000000000000
001ffc3ff8000000000000
001ffc3ff8000000000000
001ffc3ff8000000000000
003ff87ff0000000000000
003ff87ff0000000000000
003ff87ff0000000000000
007ff0ffe0000000000000
0003ffffffffc000000000
0003ffffffffc000000000
0007ffffffff8000000000
0007ffffffff8000000000
0007ffffffff8000000000
000fffffffff0000000000
000fffffffff0000000000
000fffffffff0000000000
001ffffffffe0000000000
001ffffffffe0000000000
0000000000000000000000
0000000000000000000000
0000000000000000000000
0000000000000000000000
0000000000000000000000
0000000000000000000000
0000000000000000000000
0000000000000000000000
0000000000000000000000
0000000000000000000000
0000000000000000000000
0000000000000000000000
0000000000000000000000
0000000000000000000000
0000000000000000000000
0000000000000000000000
0000000000000000000000
0000000000000000000000
0000000000000000000000
0000000000000000000000
ENDCHAR
STARTCHAR U+00D6
ENCODING 214
SWIDTH 1000 0
DWIDTH 50 0
BBX 83 100 -16 -20
BITMAP
0000000007ff007ff00000
0000000007ff007ff00000
0000000007ff007ff00000
000000000ffe00ffe00000
000000000ffe00ffe00000
000000000ffe00ffe00000
000000001ffc01ffc00000
000000001ffc01ffc00000
000000001ffc01ffc00000
000000003ff803ff800000
0000000000000000000000
0000000000000000000000
0000000000000000000000
0000000000000000000000
0000000000000000000000
0000000000000000000000
0000000000000000000000
0000000000000000000000
0000000000000000000000
0000000000000000000000
00000001fffffffc000000
00000003fffffff8000000
00000003fffffff8000000
00000003fffffff8000000
00000007fffffff0000000
00000007fffffff0000000
00000007fffffff0000000
0000000fffffffe0000000
0000000fffffffe0000000
0000000fffffffe0000000
000003ff80000ffe000000
000003ff80000ffe000000
000003ff80000ffe000000
000007ff00001ffc000000
000007ff00001ffc000000
000007ff00001ffc000000
00000ffe00003ff8000000
00000ffe00003ff8000000
00000ffe00003ff8000000
00001ffc00007ff0000000
00001ffc00007ff0000000
00001ffc00007ff0000000
00003ff80000ffe0000000
00003ff80000ffe0000000
00003ff80000ffe0000000
00007ff00001ffc0000000
00007ff00001ffc0000000
00007ff00001ffc0000000
0000ffe00003ff80000000
0000ffe00003ff80000000
0000ffe00003ff80000000
0001ffc00007ff00000000
0001ffc00007ff00000000
0001ffc00007ff00000000
0003ff80000ffe00000000
0003ff80000ffe00000000
0003ff80000ffe00000000
0007ff00001ffc00000000
0007ff00001ffc00000000
0007ff00001ffc00000000
000ffe00003ff800000000
000ffe00003ff800000000
000ffe00003ff800000000
001ffc00007ff000000000
001ffc00007ff000000000
001ffc00007ff000000000
003ff80000ffe000000000
003ff80000ffe000000000
003ff80000ffe000000000
007ff00001ffc000000000
0003fffffff80000000000
0003fffffff80000000000
0007fffffff00000000000
0007fffffff00000000000
0007fffffff00000000000
000fffffffe00000000000
000fffffffe00000000000
000fffffffe00000000000
001fffffffc00000000000
001fffffffc00000000000
0000000000000000000000
0000000000000000000000
0000000000000000000000
0000000000000000000000
0000000000000000000000
0000000000000000000000
0000000000000000000000
0000000000000000000000
0000000000000000000000
0000000000000000000000
0000000000000000000000
0000000000000000000000
0000000000000000000000
0000000000000000000000
0000000000000000000000
0000000000000000000000
0000000000000000000000
0000000000000000000000
0000000000000000000000
0000000000000000000000
ENDCHAR
STARTCHAR U+00D5
ENCODING 213
SWIDTH 1000 0
DWIDTH 50 0
BBX 83 100 -16 -20
BITMAP
0000000007fff87ff00000
0000000007fff87ff00000
0000000007fff87ff00000
000000000ffff0ffe00000
000000000ffff0ffe00000
000000000ffff0ffe00000
000000001fffe1ffc00000
000000001fffe1ffc00000
000000001fffe1ffc00000
000000003fffc3ff800000
00000007ff0ffff0000000
00000007ff0ffff0000000
0000000ffe1fffe0000000
0000000ffe1fffe0000000
0000000ffe1fffe0000000
0000001ffc3fffc0000000
0000001ffc3fffc0000000
0000001ffc3fffc0000000
0000003ff87fff80000000
0000003ff87fff80000000
00000001fffffffc000000
00000003fffffff8000000
00000003fffffff8000000
00000003fffffff8000000
00000007fffffff0000000
00000007fffffff0000000
00000007fffffff0000000
0000000fffffffe0000000
0000000fffffffe0000000
0000000fffffffe0000000
000003ff80000ffe000000
000003ff80000ffe000000
000003ff80000ffe000000
000007ff00001ffc000000
000007ff00001ffc000000
000007ff00001ffc000000
00000ffe00003ff8000000
00000ffe00003ff8000000
00000ffe00003ff8000000
00001ffc00007ff0000000
00001ffc00007ff0000000
00001ffc00007ff0000000
00003ff80000ffe0000000
00003ff80000ffe0000000
00003ff80000ffe0000000
00007ff00001ffc0000000
00007ff00001ffc0000000
00007ff00001ffc0000000
0000ffe00003ff80000000
0000ffe00003ff80000000
0000ffe00003ff80000000
0001ffc00007ff00000000
0001ffc00007ff00000000
0001ffc00007ff00000000
0003ff80000ffe00000000
0003ff80000ffe00000000
0003ff80000ffe00000000
0007ff00001ffc00000000
0007ff00001ffc00000000
0007ff00001ffc00000000
000ffe00003ff800000000
000ffe00003ff800000000
000ffe00003ff800000000
001ffc00007ff000000000
001ffc00007ff000000000
001ffc00007ff000000000
003ff80000ffe000000000
003ff80000ffe000000000
003ff80000ffe000000000
007ff00001ffc000000000
0003fffffff80000000000
0003fffffff80000000000
0007fffffff00000000000
0007fffffff00000000000
0007fffffff00000000000
000fffffffe00000000000
000fffffffe00000000000
000fffffffe00000000000
001fffffffc00000000000
001fffffffc00000000000
0000000000000000000000
0000000000000000000000
0000000000000000000000
0000000000000000000000
0000000000000000000000
0000000000000000000000
0000000000000000000000
0000000000000000000000
0000000000000000000000
0000000000000000000000
0000000000000000000000
0000000000000000000000
0000000000000000000000
0000000000000000000000
0000000000000000000000
0000000000000000000000
0000000000000000000000
0000000000000000000000
0000000000000000000000
0000000000000000000000
ENDCHAR
STARTCHAR U+00D4
ENCODING 212
SWIDTH 1000 0
DWIDTH 50 0
BBX 83 100 -16 -20
BITMAP
00000000003ffffe000000
00000000003ffffe000000
00000000003ffffe000000
00000000007ffffc000000
00000000007ffffc000000
00000000007ffffc000000
0000000000fffff8000000
0000000000fffff8000000
0000000000fffff8000000
0000000001fffff0000000
000000003ff803ff800000
000000003ff803ff800000
000000007ff007ff000000
000000007ff007ff000000
000000007ff007ff000000
00000000ffe00ffe000000
00000000ffe00ffe000000
00000000ffe00ffe000000
00000001ffc01ffc000000
00000001ffc01ffc000000
00000001fffffffc000000
00000003fffffff8000000
00000003fffffff8000000
00000003fffffff8000000
00000007fffffff0000000
00000007fffffff0000000
00000007fffffff0000000
0000000fffffffe0000000
0000000fffffffe0000000
0000000fffffffe0000000
000003ff80000ffe000000
000003ff80000ffe000000
000003ff80000ffe000000
000007ff00001ffc000000
000007ff00001ffc000000
000007ff00001ffc000000
00000ffe00003ff8000000
00000ffe00003ff8000000
00000ffe00003ff8000000
00001ffc00007ff0000000
00001ffc00007ff0000000
00001ffc00007ff0000000
00003ff80000ffe0000000
00003ff80000ffe0000000
00003ff80000ffe0000000
00007ff00001ffc0000000
00007ff00001ffc0000000
00007ff00001ffc0000000
0000ffe00003ff80000000
0000ffe00003ff80000000
0000ffe00003ff80000000
0001ffc00007ff00000000
0001ffc00007ff00000000
0001ffc00007ff00000000
0003ff80000ffe00000000
0003ff80000ffe00000000
0003ff80000ffe00000000
0007ff00001ffc00000000
0007ff00001ffc00000000
0007ff00001ffc00000000
000ffe00003ff800000000
000ffe00003ff800000000
000ffe00003ff800000000
001ffc00007ff000000000
001ffc00007ff000000000
001ffc00007ff000000000
003ff80000ffe000000000
003ff80000ffe000000000
003ff80000ffe000000000
007ff00001ffc000000000
0003fffffff80000000000
0003fffffff80000000000
0007fffffff00000000000
0007fffffff00000000000
0007fffffff00000000000
000fffffffe00000000000
000fffffffe00000000000
000fffffffe00000000000
001fffffffc00000000000
001fffffffc00000000000
0000000000000000000000
0000000000000000000000
0000000000000000000000
0000000000000000000000
0000000000000000000000
0000000000000000000000
0000000000000000000000
0000000000000000000000
0000000000000000000000
0000000000000000000000
0000000000000000000000
0000000000000000000000
0000000000000000000000
0000000000000000000000
0000000000000000000000
0000000000000000000000
0000000000000000000000
0000000000000000000000
0000000000000000000000
0000000000000000000000
ENDCHAR
STARTCHAR U+00D3
ENCODING 211
SWIDTH 1000 0
DWIDTH 50 0
BBX 83 100 -16 -20
BITMAP
000000000001fffe000000
000000000001fffe000000
000000000001fffe000000
000000000003fffc000000
000000000003fffc000000
000000000003fffc000000
000000000007fff8000000
000000000007fff8000000
000000000007fff8000000
00000000000ffff0000000
000000003fffc000000000
000000003fffc000000000
000000007fff8000000000
000000007fff8000000000
000000007fff8000000000
00000000ffff0000000000
00000000ffff0000000000
00000000ffff0000000000
00000001fffe0000000000
00000001fffe0000000000
00000001fffffffc000000
00000003fffffff8000000
00000003fffffff8000000
00000003fffffff8000000
00000007fffffff0000000
00000007fffffff0000000
00000007fffffff0000000
0000000fffffffe0000000
0000000fffffffe0000000
0000000fffffffe0000000
000003ff80000ffe000000
000003ff80000ffe000000
000003ff80000ffe000000
000007ff00001ffc000000
000007ff00001ffc000000
000007ff00001ffc000000
00000ffe00003ff8000000
00000ffe00003ff8000000
00000ffe00003ff8000000
00001ffc00007ff0000000
00001ffc00007ff0000000
00001ffc00007ff0000000
00003ff80000ffe0000000
00003ff80000ffe0000000
00003ff80000ffe0000000
00007ff00001ffc0000000
00007ff00001ffc0000000
00007ff00001ffc0000000
0000ffe00003ff80000000
0000ffe00003ff80000000
0000ffe00003ff80000000
0001ffc00007ff00000000
0001ffc00007ff00000000
0001ffc00007ff00000000
0003ff80000ffe00000000
0003ff80000ffe00000000
0003ff80000ffe00000000
0007ff00001ffc00000000
0007ff00001ffc00000000
0007ff00001ffc00000000
000ffe00003ff800000000
000ffe00003ff800000000
000ffe00003ff800000000
001ffc00007ff000000000
001ffc00007ff000000000
001ffc00007ff000000000
003ff80000ffe000000000
003ff80000ffe000000000
003ff80000ffe000000000
007ff00001ffc000000000
0003fffffff80000000000
0003fffffff80000000000
0007fffffff00000000000
0007fffffff00000000000
0007fffffff00000000000
000fffffffe00000000000
000fffffffe00000000000
000fffffffe00000000000
001fffffffc00000000000
001fffffffc00000000000
0000000000000000000000
0000000000000000000000
0000000000000000000000
0000000000000000000000
0000000000000000000000
0000000000000000000000
0000000000000000000000
0000000000000000000000
0000000000000000000000
0000000000000000000000
0000000000000000000000
0000000000000000000000
0000000000000000000000
0000000000000000000000
0000000000000000000000
0000000000000000000000
0000000000000000000000
0000000000000000000000
0000000000000000000000
0000000000000000000000
ENDCHAR
STARTCHAR U+00D2
ENCODING 210
SWIDTH 1000 0
DWIDTH 50 0
BBX 83 100 -16 -20
BITMAP
00000000003fffc0000000
00000000003fffc0000000
00000000003fffc0000000
00000000007fff80000000
00000000007fff80000000
00000000007fff80000000
0000000000ffff00000000
0000000000ffff00000000
0000000000ffff00000000
0000000001fffe00000000
0000000000007fff800000
0000000000007fff800000
000000000000ffff000000
000000000000ffff000000
000000000000ffff000000
000000000001fffe000000
000000000001fffe000000
000000000001fffe000000
000000000003fffc000000
000000000003fffc000000
00000001fffffffc000000
00000003fffffff8000000
00000003fffffff8000000
00000003fffffff8000000
00000007fffffff0000000
00000007fffffff0000000
00000007fffffff0000000
0000000fffffffe0000000
0000000fffffffe0000000
0000000fffffffe0000000
000003ff80000ffe000000
000003ff80000ffe000000
000003ff80000ffe000000
000007ff00001ffc000000
000007ff00001ffc000000
000007ff00001ffc000000
00000ffe00003ff8000000
00000ffe00003ff8000000
00000ffe00003ff8000000
00001ffc00007ff0000000
00001ffc00007ff0000000
00001ffc00007ff0000000
00003ff80000ffe0000000
00003ff80000ffe0000000
00003ff80000ffe0000000
00007ff00001ffc0000000
00007ff00001ffc0000000
00007ff00001ffc0000000
0000ffe00003ff80000000
0000ffe00003ff80000000
0000ffe00003ff80000000
0001ffc00007ff00000000
0001ffc00007ff00000000
0001ffc00007ff00000000
0003ff80000ffe00000000
0003ff80000ffe00000000
0003ff80000ffe00000000
0007ff00001ffc00000000
0007ff00001ffc00000000
0007ff00001ffc00000000
000ffe00003ff800000000
000ffe00003ff800000000
000ffe00003ff800000000
001ffc00007ff000000000
001ffc00007ff000000000
001ffc00007ff000000000
003ff80000ffe000000000
003ff80000ffe000000000
003ff80000ffe000000000
007ff00001ffc000000000
0003fffffff80000000000
0003fffffff80000000000
0007fffffff00000000000
0007fffffff00000000000
0007fffffff00000000000
000fffffffe00000000000
000fffffffe00000000000
000fffffffe00000000000
001fffffffc00000000000
001fffffffc00000000000
0000000000000000000000
0000000000000000000000
0000000000000000000000
0000000000000000000000
0000000000000000000000
0000000000000000000000
0000000000000000000000
0000000000000000000000
0000000000000000000000
0000000000000000000000
0000000000000000000000
0000000000000000000000
0000000000000000000000
0000000000000000000000
0000000000000000000000
0000000000000000000000
0000000000000000000000
0000000000000000000000
0000000000000000000000
0000000000000000000000
ENDCHAR
STARTCHAR U+00D1
ENCODING 209
SWIDTH 1000 0
DWIDTH 50 0
BBX 83 100 -16 -20
BITMAP
00000000003fffc3ff8000
00000000003fffc3ff8000
00000000003fffc3ff8000
00000000007fff87ff0000
00000000007fff87ff0000
00000000007fff87ff0000
0000000000ffff0ffe0000
0000000000ffff0ffe0000
0000000000ffff0ffe0000
0000000001fffe1ffc0000
000000003ff87fff800000
000000003ff87fff800000
000000007ff0ffff000000
000000007ff0ffff000000
000000007ff0ffff000000
00000000ffe1fffe000000
00000000ffe1fffe000000
00000000ffe1fffe000000
00000001ffc3fffc000000
00000001ffc3fffc000000
0000003fffc000ffe00000
0000007fff8001ffc00000
0000007fff8001ffc00000
0000007fff8001ffc00000
000000ffff0003ff800000
000000ffff0003ff800000
000000ffff0003ff800000
000001fffe0007ff000000
000001fffe0007ff000000
000001fffe0007ff000000
000003ffffe00ffe000000
000003ffffe00ffe000000
000003ffffe00ffe000000
000007ffffc01ffc000000
000007ffffc01ffc000000
000007ffffc01ffc000000
00000fffff803ff8000000
00000fffff803ff8000000
00000fffff803ff8000000
00001fffff007ff0000000
00001ffc3ff87ff0000000
00001ffc3ff87ff0000000
00003ff87ff0ffe0000000
00003ff87ff0ffe0000000
00003ff87ff0ffe0000000
00007ff0ffe1ffc0000000
00007ff0ffe1ffc0000000
00007ff0ffe1ffc0000000
0000ffe1ffc3ff80000000
0000ffe1ffc3ff80000000
0000ffe00fffff80000000
0001ffc01fffff00000000
0001ffc01fffff00000000
0001ffc01fffff00000000
0003ff803ffffe00000000
0003ff803ffffe00000000
0003ff803ffffe00000000
0007ff007ffffc00000000
0007ff007ffffc00000000
0007ff007ffffc00000000
000ffe0007fff800000000
000ffe0007fff800000000
000ffe0007fff800000000
001ffc000ffff000000000
001ffc000ffff000000000
001ffc000ffff000000000
003ff8001fffe000000000
003ff8001fffe000000000
003ff8001fffe000000000
007ff0003fffc000000000
007ff00001ffc000000000
007ff00001ffc000000000
00ffe00003ff8000000000
00ffe00003ff8000000000
00ffe00003ff8000000000
01ffc00007ff0000000000
01ffc00007ff0000000000
01ffc00007ff0000000000
03ff80000ffe0000000000
03ff80000ffe0000000000
0000000000000000000000
0000000000000000000000
0000000000000000000000
0000000000000000000000
0000000000000000000000
0000000000000000000000
0000000000000000000000
0000000000000000000000
0000000000000000000000
0000000000000000000000
0000000000000000000000
0000000000000000000000
0000000000000000000000
0000000000000000000000
0000000000000000000000
0000000000000000000000
0000000000000000000000
0000000000000000000000
0000000000000000000000
0000000000000000000000
ENDCHAR
STARTCHAR U+00D0
ENCODING 208
SWIDTH 1000 0
DWIDTH 50 0
BBX 83 100 -16 -20
BITMAP
0000000000000000000000
0000000000000000000000
0000000000000000000000
0000000000000000000000
0000000000000000000000
0000000000000000000000
0000000000000000000000
0000000000000000000000
0000000000000000000000
0000000000000000000000
00000007fffffff0000000
00000007fffffff0000000
0000000fffffffe0000000
0000000fffffffe0000000
0000000fffffffe0000000
0000001fffffffc0000000
0000001fffffffc0000000
0000001fffffffc0000000
0000003fffffff80000000
0000003fffffff80000000
00000001ffc01ffc000000
00000003ff803ff8000000
00000003ff803ff8000000
00000003ff803ff8000000
00000007ff007ff0000000
00000007ff007ff0000000
00000007ff007ff0000000
0000000ffe00ffe0000000
0000000ffe00ffe0000000
0000000ffe00ffe0000000
0000001ffc000ffe000000
0000001ffc000ffe000000
0000001ffc000ffe000000
0000003ff8001ffc000000
0000003ff8001ffc000000
0000003ff8001ffc000000
0000007ff0003ff8000000
0000007ff0003ff8000000
0000007ff0003ff8000000
000000ffe0007ff0000000
00001ffffff87ff0000000
00001ffffff87ff0000000
00003ffffff0ffe0000000
00003ffffff0ffe0000000
00003ffffff0ffe0000000
00007fffffe1ffc0000000
00007fffffe1ffc0000000
00007fffffe1ffc0000000
0000ffffffc3ff80000000
0000ffffffc3ff80000000
000007ff0003ff80000000
00000ffe0007ff00000000
00000ffe0007ff00000000
00000ffe0007ff00000000
00001ffc000ffe00000000
00001ffc000ffe00000000
00001ffc000ffe00000000
00003ff8001ffc00000000
00003ff8001ffc00000000
00003ff8001ffc00000000
00007ff007ff0000000000
00007ff007ff0000000000
00007ff007ff0000000000
0000ffe00ffe0000000000
0000ffe00ffe0000000000
0000ffe00ffe0000000000
0001ffc01ffc0000000000
0001ffc01ffc0000000000
0001ffc01ffc0000000000
0003ff803ff80000000000
007fffffff000000000000
007fffffff000000000000
00fffffffe000000000000
00fffffffe000000000000
00fffffffe000000000000
01fffffffc000000000000
01fffffffc000000000000
01fffffffc000000000000
03fffffff8000000000000
03fffffff8000000000000
0000000000000000000000
0000000000000000000000
0000000000000000000000
0000000000000000000000
0000000000000000000000
0000000000000000000000
0000000000000000000000
0000000000000000000000
0000000000000000000000
0000000000000000000000
0000000000000000000000
0000000000000000000000
0000000000000000000000
0000000000000000000000
0000000000000000000000
0000000000000000000000
0000000000000000000000
0000000000000000000000
0000000000000000000000
0000000000000000000000
ENDCHAR
STARTCHAR U+00CF
ENCODING 207
SWIDTH 1000 0
DWIDTH 50 0
BBX 83 100 -16 -20
BITMAP
0000000007ff007ff00000
0000000007ff007ff00000
0000000007ff007ff00000
000000000ffe00ffe00000
000000000ffe00ffe00000
000000000ffe00ffe00000
000000001ffc01ffc00000
000000001ffc01ffc00000
000000001ffc01ffc00000
000000003ff803ff800000
0000000000000000000000
0000000000000000000000
0000000000000000000000
0000000000000000000000
0000000000000000000000
0000000000000000000000
0000000000000000000000
0000000000000000000000
0000000000000000000000
0000000000000000000000
00000001fffffffc000000
00000003fffffff8000000
00000003fffffff8000000
00000003fffffff8000000
00000007fffffff0000000
00000007fffffff0000000
00000007fffffff0000000
0000000fffffffe0000000
0000000fffffffe0000000
0000000fffffffe0000000
0000000007ff0000000000
0000000007ff0000000000
0000000007ff0000000000
000000000ffe0000000000
000000000ffe0000000000
000000000ffe0000000000
000000001ffc0000000000
000000001ffc0000000000
000000001ffc0000000000
000000003ff80000000000
000000003ff80000000000
000000003ff80000000000
000000007ff00000000000
000000007ff00000000000
000000007ff00000000000
00000000ffe00000000000
00000000ffe00000000000
00000000ffe00000000000
00000001ffc00000000000
00000001ffc00000000000
00000001ffc00000000000
00000003ff800000000000
00000003ff800000000000
00000003ff800000000000
00000007ff000000000000
00000007ff000000000000
00000007ff000000000000
0000000ffe000000000000
0000000ffe000000000000
0000000ffe000000000000
0000001ffc000000000000
0000001ffc000000000000
0000001ffc000000000000
0000003ff8000000000000
0000003ff8000000000000
0000003ff8000000000000
0000007ff0000000000000
0000007ff0000000000000
0000007ff0000000000000
000000ffe0000000000000
0003fffffff80000000000
0003fffffff80000000000
0007fffffff00000000000
0007fffffff00000000000
0007fffffff00000000000
000fffffffe00000000000
000fffffffe00000000000
000fffffffe00000000000
001fffffffc00000000000
001fffffffc00000000000
0000000000000000000000
0000000000000000000000
0000000000000000000000
0000000000000000000000
0000000000000000000000
0000000000000000000000
0000000000000000000000
0000000000000000000000
0000000000000000000000
0000000000000000000000
0000000000000000000000
0000000000000000000000
0000000000000000000000
0000000000000000000000
0000000000000000000000
0000000000000000000000
0000000000000000000000
0000000000000000000000
0000000000000000000000
0000000000000000000000
ENDCHAR
STARTCHAR U+00CE
ENCODING 206
SWIDTH 1000 0
DWIDTH 50 0
BBX 83 100 -16 -20
BITMAP
00000000003ffffe000000
00000000003ffffe000000
00000000003ffffe000000
00000000007ffffc000000
00000000007ffffc000000
00000000007ffffc000000
0000000000fffff8000000
0000000000fffff8000000
0000000000fffff8000000
0000000001fffff0000000
000000003ff803ff800000
000000003ff803ff800000
000000007ff007ff000000
000000007ff007ff000000
000000007ff007ff000000
00000000ffe00ffe000000
00000000ffe00ffe000000
00000000ffe00ffe000000
00000001ffc01ffc000000
00000001ffc01ffc000000
00000001fffffffc000000
00000003fffffff8000000
00000003fffffff8000000
00000003fffffff8000000
00000007fffffff0000000
00000007fffffff0000000
00000007fffffff0000000
0000000fffffffe0000000
0000000fffffffe0000000
0000000fffffffe0000000
0000000007ff0000000000
0000000007ff0000000000
0000000007ff0000000000
000000000ffe0000000000
000000000ffe0000000000
000000000ffe0000000000
000000001ffc0000000000
000000001ffc0000000000
000000001ffc0000000000
000000003ff80000000000
000000003ff80000000000
000000003ff80000000000
000000007ff00000000000
000000007ff00000000000
000000007ff00000000000
00000000ffe00000000000
00000000ffe00000000000
00000000ffe00000000000
00000001ffc00000000000
00000001ffc00000000000
00000001ffc00000000000
00000003ff800000000000
00000003ff800000000000
00000003ff800000000000
00000007ff000000000000
00000007ff000000000000
00000007ff000000000000
0000000ffe000000000000
0000000ffe000000000000
0000000ffe000000000000
0000001ffc000000000000
0000001ffc000000000000
0000001ffc000000000000
0000003ff8000000000000
0000003ff8000000000000
0000003ff8000000000000
0000007ff0000000000000
0000007ff0000000000000
0000007ff0000000000000
000000ffe0000000000000
0003fffffff80000000000
0003fffffff80000000000
0007fffffff00000000000
0007fffffff00000000000
0007fffffff00000000000
000fffffffe00000000000
000fffffffe00000000000
000fffffffe00000000000
001fffffffc00000000000
001fffffffc00000000000
0000000000000000000000
0000000000000000000000
0000000000000000000000
0000000000000000000000
0000000000000000000000
0000000000000000000000
0000000000000000000000
0000000000000000000000
0000000000000000000000
0000000000000000000000
0000000000000000000000
0000000000000000000000
0000000000000000000000
0000000000000000000000
0000000000000000000000
0000000000000000000000
0000000000000000000000
0000000000000000000000
0000000000000000000000
0000000000000000000000
ENDCHAR
STARTCHAR U+00CD
ENCODING 205
SWIDTH 1000 0
DWIDTH 50 0
BBX 83 100 -16 -20
BITMAP
000000000001fffe000000
000000000001fffe000000
000000000001fffe000000
000000000003fffc000000
000000000003fffc000000
000000000003fffc000000
000000000007fff8000000
000000000007fff8000000
000000000007fff8000000
00000000000ffff0000000
000000003fffc000000000
000000003fffc000000000
000000007fff8000000000
000000007fff8000000000
000000007fff8000000000
00000000ffff0000000000
00000000ffff0000000000
00000000ffff0000000000
00000001fffe0000000000
00000001fffe0000000000
00000001fffffffc000000
00000003fffffff8000000
00000003fffffff8000000
00000003fffffff8000000
00000007fffffff0000000
00000007fffffff0000000
00000007fffffff0000000
0000000fffffffe0000000
0000000fffffffe0000000
0000000fffffffe0000000
0000000007ff0000000000
0000000007ff0000000000
0000000007ff0000000000
000000000ffe0000000000
000000000ffe0000000000
000000000ffe0000000000
000000001ffc0000000000
000000001ffc0000000000
000000001ffc0000000000
000000003ff80000000000
000000003ff80000000000
000000003ff80000000000
000000007ff00000000000
000000007ff00000000000
000000007ff00000000000
00000000ffe00000000000
00000000ffe00000000000
00000000ffe00000000000
00000001ffc00000000000
00000001ffc00000000000
00000001ffc00000000000
00000003ff800000000000
00000003ff800000000000
00000003ff800000000000
00000007ff000000000000
00000007ff000000000000
00000007ff000000000000
0000000ffe000000000000
0000000ffe000000000000
0000000ffe000000000000
0000001ffc000000000000
0000001ffc000000000000
0000001ffc000000000000
0000003ff8000000000000
0000003ff8000000000000
0000003ff8000000000000
0000007ff0000000000000
0000007ff0000000000000
0000007ff0000000000000
000000ffe0000000000000
0003fffffff80000000000
0003fffffff80000000000
0007fffffff00000000000
0007fffffff00000000000
0007fffffff00000000000
000fffffffe00000000000
000fffffffe00000000000
000fffffffe00000000000
001fffffffc00000000000
001fffffffc00000000000
0000000000000000000000
0000000000000000000000
0000000000000000000000
0000000000000000000000
0000000000000000000000
0000000000000000000000
0000000000000000000000
0000000000000000000000
0000000000000000000000
0000000000000000000000
0000000000000000000000
0000000000000000000000
0000000000000000000000
0000000000000000000000
0000000000000000000000
0000000000000000000000
0000000000000000000000
0000000000000000000000
0000000000000000000000
0000000000000000000000
ENDCHAR
STARTCHAR U+00CC
ENCODING 204
SWIDTH 1000 0
DWIDTH 50 0
BBX 83 100 -16 -20
BITMAP
00000000003fffc0000000
00000000003fffc0000000
00000000003fffc0000000
00000000007fff80000000
00000000007fff80000000
00000000007fff80000000
0000000000ffff00000000
0000000000ffff00000000
0000000000ffff00000000
0000000001fffe00000000
0000000000007fff800000
0000000000007fff800000
000000000000ffff000000
000000000000ffff000000
000000000000ffff000000
000000000001fffe000000
000000000001fffe000000
000000000001fffe000000
000000000003fffc000000
000000000003fffc000000
00000001fffffffc000000
00000003fffffff8000000
00000003fffffff8000000
00000003fffffff8000000
00000007fffffff0000000
00000007fffffff0000000
00000007fffffff0000000
0000000fffffffe0000000
0000000fffffffe0000000
0000000fffffffe0000000
0000000007ff0000000000
0000000007ff0000000000
0000000007ff0000000000
000000000ffe0000000000
000000000ffe0000000000
000000000ffe0000000000
000000001ffc0000000000
000000001ffc0000000000
000000001ffc0000000000
000000003ff80000000000
000000003ff80000000000
000000003ff80000000000
000000007ff00000000000
000000007ff00000000000
000000007ff00000000000
00000000ffe00000000000
00000000ffe00000000000
00000000ffe00000000000
00000001ffc00000000000
00000001ffc00000000000
00000001ffc00000000000
00000003ff800000000000
00000003ff800000000000
00000003ff800000000000
00000007ff000000000000
00000007ff000000000000
00000007ff000000000000
0000000ffe000000000000
0000000ffe000000000000
0000000ffe000000000000
0000001ffc000000000000
0000001ffc000000000000
0000001ffc000000000000
0000003ff8000000000000
0000003ff8000000000000
0000003ff8000000000000
0000007ff0000000000000
0000007ff0000000000000
0000007ff0000000000000
000000ffe0000000000000
0003fffffff80000000000
0003fffffff80000000000
0007fffffff00000000000
0007fffffff00000000000
0007fffffff00000000000
000fffffffe00000000000
000fffffffe00000000000
000fffffffe00000000000
001fffffffc00000000000
001fffffffc00000000000
0000000000000000000000
0000000000000000000000
0000000000000000000000
0000000000000000000000
0000000000000000000000
0000000000000000000000
0000000000000000000000
0000000000000000000000
0000000000000000000000
0000000000000000000000
0000000000000000000000
0000000000000000000000
0000000000000000000000
0000000000000000000000
0000000000000000000000
0000000000000000000000
0000000000000000000000
0000000000000000000000
0000000000000000000000
0000000000000000000000
ENDCHAR
STARTCHAR U+00CB
ENCODING 203
SWIDTH 1000 0
DWIDTH 50 0
BBX 83 100 -16 -20
BITMAP
0000000007ff007ff00000
0000000007ff007ff00000
0000000007ff007ff00000
000000000ffe00ffe00000
000000000ffe00ffe00000
000000000ffe00ffe00000
000000001ffc01ffc00000
000000001ffc01ffc00000
000000001ffc01ffc00000
000000003ff803ff800000
0000000000000000000000
0000000000000000000000
0000000000000000000000
0000000000000000000000
0000000000000000000000
0000000000000000000000
0000000000000000000000
0000000000000000000000
0000000000000000000000
0000000000000000000000
0000003fffffffffe00000
0000007fffffffffc00000
0000007fffffffffc00000
0000007fffffffffc00000
000000ffffffffff800000
000000ffffffffff800000
000000ffffffffff800000
000001ffffffffff000000
000001ffffffffff000000
000001ffffffffff000000
000003ff80000000000000
000003ff80000000000000
000003ff80000000000000
000007ff00000000000000
000007ff00000000000000
000007ff00000000000000
00000ffe00000000000000
00000ffe00000000000000
00000ffe00000000000000
00001ffc00000000000000
00001fffffffc000000000
00001fffffffc000000000
00003fffffff8000000000
00003fffffff8000000000
00003fffffff8000000000
00007fffffff0000000000
00007fffffff0000000000
00007fffffff0000000000
0000fffffffe0000000000
0000fffffffe0000000000
0000ffe000000000000000
0001ffc000000000000000
0001ffc000000000000000
0001ffc000000000000000
0003ff8000000000000000
0003ff8000000000000000
0003ff8000000000000000
0007ff0000000000000000
0007ff0000000000000000
0007ff0000000000000000
000ffe0000000000000000
000ffe0000000000000000
000ffe0000000000000000
001ffc0000000000000000
001ffc0000000000000000
001ffc0000000000000000
003ff80000000000000000
003ff80000000000000000
003ff80000000000000000
007ff00000000000000000
007fffffffffc000000000
007fffffffffc000000000
00ffffffffff8000000000
00ffffffffff8000000000
00ffffffffff8000000000
01ffffffffff0000000000
01ffffffffff0000000000
01ffffffffff0000000000
03fffffffffe0000000000
03fffffffffe0000000000
0000000000000000000000
0000000000000000000000
0000000000000000000000
0000000000000000000000
0000000000000000000000
0000000000000000000000
0000000000000000000000
0000000000000000000000
0000000000000000000000
0000000000000000000000
0000000000000000000000
0000000000000000000000
0000000000000000000000
0000000000000000000000
0000000000000000000000
0000000000000000000000
0000000000000000000000
0000000000000000000000
0000000000000000000000
0000000000000000000000
ENDCHAR
STARTCHAR U+00CA
ENCODING 202
SWIDTH 1000 0
DWIDTH 50 0
BBX 83 100 -16 -20
BITMAP
00000000003ffffe000000
00000000003ffffe000000
00000000003ffffe000000
00000000007ffffc000000
00000000007ffffc000000
00000000007ffffc000000
0000000000fffff8000000
0000000000fffff8000000
0000000000fffff8000000
0000000001fffff0000000
000000003ff803ff800000
000000003ff803ff800000
000000007ff007ff000000
000000007ff007ff000000
000000007ff007ff000000
00000000ffe00ffe000000
00000000ffe00ffe000000
00000000ffe00ffe000000
00000001ffc01ffc000000
00000001ffc01ffc000000
0000003fffffffffe00000
0000007fffffffffc00000
0000007fffffffffc00000
0000007fffffffffc00000
000000ffffffffff800000
000000ffffffffff800000
000000ffffffffff800000
000001ffffffffff000000
000001ffffffffff000000
000001ffffffffff000000
000003ff80000000000000
000003ff80000000000000
000003ff80000000000000
000007ff00000000000000
000007ff00000000000000
000007ff00000000000000
00000ffe00000000000000
00000ffe00000000000000
00000ffe00000000000000
00001ffc00000000000000
00001ffffff80000000000
00001ffffff80000000000
00003ffffff00000000000
00003ffffff00000000000
00003ffffff00000000000
00007fffffe00000000000
00007fffffe00000000000
00007fffffe00000000000
0000ffffffc00000000000
0000ffffffc00000000000
0000ffe000000000000000
0001ffc000000000000000
0001ffc000000000000000
0001ffc000000000000000
0003ff8000000000000000
0003ff8000000000000000
0003ff8000000000000000
0007ff0000000000000000
0007ff0000000000000000
0007ff0000000000000000
000ffe0000000000000000
000ffe0000000000000000
000ffe0000000000000000
001ffc0000000000000000
001ffc0000000000000000
001ffc0000000000000000
003ff80000000000000000
003ff80000000000000000
003ff80000000000000000
007ff00000000000000000
007fffffffffc000000000
007fffffffffc000000000
00ffffffffff8000000000
00ffffffffff8000000000
00ffffffffff8000000000
01ffffffffff0000000000
01ffffffffff0000000000
01ffffffffff0000000000
03fffffffffe0000000000
03fffffffffe0000000000
0000000000000000000000
0000000000000000000000
0000000000000000000000
0000000000000000000000
0000000000000000000000
0000000000000000000000
0000000000000000000000
0000000000000000000000
0000000000000000000000
0000000000000000000000
0000000000000000000000
0000000000000000000000
0000000000000000000000
0000000000000000000000
0000000000000000000000
0000000000000000000000
0000000000000000000000
0000000000000000000000
0000000000000000000000
0000000000000000000000
ENDCHAR
STARTCHAR U+00C9
ENCODING 201
SWIDTH 1000 0
DWIDTH 50 0
BBX 83 100 -16 -20
BITMAP
0000000000000ffff00000
0000000000000ffff00000
0000000000000ffff00000
0000000000001fffe00000
0000000000001fffe00000
0000000000001fffe00000
0000000000003fffc00000
0000000000003fffc00000
0000000000003fffc00000
0000000000007fff800000
0000000001fffe00000000
0000000001fffe00000000
0000000003fffc00000000
0000000003fffc00000000
0000000003fffc00000000
0000000007fff800000000
0000000007fff800000000
0000000007fff800000000
000000000ffff000000000
000000000ffff000000000
0000003fffffffffe00000
0000007fffffffffc00000
0000007fffffffffc00000
0000007fffffffffc00000
000000ffffffffff800000
000000ffffffffff800000
000000ffffffffff800000
000001ffffffffff000000
000001ffffffffff000000
000001ffffffffff000000
000003ff80000000000000
000003ff80000000000000
000003ff80000000000000
000007ff00000000000000
000007ff00000000000000
000007ff00000000000000
00000ffe00000000000000
00000ffe00000000000000
00000ffe00000000000000
00001ffc00000000000000
00001fffffffc000000000
00001fffffffc000000000
00003fffffff8000000000
00003fffffff8000000000
00003fffffff8000000000
00007fffffff0000000000
00007fffffff0000000000
00007fffffff0000000000
0000fffffffe0000000000
0000fffffffe0000000000
0000ffe000000000000000
0001ffc000000000000000
0001ffc000000000000000
0001ffc000000000000000
0003ff8000000000000000
0003ff8000000000000000
0003ff8000000000000000
0007ff0000000000000000
0007ff0000000000000000
0007ff0000000000000000
000ffe0000000000000000
000ffe0000000000000000
000ffe0000000000000000
001ffc0000000000000000
001ffc0000000000000000
001ffc0000000000000000
003ff80000000000000000
003ff80000000000000000
003ff80000000000000000
007ff00000000000000000
007fffffffffc000000000
007fffffffffc000000000
00ffffffffff8000000000
00ffffffffff8000000000
00ffffffffff8000000000
01ffffffffff0000000000
01ffffffffff0000000000
01ffffffffff0000000000
03fffffffffe0000000000
03fffffffffe0000000000
0000000000000000000000
0000000000000000000000
0000000000000000000000
0000000000000000000000
0000000000000000000000
0000000000000000000000
0000000000000000000000
0000000000000000000000
0000000000000000000000
0000000000000000000000
0000000000000000000000
0000000000000000000000
0000000000000000000000
0000000000000000000000
0000000000000000000000
0000000000000000000000
0000000000000000000000
0000000000000000000000
0000000000000000000000
0000000000000000000000
ENDCHAR
STARTCHAR U+00C8
ENCODING 200
SWIDTH 1000 0
DWIDTH 50 0
BBX 83 100 -16 -20
BITMAP
0000000007fff800000000
0000000007fff800000000
0000000007fff800000000
000000000ffff000000000
000000000ffff000000000
000000000ffff000000000
000000001fffe000000000
000000001fffe000000000
000000001fffe000000000
000000003fffc000000000
00000000000ffff0000000
00000000000ffff0000000
00000000001fffe0000000
00000000001fffe0000000
00000000001fffe0000000
00000000003fffc0000000
00000000003fffc0000000
00000000003fffc0000000
00000000007fff80000000
00000000007fff80000000
0000003fffffffffe00000
0000007fffffffffc00000
0000007fffffffffc00000
0000007fffffffffc00000
000000ffffffffff800000
000000ffffffffff800000
000000ffffffffff800000
000001ffffffffff000000
000001ffffffffff000000
000001ffffffffff000000
000003ff80000000000000
000003ff80000000000000
000003ff80000000000000
000007ff00000000000000
000007ff00000000000000
000007ff00000000000000
00000ffe00000000000000
00000ffe00000000000000
00000ffe00000000000000
00001ffc00000000000000
00001fffffffc000000000
00001fffffffc000000000
00003fffffff8000000000
00003fffffff8000000000
00003fffffff8000000000
00007fffffff0000000000
00007fffffff0000000000
00007fffffff0000000000
0000fffffffe0000000000
0000fffffffe0000000000
0000ffe000000000000000
0001ffc000000000000000
0001ffc000000000000000
0001ffc000000000000000
0003ff8000000000000000
0003ff8000000000000000
0003ff8000000000000000
0007ff0000000000000000
0007ff0000000000000000
0007ff0000000000000000
000ffe0000000000000000
000ffe0000000000000000
000ffe0000000000000000
001ffc0000000000000000
001ffc0000000000000000
001ffc0000000000000000
003ff80000000000000000
003ff80000000000000000
003ff80000000000000000
007ff00000000000000000
007fffffffffc000000000
007fffffffffc000000000
00ffffffffff8000000000
00ffffffffff8000000000
00ffffffffff8000000000
01ffffffffff0000000000
01ffffffffff0000000000
01ffffffffff0000000000
03fffffffffe0000000000
03fffffffffe0000000000
0000000000000000000000
0000000000000000000000
0000000000000000000000
0000000000000000000000
0000000000000000000000
0000000000000000000000
0000000000000000000000
0000000000000000000000
0000000000000000000000
0000000000000000000000
0000000000000000000000
0000000000000000000000
0000000000000000000000
0000000000000000000000
0000000000000000000000
0000000000000000000000
0000000000000000000000
0000000000000000000000
0000000000000000000000
0000000000000000000000
ENDCHAR
STARTCHAR U+00C7
ENCODING 199
SWIDTH 1000 0
DWIDTH 50 0
BBX 83 100 -16 -20
BITMAP
0000000000000000000000
0000000000000000000000
0000000000000000000000
0000000000000000000000
0000000000000000000000
0000000000000000000000
0000000000000000000000
0000000000000000000000
0000000000000000000000
0000000000000000000000
0000000001ffffff800000
0000000001ffffff800000
0000000003ffffff000000
0000000003ffffff000000
0000000003ffffff000000
0000000007fffffe000000
0000000007fffffe000000
0000000007fffffe000000
000000000ffffffc000000
000000000ffffffc000000
00000001ffc000ffe00000
00000003ff8001ffc00000
00000003ff8001ffc00000
00000003ff8001ffc00000
00000007ff0003ff800000
00000007ff0003ff800000
00000007ff0003ff800000
0000000ffe0007ff000000
0000000ffe0007ff000000
0000000ffe0007ff000000
000003ff80000000000000
000003ff80000000000000
000003ff80000000000000
000007ff00000000000000
000007ff00000000000000
000007ff00000000000000
00000ffe00000000000000
00000ffe00000000000000
00000ffe00000000000000
00001ffc00000000000000
00001ffc00000000000000
00001ffc00000000000000
00003ff800000000000000
00003ff800000000000000
00003ff800000000000000
00007ff000000000000000
00007ff000000000000000
00007ff000000000000000
0000ffe000000000000000
0000ffe000000000000000
0000ffe000000000000000
0001ffc000000000000000
0001ffc000000000000000
0001ffc000000000000000
0003ff8000000000000000
0003ff8000000000000000
0003ff8000000000000000
0007ff0000000000000000
0007ff0000000000000000
0007ff0000000000000000
00007ff0003ff800000000
00007ff0003ff800000000
00007ff0003ff800000000
0000ffe0007ff000000000
0000ffe0007ff000000000
0000ffe0007ff000000000
0001ffc000ffe000000000
0001ffc000ffe000000000
0001ffc000ffe000000000
0003ff8001ffc000000000
00001ffffff80000000000
00001ffffff80000000000
00003ffffff00000000000
00003ffffff00000000000
00003ffffff00000000000
00007fffffe00000000000
00007fffffe00000000000
00007fffffe00000000000
0000ffffffc00000000000
0000ffffffc00000000000
0000003ff8000000000000
0000007ff0000000000000
0000007ff0000000000000
0000007ff0000000000000
000000ffe0000000000000
000000ffe0000000000000
000000ffe0000000000000
000001ffc0000000000000
000001ffc0000000000000
000001ffc0000000000000
000fffff80000000000000
000fffff80000000000000
000fffff80000000000000
001fffff00000000000000
001fffff00000000000000
001fffff00000000000000
003ffffe00000000000000
003ffffe00000000000000
003ffffe00000000000000
007ffffc00000000000000
ENDCHAR
STARTCHAR U+00C6
ENCODING 198
SWIDTH 1000 0
DWIDTH 50 0
BBX 83 100 -16 -20
BITMAP
0000000000000000000000
0000000000000000000000
0000000000000000000000
0000000000000000000000
0000000000000000000000
0000000000000000000000
0000000000000000000000
0000000000000000000000
0000000000000000000000
0000000000000000000000
0000000001fffffffc0000
0000000001fffffffc0000
0000000003fffffff80000
0000000003fffffff80000
0000000003fffffff80000
0000000007fffffff00000
0000000007fffffff00000
0000000007fffffff00000
000000000fffffffe00000
000000000fffffffe00000
00000001fffff000000000
00000003ffffe000000000
00000003ffffe000000000
00000003ffffe000000000
00000007ffffc000000000
00000007ffffc000000000
00000007ffffc000000000
0000000fffff8000000000
0000000fffff8000000000
0000000fffff8000000000
000003ff87ff0000000000
000003ff87ff0000000000
000003ff87ff0000000000
000007ff0ffe0000000000
000007ff0ffe0000000000
000007ff0ffe0000000000
00000ffe1ffc0000000000
00000ffe1ffc0000000000
00000ffe1ffc0000000000
00001ffc3ff80000000000
00001ffc3ffffe00000000
00001ffc3ffffe00000000
00003ff87ffffc00000000
00003ff87ffffc00000000
00003ff87ffffc00000000
00007ff0fffff800000000
00007ff0fffff800000000
00007ff0fffff800000000
0000ffe1fffff000000000
0000ffe1fffff000000000
0000ffffffc00000000000
0001ffffff800000000000
0001ffffff800000000000
0001ffffff800000000000
0003ffffff000000000000
0003ffffff000000000000
0003ffffff000000000000
0007fffffe000000000000
0007fffffe000000000000
0007fffffe000000000000
000ffe1ffc000000000000
000ffe1ffc000000000000
000ffe1ffc000000000000
001ffc3ff8000000000000
001ffc3ff8000000000000
001ffc3ff8000000000000
003ff87ff0000000000000
003ff87ff0000000000000
003ff87ff0000000000000
007ff0ffe0000000000000
007ff0ffffffc000000000
007ff0ffffffc000000000
00ffe1ffffff8000000000
00ffe1ffffff8000000000
00ffe1ffffff8000000000
01ffc3ffffff0000000000
01ffc3ffffff0000000000
01ffc3ffffff0000000000
03ff87fffffe0000000000
03ff87fffffe0000000000
0000000000000000000000
0000000000000000000000
0000000000000000000000
0000000000000000000000
0000000000000000000000
0000000000000000000000
0000000000000000000000
0000000000000000000000
0000000000000000000000
0000000000000000000000
0000000000000000000000
0000000000000000000000
0000000000000000000000
0000000000000000000000
0000000000000000000000
0000000000000000000000
0000000000000000000000
0000000000000000000000
0000000000000000000000
0000000000000000000000
ENDCHAR
STARTCHAR U+00C5
ENCODING 197
SWIDTH 1000 0
DWIDTH 50 0
BBX 83 100 -16 -20
BITMAP
00000000003ffffe000000
00000000003ffffe000000
00000000003ffffe000000
00000000007ffffc000000
00000000007ffffc000000
00000000007ffffc000000
0000000000fffff8000000
0000000000fffff8000000
0000000000fffff8000000
0000000001fffff0000000
000000003ff803ff800000
000000003ff803ff800000
000000007ff007ff000000
000000007ff007ff000000
000000007ff007ff000000
00000000ffe00ffe000000
00000000ffe00ffe000000
00000000ffe00ffe000000
00000001ffc01ffc000000
00000001ffc01ffc000000
000000000fffff80000000
000000001fffff00000000
000000001fffff00000000
000000001fffff00000000
000000003ffffe00000000
000000003ffffe00000000
000000003ffffe00000000
000000007ffffc00000000
000000007ffffc00000000
000000007ffffc00000000
00000000fffff800000000
00000000fffff800000000
00000000fffff800000000
00000001fffff000000000
00000001fffff000000000
00000001fffff000000000
00000003ffffe000000000
00000003ffffe000000000
00000003ffffe000000000
00000007ffffc000000000
000000ffe00ffe00000000
000000ffe00ffe00000000
000001ffc01ffc00000000
000001ffc01ffc00000000
000001ffc01ffc00000000
000003ff803ff800000000
000003ff803ff800000000
000003ff803ff800000000
000007ff007ff000000000
000007ff007ff000000000
0000ffffffffff80000000
0001ffffffffff00000000
0001ffffffffff00000000
0001ffffffffff00000000
0003fffffffffe00000000
0003fffffffffe00000000
0003fffffffffe00000000
0007fffffffffc00000000
0007fffffffffc00000000
0007fffffffffc00000000
000ffe00003ff800000000
000ffe00003ff800000000
000ffe00003ff800000000
001ffc00007ff000000000
001ffc00007ff000000000
001ffc00007ff000000000
003ff80000ffe000000000
003ff80000ffe000000000
003ff80000ffe000000000
007ff00001ffc000000000
007ff00001ffc000000000
007ff00001ffc000000000
00ffe00003ff8000000000
00ffe00003ff8000000000
00ffe00003ff8000000000
01ffc00007ff0000000000
01ffc00007ff0000000000
01ffc00007ff0000000000
03ff80000ffe0000000000
03ff80000ffe0000000000
0000000000000000000000
0000000000000000000000
0000000000000000000000
0000000000000000000000
0000000000000000000000
0000000000000000000000
0000000000000000000000
0000000000000000000000
0000000000000000000000
0000000000000000000000
0000000000000000000000
0000000000000000000000
0000000000000000000000
0000000000000000000000
0000000000000000000000
0000000000000000000000
0000000000000000000000
0000000000000000000000
0000000000000000000000
0000000000000000000000
ENDCHAR
STARTCHAR U+00C4
ENCODING 196
SWIDTH 1000 0
DWIDTH 50 0
BBX 83 100 -16 -20
BITMAP
0000000007ff007ff00000
0000000007ff007ff00000
0000000007ff007ff00000
000000000ffe00ffe00000
000000000ffe00ffe00000
000000000ffe00ffe00000
000000001ffc01ffc00000
000000001ffc01ffc00000
000000001ffc01ffc00000
000000003ff803ff800000
0000000000000000000000
0000000000000000000000
0000000000000000000000
0000000000000000000000
0000000000000000000000
0000000000000000000000
0000000000000000000000
0000000000000000000000
0000000000000000000000
0000000000000000000000
00000000007ff000000000
0000000000ffe000000000
0000000000ffe000000000
0000000000ffe000000000
0000000001ffc000000000
0000000001ffc000000000
0000000001ffc000000000
0000000003ff8000000000
0000000003ff8000000000
0000000003ff8000000000
00000000fffff800000000
00000000fffff800000000
00000000fffff800000000
00000001fffff000000000
00000001fffff000000000
00000001fffff000000000
00000003ffffe000000000
00000003ffffe000000000
00000003ffffe000000000
00000007ffffc000000000
000000ffe00ffe00000000
000000ffe00ffe00000000
000001ffc01ffc00000000
000001ffc01ffc00000000
000001ffc01ffc00000000
000003ff803ff800000000
000003ff803ff800000000
000003ff803ff800000000
000007ff007ff000000000
000007ff007ff000000000
0000ffffffffff80000000
0001ffffffffff00000000
0001ffffffffff00000000
0001ffffffffff00000000
0003fffffffffe00000000
0003fffffffffe00000000
0003fffffffffe00000000
0007fffffffffc00000000
0007fffffffffc00000000
0007fffffffffc00000000
000ffe00003ff800000000
000ffe00003ff800000000
000ffe00003ff800000000
001ffc00007ff000000000
001ffc00007ff000000000
001ffc00007ff000000000
003ff80000ffe000000000
003ff80000ffe000000000
003ff80000ffe000000000
007ff00001ffc000000000
007ff00001ffc000000000
007ff00001ffc000000000
00ffe00003ff8000000000
00ffe00003ff8000000000
00ffe00003ff8000000000
01ffc00007ff0000000000
01ffc00007ff0000000000
01ffc00007ff0000000000
03ff80000ffe0000000000
03ff80000ffe0000000000
0000000000000000000000
0000000000000000000000
0000000000000000000000
0000000000000000000000
0000000000000000000000
0000000000000000000000
0000000000000000000000
0000000000000000000000
0000000000000000000000
0000000000000000000000
0000000000000000000000
0000000000000000000000
0000000000000000000000
0000000000000000000000
0000000000000000000000
0000000000000000000000
0000000000000000000000
0000000000000000000000
0000000000000000000000
0000000000000000000000
ENDCHAR
STARTCHAR U+00C3
ENCODING 195
SWIDTH 1000 0
DWIDTH 50 0
BBX 83 100 -16 -20
BITMAP
00000000003fffc3ff8000
00000000003fffc3ff8000
00000000003fffc3ff8000
00000000007fff87ff0000
00000000007fff87ff0000
00000000007fff87ff0000
0000000000ffff0ffe0000
0000000000ffff0ffe0000
0000000000ffff0ffe0000
0000000001fffe1ffc0000
000000003ff87fff800000
000000003ff87fff800000
000000007ff0ffff000000
000000007ff0ffff000000
000000007ff0ffff000000
00000000ffe1fffe000000
00000000ffe1fffe000000
00000000ffe1fffe000000
00000001ffc3fffc000000
00000001ffc3fffc000000
0000000000dff000000000
0000000000ffe000000000
0000000000ffe000000000
0000000000ffe000000000
0000000001ffc000000000
0000000001ffc000000000
0000000001ffc000000000
0000000003ff8000000000
0000000003ff8000000000
0000000003ff8000000000
00000000fffff800000000
00000000fffff800000000
00000000fffff800000000
00000001fffff000000000
00000001fffff000000000
00000001fffff000000000
00000003ffffe000000000
00000003ffffe000000000
00000003ffffe000000000
00000007ffffc000000000
000000ffe00ffe00000000
000000ffe00ffe00000000
000001ffc01ffc00000000
000001ffc01ffc00000000
000001ffc01ffc00000000
000003ff803ff800000000
000003ff803ff800000000
000003ff803ff800000000
000007ff007ff000000000
000007ff007ff000000000
0000ffffffffff80000000
0001ffffffffff00000000
0001ffffffffff00000000
0001ffffffffff00000000
0003fffffffffe00000000
0003fffffffffe00000000
0003fffffffffe00000000
0007fffffffffc00000000
0007fffffffffc00000000
0007fffffffffc00000000
000ffe00003ff800000000
000ffe00003ff800000000
000ffe00003ff800000000
001ffc00007ff000000000
001ffc00007ff000000000
001ffc00007ff000000000
003ff80000ffe000000000
003ff80000ffe000000000
003ff80000ffe000000000
007ff00001ffc000000000
007ff00001ffc000000000
007ff00001ffc000000000
00ffe00003ff8000000000
00ffe00003ff8000000000
00ffe00003ff8000000000
01ffc00007ff0000000000
01ffc00007ff0000000000
01ffc00007ff0000000000
03ff80000ffe0000000000
03ff80000ffe0000000000
0000000000000000000000
0000000000000000000000
0000000000000000000000
0000000000000000000000
0000000000000000000000
0000000000000000000000
0000000000000000000000
0000000000000000000000
0000000000000000000000
0000000000000000000000
0000000000000000000000
0000000000000000000000
0000000000000000000000
0000000000000000000000
0000000000000000000000
0000000000000000000000
0000000000000000000000
0000000000000000000000
0000000000000000000000
0000000000000000000000
ENDCHAR
STARTCHAR U+00C2
ENCODING 194
SWIDTH 1000 0
DWIDTH 50 0
BBX 83 100 -16 -20
BITMAP
00000000003ffffe000000
00000000003ffffe000000
00000000003ffffe000000
00000000007ffffc000000
00000000007ffffc000000
00000000007ffffc000000
0000000000fffff8000000
0000000000fffff8000000
0000000000fffff8000000
0000000001fffff0000000
000000003ff803ff800000
000000003ff803ff800000
000000007ff007ff000000
000000007ff007ff000000
000000007ff007ff000000
00000000ffe00ffe000000
00000000ffe00ffe000000
00000000ffe00ffe000000
00000001ffc01ffc000000
00000001ffc01ffc000000
0000000000dff000000000
0000000000ffe000000000
0000000000ffe000000000
0000000000ffe000000000
0000000001ffc000000000
0000000001ffc000000000
0000000001ffc000000000
0000000003ff8000000000
0000000003ff8000000000
0000000003ff8000000000
00000000fffff800000000
00000000fffff800000000
00000000fffff800000000
00000001fffff000000000
00000001fffff000000000
00000001fffff000000000
00000003ffffe000000000
00000003ffffe000000000
00000003ffffe000000000
00000007ffffc000000000
000000ffe00ffe00000000
000000ffe00ffe00000000
000001ffc01ffc00000000
000001ffc01ffc00000000
000001ffc01ffc00000000
000003ff803ff800000000
000003ff803ff800000000
000003ff803ff800000000
000007ff007ff000000000
000007ff007ff000000000
0000ffffffffff80000000
0001ffffffffff00000000
0001ffffffffff00000000
0001ffffffffff00000000
0003fffffffffe00000000
0003fffffffffe00000000
0003fffffffffe00000000
0007fffffffffc00000000
0007fffffffffc00000000
0007fffffffffc00000000
000ffe00003ff800000000
000ffe00003ff800000000
000ffe00003ff800000000
001ffc00007ff000000000
001ffc00007ff000000000
001ffc00007ff000000000
003ff80000ffe000000000
003ff80000ffe000000000
003ff80000ffe000000000
007ff00001ffc000000000
007ff00001ffc000000000
007ff00001ffc000000000
00ffe00003ff8000000000
00ffe00003ff8000000000
00ffe00003ff8000000000
01ffc00007ff0000000000
01ffc00007ff0000000000
01ffc00007ff0000000000
03ff80000ffe0000000000
03ff80000ffe0000000000
0000000000000000000000
0000000000000000000000
0000000000000000000000
0000000000000000000000
0000000000000000000000
0000000000000000000000
0000000000000000000000
0000000000000000000000
0000000000000000000000
0000000000000000000000
0000000000000000000000
0000000000000000000000
0000000000000000000000
0000000000000000000000
0000000000000000000000
0000000000000000000000
0000000000000000000000
0000000000000000000000
0000000000000000000000
0000000000000000000000
ENDCHAR
STARTCHAR U+00C1
ENCODING 193
SWIDTH 1000 0
DWIDTH 50 0
BBX 83 100 -16 -20
BITMAP
000000000001fffe000000
000000000001fffe000000
000000000001fffe000000
000000000003fffc000000
000000000003fffc000000
000000000003fffc000000
000000000007fff8000000
000000000007fff8000000
000000000007fff8000000
00000000000ffff0000000
000000003fffc000000000
000000003fffc000000000
000000007fff8000000000
000000007fff8000000000
000000007fff8000000000
00000000ffff0000000000
00000000ffff0000000000
00000000ffff0000000000
00000001fffe0000000000
00000001fffe0000000000
00000000007ff000000000
0000000000ffe000000000
0000000000ffe000000000
0000000000ffe000000000
0000000001ffc000000000
0000000001ffc000000000
0000000001ffc000000000
0000000003ff8000000000
0000000003ff8000000000
0000000003ff8000000000
00000000fffff800000000
00000000fffff800000000
00000000fffff800000000
00000001fffff000000000
00000001fffff000000000
00000001fffff000000000
00000003ffffe000000000
00000003ffffe000000000
00000003ffffe000000000
00000007ffffc000000000
000000ffe00ffe00000000
000000ffe00ffe00000000
000001ffc01ffc00000000
000001ffc01ffc00000000
000001ffc01ffc00000000
000003ff803ff800000000
000003ff803ff800000000
000003ff803ff800000000
000007ff007ff000000000
000007ff007ff000000000
0000ffffffffff80000000
0001ffffffffff00000000
0001ffffffffff00000000
0001ffffffffff00000000
0003fffffffffe00000000
0003fffffffffe00000000
0003fffffffffe00000000
0007fffffffffc00000000
0007fffffffffc00000000
0007fffffffffc00000000
000ffe00003ff800000000
000ffe00003ff800000000
000ffe00003ff800000000
001ffc00007ff000000000
001ffc00007ff000000000
001ffc00007ff000000000
003ff80000ffe000000000
003ff80000ffe000000000
003ff80000ffe000000000
007ff00001ffc000000000
007ff00001ffc000000000
007ff00001ffc000000000
00ffe00003ff8000000000
00ffe00003ff8000000000
00ffe00003ff8000000000
01ffc00007ff0000000000
01ffc00007ff0000000000
01ffc00007ff0000000000
03ff80000ffe0000000000
03ff80000ffe0000000000
0000000000000000000000
0000000000000000000000
0000000000000000000000
0000000000000000000000
0000000000000000000000
0000000000000000000000
0000000000000000000000
0000000000000000000000
0000000000000000000000
0000000000000000000000
0000000000000000000000
0000000000000000000000
0000000000000000000000
0000000000000000000000
0000000000000000000000
0000000000000000000000
0000000000000000000000
0000000000000000000000
0000000000000000000000
0000000000000000000000
ENDCHAR
STARTCHAR U+00C0
ENCODING 192
SWIDTH 1000 0
DWIDTH 50 0
BBX 83 100 -16 -20
BITMAP
00000000003fffc0000000
00000000003fffc0000000
00000000003fffc0000000
00000000007fff80000000
00000000007fff80000000
00000000007fff80000000
0000000000ffff00000000
0000000000ffff00000000
0000000000ffff00000000
0000000001fffe00000000
0000000000007fff800000
0000000000007fff800000
000000000000ffff000000
000000000000ffff000000
000000000000ffff000000
000000000001fffe000000
000000000001fffe000000
000000000001fffe000000
000000000003fffc000000
000000000003fffc000000
00000000007ff000000000
0000000000ffe000000000
0000000000ffe000000000
0000000000ffe000000000
0000000001ffc000000000
0000000001ffc000000000
0000000001ffc000000000
0000000003ff8000000000
0000000003ff8000000000
0000000003ff8000000000
00000000fffff800000000
00000000fffff800000000
00000000fffff800000000
00000001fffff000000000
00000001fffff000000000
00000001fffff000000000
00000003ffffe000000000
00000003ffffe000000000
00000003ffffe000000000
00000007ffffc000000000
000000ffe00ffe00000000
000000ffe00ffe00000000
000001ffc01ffc00000000
000001ffc01ffc00000000
000001ffc01ffc00000000
000003ff803ff800000000
000003ff803ff800000000
000003ff803ff800000000
000007ff007ff000000000
000007ff007ff000000000
0000ffffffffff80000000
0001ffffffffff00000000
0001ffffffffff00000000
0001ffffffffff00000000
0003fffffffffe00000000
0003fffffffffe00000000
0003fffffffffe00000000
0007fffffffffc00000000
0007fffffffffc00000000
0007fffffffffc00000000
000ffe00003ff800000000
000ffe00003ff800000000
000ffe00003ff800000000
001ffc00007ff000000000
001ffc00007ff000000000
001ffc00007ff000000000
003ff80000ffe000000000
003ff80000ffe000000000
003ff80000ffe000000000
007ff00001ffc000000000
007ff00001ffc000000000
007ff00001ffc000000000
00ffe00003ff8000000000
00ffe00003ff8000000000
00ffe00003ff8000000000
01ffc00007ff0000000000
01ffc00007ff0000000000
01ffc00007ff0000000000
03ff80000ffe0000000000
03ff80000ffe0000000000
0000000000000000000000
0000000000000000000000
0000000000000000000000
0000000000000000000000
0000000000000000000000
0000000000000000000000
0000000000000000000000
0000000000000000000000
0000000000000000000000
0000000000000000000000
0000000000000000000000
0000000000000000000000
0000000000000000000000
0000000000000000000000
0000000000000000000000
0000000000000000000000
0000000000000000000000
0000000000000000000000
0000000000000000000000
0000000000000000000000
ENDCHAR
STARTCHAR U+00BF
ENCODING 191
SWIDTH 1000 0
DWIDTH 50 0
BBX 83 100 -16 -20
BITMAP
0000000000000000000000
0000000000000000000000
0000000000000000000000
0000000000000000000000
0000000000000000000000
0000000000000000000000
0000000000000000000000
0000000000000000000000
0000000000000000000000
0000000000000000000000
00000000000ffe00000000
00000000000ffe00000000
00000000001ffc00000000
00000000001ffc00000000
00000000001ffc00000000
00000000003ff800000000
00000000003ff800000000
00000000003ff800000000
00000000007ff000000000
00000000007ff000000000
0000000000000000000000
0000000000000000000000
0000000000000000000000
0000000000000000000000
0000000000000000000000
0000000000000000000000
0000000000000000000000
0000000000000000000000
0000000000000000000000
0000000000000000000000
0000000007ff0000000000
0000000007ff0000000000
0000000007ff0000000000
000000000ffe0000000000
000000000ffe0000000000
000000000ffe0000000000
000000001ffc0000000000
000000001ffc0000000000
000000001ffc0000000000
000000003ff80000000000
000000003ff80000000000
000000003ff80000000000
000000007ff00000000000
000000007ff00000000000
000000007ff00000000000
00000000ffe00000000000
00000000ffe00000000000
00000000ffe00000000000
00000001ffc00000000000
00000001ffc00000000000
000007fff8000000000000
00000ffff0000000000000
00000ffff0000000000000
00000ffff0000000000000
00001fffe0000000000000
00001fffe0000000000000
00001fffe0000000000000
00003fffc0000000000000
00003fffc0000000000000
00003fffc0000000000000
000ffe00003ff800000000
000ffe00003ff800000000
000ffe00003ff800000000
001ffc00007ff000000000
001ffc00007ff000000000
001ffc00007ff000000000
003ff80000ffe000000000
003ff80000ffe000000000
003ff80000ffe000000000
007ff00001ffc000000000
0003fffffff80000000000
0003fffffff80000000000
0007fffffff00000000000
0007fffffff00000000000
0007fffffff00000000000
000fffffffe00000000000
000fffffffe00000000000
000fffffffe00000000000
001fffffffc00000000000
001fffffffc00000000000
0000000000000000000000
0000000000000000000000
0000000000000000000000
0000000000000000000000
0000000000000000000000
0000000000000000000000
0000000000000000000000
0000000000000000000000
0000000000000000000000
0000000000000000000000
0000000000000000000000
0000000000000000000000
0000000000000000000000
0000000000000000000000
0000000000000000000000
0000000000000000000000
0000000000000000000000
0000000000000000000000
0000000000000000000000
0000000000000000000000
ENDCHAR
STARTCHAR U+00BE
ENCODING 190
SWIDTH 1000 0
DWIDTH 50 0
BBX 83 100 -16 -20
BITMAP
00000000ffffffc0000000
00000000ffffffc0000000
00000000ffffffc0000000
00000001ffffff80000000
00000001ffffff80000000
00000001ffffff80000000
00000003ffffff00000000
00000003ffffff00000000
00000003ffffff00000000
00000007fffffe00000000
00000000000ffe00000000
00000000000ffe00000000
00000000001ffc00000000
00000000001ffc00000000
00000000001ffc00000000
00000000003ff800000000
00000000003ff800000000
00000000003ff800000000
00000000007ff000000000
00000000007ff000000000
00000001fffe37fc000000
00000003fffc3ff8000000
00000003fffc3ff8000000
00000003fffc3ff8000000
00000007fff87ff0000000
00000007fff87ff0000000
00000007fff87ff0000000
0000000ffff0ffe0000000
0000000ffff0ffe0000000
0000000ffff0ffe0000000
0000000007fff800000000
0000000007fff800000000
0000000007fff800000000
000000000ffff000000000
000000000ffff000000000
000000000ffff000000000
000000001fffe000000000
000000001fffe000000000
000000001fffe000000000
000000003fffc000000000
00001ffffff80000000000
00001ffffff80000000000
00003ffffff00000000000
00003ffffff00000000000
00003ffffff00000000000
00007fffffe00000000000
00007fffffe00000000000
00007fffffe00000000000
0000ffffffc00000000000
0000ffffffc00000000000
0000003ff8dff000000000
0000007ff0ffe000000000
0000007ff0ffe000000000
0000007ff0ffe000000000
000000ffe1ffc000000000
000000ffe1ffc000000000
000000ffe1ffc000000000
000001ffc3ff8000000000
000001ffc3ff8000000000
000001ffc3ff8000000000
00007ff0ffff0000000000
00007ff0ffff0000000000
00007ff0ffff0000000000
0000ffe1fffe0000000000
0000ffe1fffe0000000000
0000ffe1fffe0000000000
0001ffc3fffc0000000000
0001ffc3fffc0000000000
0001ffc3fffc0000000000
0003ff47fff80000000000
007ff0fffff80000000000
007ff0fffff80000000000
00ffe1fffff00000000000
00ffe1fffff00000000000
00ffe1fffff00000000000
01ffc3ffffe00000000000
01ffc3ffffe00000000000
01ffc3ffffe00000000000
03ff87ffffc00000000000
03ff87ffffc00000000000
0001bffffffe0000000000
0001fffffffc0000000000
0001fffffffc0000000000
0001fffffffc0000000000
0003fffffff80000000000
0003fffffff80000000000
0003fffffff80000000000
0007fffffff00000000000
0007fffffff00000000000
0007fffffff00000000000
0000001ffc000000000000
0000001ffc000000000000
0000001ffc000000000000
0000003ff8000000000000
0000003ff8000000000000
0000003ff8000000000000
0000007ff0000000000000
0000007ff0000000000000
0000007ff0000000000000
000000ffe0000000000000
ENDCHAR
STARTCHAR U+00BD
ENCODING 189
SWIDTH 1000 0
DWIDTH 50 0
BBX 83 100 -16 -20
BITMAP
0000000000000000000000
0000000000000000000000
0000000000000000000000
0000000000000000000000
0000000000000000000000
0000000000000000000000
0000000000000000000000
0000000000000000000000
0000000000000000000000
0000000000000000000000
000000003ff80000000000
000000003ff80000000000
000000007ff00000000000
000000007ff00000000000
000000007ff00000000000
00000000ffe00000000000
00000000ffe00000000000
00000000ffe00000000000
00000001ffc00000000000
00000001ffc00000000000
0000003fffc01ffc000000
0000007fff803ff8000000
0000007fff803ff8000000
0000007fff803ff8000000
000000ffff007ff0000000
000000ffff007ff0000000
000000ffff007ff0000000
000001fffe00ffe0000000
000001fffe00ffe0000000
000001fffe00ffe0000000
0000001ffc3ff800000000
0000001ffc3ff800000000
0000001ffc3ff800000000
0000003ff87ff000000000
0000003ff87ff000000000
0000003ff87ff000000000
0000007ff0ffe000000000
0000007ff0ffe000000000
0000007ff0ffe000000000
000000ffe1ffc000000000
000000fffff80000000000
000000fffff80000000000
000001fffff00000000000
000001fffff00000000000
000001fffff00000000000
000003ffffe00000000000
000003ffffe00000000000
000003ffffe00000000000
000007ffffc00000000000
000007ffffc00000000000
0000003ffffff000000000
0000007fffffe000000000
0000007fffffe000000000
0000007fffffe000000000
000000ffffffc000000000
000000ffffffc000000000
000000ffffffc000000000
000001ffffff8000000000
000001ffffff8000000000
000001ffffff8000000000
00007ffffc3ff800000000
00007ffffc3ff800000000
00007ffffc3ff800000000
0000fffff87ff000000000
0000fffff87ff000000000
0000fffff87ff000000000
0001fffff0ffe000000000
0001fffff0ffe000000000
0001fffff0ffe000000000
0003ffffd1ffc000000000
007ff0003ff80000000000
007ff0003ff80000000000
00ffe0007ff00000000000
00ffe0007ff00000000000
00ffe0007ff00000000000
01ffc000ffe00000000000
01ffc000ffe00000000000
01ffc000ffe00000000000
03ff8001ffc00000000000
03ff8001ffc00000000000
0000003ff8000000000000
0000007ff0000000000000
0000007ff0000000000000
0000007ff0000000000000
000000ffe0000000000000
000000ffe0000000000000
000000ffe0000000000000
000001ffc0000000000000
000001ffc0000000000000
000001ffc0000000000000
00007fffffe00000000000
00007fffffe00000000000
00007fffffe00000000000
0000ffffffc00000000000
0000ffffffc00000000000
0000ffffffc00000000000
0001ffffff800000000000
0001ffffff800000000000
0001ffffff800000000000
0003ffffff000000000000
ENDCHAR
STARTCHAR U+00BC
ENCODING 188
SWIDTH 1000 0
DWIDTH 50 0
BBX 83 100 -16 -20
BITMAP
0000000000000000000000
0000000000000000000000
0000000000000000000000
0000000000000000000000
0000000000000000000000
0000000000000000000000
0000000000000000000000
0000000000000000000000
0000000000000000000000
0000000000000000000000
000000003ff80000000000
000000003ff80000000000
000000007ff00000000000
000000007ff00000000000
000000007ff00000000000
00000000ffe00000000000
00000000ffe00000000000
00000000ffe00000000000
00000001ffc00000000000
00000001ffc00000000000
0000003fffc01ffc000000
0000007fff803ff8000000
0000007fff803ff8000000
0000007fff803ff8000000
000000ffff007ff0000000
000000ffff007ff0000000
000000ffff007ff0000000
000001fffe00ffe0000000
000001fffe00ffe0000000
000001fffe00ffe0000000
0000001ffc3ff800000000
0000001ffc3ff800000000
0000001ffc3ff800000000
0000003ff87ff000000000
0000003ff87ff000000000
0000003ff87ff000000000
0000007ff0ffe000000000
0000007ff0ffe000000000
0000007ff0ffe000000000
000000ffe1ffc000000000
000000fffff80000000000
000000fffff80000000000
000001fffff00000000000
000001fffff00000000000
000001fffff00000000000
000003ffffe00000000000
000003ffffe00000000000
000003ffffe00000000000
000007ffffc00000000000
000007ffffc00000000000
0000003ff8dff000000000
0000007ff0ffe000000000
0000007ff0ffe000000000
0000007ff0ffe000000000
000000ffe1ffc000000000
000000ffe1ffc000000000
000000ffe1ffc000000000
000001ffc3ff8000000000
000001ffc3ff8000000000
000001ffc3ff8000000000
00007ff0ffff0000000000
00007ff0ffff0000000000
00007ff0ffff0000000000
0000ffe1fffe0000000000
0000ffe1fffe0000000000
0000ffe1fffe0000000000
0001ffc3fffc0000000000
0001ffc3fffc0000000000
0001ffc3fffc0000000000
0003ff47fff80000000000
007ff0fffff80000000000
007ff0fffff80000000000
00ffe1fffff00000000000
00ffe1fffff00000000000
00ffe1fffff00000000000
01ffc3ffffe00000000000
01ffc3ffffe00000000000
01ffc3ffffe00000000000
03ff87ffffc00000000000
03ff87ffffc00000000000
0001bffffffe0000000000
0001fffffffc0000000000
0001fffffffc0000000000
0001fffffffc0000000000
0003fffffff80000000000
0003fffffff80000000000
0003fffffff80000000000
0007fffffff00000000000
0007fffffff00000000000
0007fffffff00000000000
0000001ffc000000000000
0000001ffc000000000000
0000001ffc000000000000
0000003ff8000000000000
0000003ff8000000000000
0000003ff8000000000000
0000007ff0000000000000
0000007ff0000000000000
0000007ff0000000000000
000000ffe0000000000000
ENDCHAR
STARTCHAR U+00BB
ENCODING 187
SWIDTH 1000 0
DWIDTH 50 0
BBX 83 100 -16 -20
BITMAP
0000000000000000000000
0000000000000000000000
0000000000000000000000
0000000000000000000000
0000000000000000000000
0000000000000000000000
0000000000000000000000
0000000000000000000000
0000000000000000000000
0000000000000000000000
00000007ff0ffe00000000
00000007ff0ffe00000000
0000000ffe1ffc00000000
0000000ffe1ffc00000000
0000000ffe1ffc00000000
0000001ffc3ff800000000
0000001ffc3ff800000000
0000001ffc3ff800000000
0000003ff87ff000000000
0000003ff87ff000000000
00000001ffc3ff80000000
00000003ff87ff00000000
00000003ff87ff00000000
00000003ff87ff00000000
00000007ff0ffe00000000
00000007ff0ffe00000000
00000007ff0ffe00000000
0000000ffe1ffc00000000
0000000ffe1ffc00000000
0000000ffe3ffc00000000
00000000ffe1ffc0000000
00000000ffe1ffc0000000
00000000ffe1ffc0000000
00000001ffc3ff80000000
00000001ffc3ff80000000
00000001ffc3ff80000000
00000003ff87ff00000000
00000003ff87ff00000000
00000003ff8dff00000000
00000007ff0ffe00000000
000000003ff87ff0000000
000000003ff87ff0000000
000000007ff0ffe0000000
000000007ff0ffe0000000
000000007ff0ffe0000000
00000000ffe1ffc0000000
00000000ffe1ffc0000000
00000000ffe1ffc0000000
00000001ffc3ff80000000
00000001ffc3ff80000000
0000003ff8dff000000000
0000007ff0ffe000000000
0000007ff0ffe000000000
0000007ff0ffe000000000
000000ffe1ffc000000000
000000ffe1ffc000000000
000000ffe1ffc000000000
000001ffc3ff8000000000
000001ffc3ff8000000000
000001ffc3ff8000000000
00007ff0ffe00000000000
00007ff0ffe00000000000
00007ff0ffe00000000000
0000ffe1ffc00000000000
0000ffe1ffc00000000000
0000ffe1ffc00000000000
0001ffc3ff800000000000
0001ffc3ff800000000000
0001ffc3ff800000000000
0003ff47ff000000000000
007ff0ffe0000000000000
007ff0ffe0000000000000
00ffe1ffc0000000000000
00ffe1ffc0000000000000
00ffe1ffc0000000000000
01ffc3ff80000000000000
01ffc3ff80000000000000
01ffc3ff80000000000000
03ff87ff00000000000000
03ff87ff00000000000000
0000000000000000000000
0000000000000000000000
0000000000000000000000
0000000000000000000000
0000000000000000000000
0000000000000000000000
0000000000000000000000
0000000000000000000000
0000000000000000000000
0000000000000000000000
0000000000000000000000
0000000000000000000000
0000000000000000000000
0000000000000000000000
0000000000000000000000
0000000000000000000000
0000000000000000000000
0000000000000000000000
0000000000000000000000
0000000000000000000000
ENDCHAR
STARTCHAR U+00BA
ENCODING 186
SWIDTH 1000 0
DWIDTH 50 0
BBX 83 100 -16 -20
BITMAP
0000000000000000000000
0000000000000000000000
0000000000000000000000
0000000000000000000000
0000000000000000000000
0000000000000000000000
0000000000000000000000
0000000000000000000000
0000000000000000000000
0000000000000000000000
000000003fffffff800000
000000003fffffff800000
000000007fffffff000000
000000007fffffff000000
000000007fffffff000000
00000000fffffffe000000
00000000fffffffe000000
00000000fffffffe000000
00000001fffffffc000000
00000001fffffffc000000
0000003ff80000ffe00000
0000007ff00001ffc00000
0000007ff00001ffc00000
0000007ff00001ffc00000
000000ffe00003ff800000
000000ffe00003ff800000
000000ffe00003ff800000
000001ffc00007ff000000
000001ffc00007ff000000
000001ffc00007ff000000
000003ff80000ffe000000
000003ff80000ffe000000
000003ff80000ffe000000
000007ff00001ffc000000
000007ff00001ffc000000
000007ff00001ffc000000
00000ffe00003ff8000000
00000ffe00003ff8000000
00000ffe00003ff8000000
00001ffc00007ff0000000
00001ffc00007ff0000000
00001ffc00007ff0000000
00003ff80000ffe0000000
00003ff80000ffe0000000
00003ff80000ffe0000000
00007ff00001ffc0000000
00007ff00001ffc0000000
00007ff00001ffc0000000
0000ffe00003ff80000000
0000ffe00003ff80000000
000007fffffff000000000
00000fffffffe000000000
00000fffffffe000000000
00000fffffffe000000000
00001fffffffc000000000
00001fffffffc000000000
00001fffffffc000000000
00003fffffff8000000000
00003fffffff8000000000
00003fffffff8000000000
0000000000000000000000
0000000000000000000000
0000000000000000000000
0000000000000000000000
0000000000000000000000
0000000000000000000000
0000000000000000000000
0000000000000000000000
0000000000000000000000
0000000000000000000000
007fffffffffc000000000
007fffffffffc000000000
00ffffffffff8000000000
00ffffffffff8000000000
00ffffffffff8000000000
01ffffffffff0000000000
01ffffffffff0000000000
01ffffffffff0000000000
03fffffffffe0000000000
03fffffffffe0000000000
0000000000000000000000
0000000000000000000000
0000000000000000000000
0000000000000000000000
0000000000000000000000
0000000000000000000000
0000000000000000000000
0000000000000000000000
0000000000000000000000
0000000000000000000000
0000000000000000000000
0000000000000000000000
0000000000000000000000
0000000000000000000000
0000000000000000000000
0000000000000000000000
0000000000000000000000
0000000000000000000000
0000000000000000000000
0000000000000000000000
ENDCHAR
STARTCHAR U+00B9
ENCODING 185
SWIDTH 1000 0
DWIDTH 50 0
BBX 83 100 -16 -20
BITMAP
000000000001ffc0000000
000000000001ffc0000000
000000000001ffc0000000
000000000003ff80000000
000000000003ff80000000
000000000003ff80000000
000000000007ff00000000
000000000007ff00000000
000000000007ff00000000
00000000000ffe00000000
0000000001fffe00000000
0000000001fffe00000000
0000000003fffc00000000
0000000003fffc00000000
0000000003fffc00000000
0000000007fff800000000
0000000007fff800000000
0000000007fff800000000
000000000ffff000000000
000000000ffff000000000
00000000007ff000000000
0000000000ffe000000000
0000000000ffe000000000
0000000000ffe000000000
0000000001ffc000000000
0000000001ffc000000000
0000000001ffc000000000
0000000003ff8000000000
0000000003ff8000000000
0000000003ff8000000000
0000000007ff0000000000
0000000007ff0000000000
0000000007ff0000000000
000000000ffe0000000000
000000000ffe0000000000
000000000ffe0000000000
000000001ffc0000000000
000000001ffc0000000000
000000001ffc0000000000
000000003ff80000000000
00000007ffffc000000000
00000007ffffc000000000
0000000fffff8000000000
0000000fffff8000000000
0000000fffff8000000000
0000001fffff0000000000
0000001fffff0000000000
0000001fffff0000000000
0000003ffffe0000000000
0000003ffffe0000000000
0000000000000000000000
0000000000000000000000
0000000000000000000000
0000000000000000000000
0000000000000000000000
0000000000000000000000
0000000000000000000000
0000000000000000000000
0000000000000000000000
0000000000000000000000
0000000000000000000000
0000000000000000000000
0000000000000000000000
0000000000000000000000
0000000000000000000000
0000000000000000000000
0000000000000000000000
0000000000000000000000
0000000000000000000000
0000000000000000000000
0000000000000000000000
0000000000000000000000
0000000000000000000000
0000000000000000000000
0000000000000000000000
0000000000000000000000
0000000000000000000000
0000000000000000000000
0000000000000000000000
0000000000000000000000
0000000000000000000000
0000000000000000000000
0000000000000000000000
0000000000000000000000
0000000000000000000000
0000000000000000000000
0000000000000000000000
0000000000000000000000
0000000000000000000000
0000000000000000000000
0000000000000000000000
0000000000000000000000
0000000000000000000000
0000000000000000000000
0000000000000000000000
0000000000000000000000
0000000000000000000000
0000000000000000000000
0000000000000000000000
0000000000000000000000
ENDCHAR
STARTCHAR U+00B8
ENCODING 184
SWIDTH 1000 0
DWIDTH 50 0
BBX 83 100 -16 -20
BITMAP
0000000000000000000000
0000000000000000000000
0000000000000000000000
0000000000000000000000
0000000000000000000000
0000000000000000000000
0000000000000000000000
0000000000000000000000
0000000000000000000000
0000000000000000000000
0000000000000000000000
0000000000000000000000
0000000000000000000000
0000000000000000000000
0000000000000000000000
0000000000000000000000
0000000000000000000000
0000000000000000000000
0000000000000000000000
0000000000000000000000
0000000000000000000000
0000000000000000000000
0000000000000000000000
0000000000000000000000
0000000000000000000000
0000000000000000000000
0000000000000000000000
0000000000000000000000
0000000000000000000000
0000000000000000000000
0000000000000000000000
0000000000000000000000
0000000000000000000000
0000000000000000000000
0000000000000000000000
0000000000000000000000
0000000000000000000000
0000000000000000000000
0000000000000000000000
0000000000000000000000
0000000000000000000000
0000000000000000000000
0000000000000000000000
0000000000000000000000
0000000000000000000000
0000000000000000000000
0000000000000000000000
0000000000000000000000
0000000000000000000000
0000000000000000000000
0000000000000000000000
0000000000000000000000
0000000000000000000000
0000000000000000000000
0000000000000000000000
0000000000000000000000
0000000000000000000000
0000000000000000000000
0000000000000000000000
0000000000000000000000
0000000000000000000000
0000000000000000000000
0000000000000000000000
0000000000000000000000
0000000000000000000000
0000000000000000000000
0000000000000000000000
0000000000000000000000
0000000000000000000000
0000000000000000000000
0000000000000000000000
0000000000000000000000
0000000000000000000000
0000000000000000000000
0000000000000000000000
0000000000000000000000
0000000000000000000000
0000000000000000000000
0000000000000000000000
0000000000000000000000
0000003ff8000000000000
0000007ff0000000000000
0000007ff0000000000000
0000007ff0000000000000
000000ffe0000000000000
000000ffe0000000000000
000000ffe0000000000000
000001ffc0000000000000
000001ffc0000000000000
000001ffc0000000000000
000fffff80000000000000
000fffff80000000000000
000fffff80000000000000
001fffff00000000000000
001fffff00000000000000
001fffff00000000000000
003ffffe00000000000000
003ffffe00000000000000
003ffffe00000000000000
007ffffc00000000000000
ENDCHAR
STARTCHAR U+2022
ENCODING 8226
SWIDTH 1000 0
DWIDTH 50 0
BBX 83 100 -16 -20
BITMAP
0000000000000000000000
0000000000000000000000
0000000000000000000000
0000000000000000000000
0000000000000000000000
0000000000000000000000
0000000000000000000000
0000000000000000000000
0000000000000000000000
0000000000000000000000
0000000000000000000000
0000000000000000000000
0000000000000000000000
0000000000000000000000
0000000000000000000000
0000000000000000000000
0000000000000000000000
0000000000000000000000
0000000000000000000000
0000000000000000000000
0000000000000000000000
0000000000000000000000
0000000000000000000000
0000000000000000000000
0000000000000000000000
0000000000000000000000
0000000000000000000000
0000000000000000000000
0000000000000000000000
0000000000000000000000
00000000ffff0000000000
00000000ffff0000000000
00000000ffff0000000000
00000001fffe0000000000
00000001fffe0000000000
00000001fffe0000000000
00000003fffc0000000000
00000003fffc0000000000
00000003fffc0000000000
00000007fff80000000000
00000007fff80000000000
00000007fff80000000000
0000000ffff00000000000
0000000ffff00000000000
0000000ffff00000000000
0000001fffe00000000000
0000001fffe00000000000
0000001fffe00000000000
0000003fffc00000000000
0000003fffc00000000000
0000000000000000000000
0000000000000000000000
0000000000000000000000
0000000000000000000000
0000000000000000000000
0000000000000000000000
0000000000000000000000
0000000000000000000000
0000000000000000000000
0000000000000000000000
0000000000000000000000
0000000000000000000000
0000000000000000000000
0000000000000000000000
0000000000000000000000
0000000000000000000000
0000000000000000000000
0000000000000000000000
0000000000000000000000
0000000000000000000000
0000000000000000000000
0000000000000000000000
0000000000000000000000
0000000000000000000000
0000000000000000000000
0000000000000000000000
0000000000000000000000
0000000000000000000000
0000000000000000000000
0000000000000000000000
0000000000000000000000
0000000000000000000000
0000000000000000000000
0000000000000000000000
0000000000000000000000
0000000000000000000000
0000000000000000000000
0000000000000000000000
0000000000000000000000
0000000000000000000000
0000000000000000000000
0000000000000000000000
0000000000000000000000
0000000000000000000000
0000000000000000000000
0000000000000000000000
0000000000000000000000
0000000000000000000000
0000000000000000000000
0000000000000000000000
ENDCHAR
STARTCHAR U+00B6
ENCODING 182
SWIDTH 1000 0
DWIDTH 50 0
BBX 83 100 -16 -20
BITMAP
0000000000000000000000
0000000000000000000000
0000000000000000000000
0000000000000000000000
0000000000000000000000
0000000000000000000000
0000000000000000000000
0000000000000000000000
0000000000000000000000
0000000000000000000000
000000003ffffffffc0000
000000003ffffffffc0000
000000007ffffffff80000
000000007ffffffff80000
000000007ffffffff80000
00000000fffffffff00000
00000000fffffffff00000
00000000fffffffff00000
00000001ffffffffe00000
00000001ffffffffe00000
0000003fffc3ffffe00000
0000007fff87ffffc00000
0000007fff87ffffc00000
0000007fff87ffffc00000
000000ffff0fffff800000
000000ffff0fffff800000
000000ffff0fffff800000
000001fffe1fffff000000
000001fffe1fffff000000
000001fffe1fffff000000
000003fffc3ffffe000000
000003fffc3ffffe000000
000003fffc3ffffe000000
000007fff87ffffc000000
000007fff87ffffc000000
000007fff87ffffc000000
00000ffff0fffff8000000
00000ffff0fffff8000000
00000ffff0fffff8000000
00001fffe1fffff0000000
000000fffffffff0000000
000000fffffffff0000000
000001ffffffffe0000000
000001ffffffffe0000000
000001ffffffffe0000000
000003ffffffffc0000000
000003ffffffffc0000000
000003ffffffffc0000000
000007ffffffff80000000
000007ffffffff80000000
000000000fffff80000000
000000001fffff00000000
000000001fffff00000000
000000001fffff00000000
000000003ffffe00000000
000000003ffffe00000000
000000003ffffe00000000
000000007ffffc00000000
000000007ffffc00000000
000000007ffffc00000000
00000000fffff800000000
00000000fffff800000000
00000000fffff800000000
00000001fffff000000000
00000001fffff000000000
00000001fffff000000000
00000003ffffe000000000
00000003ffffe000000000
00000003ffffe000000000
00000007ffffc000000000
00000007ffffc000000000
00000007ffffc000000000
0000000fffff8000000000
0000000fffff8000000000
0000000fffff8000000000
0000001fffff0000000000
0000001fffff0000000000
0000001fffff0000000000
0000003ffffe0000000000
0000003ffffe0000000000
0000000000000000000000
0000000000000000000000
0000000000000000000000
0000000000000000000000
0000000000000000000000
0000000000000000000000
0000000000000000000000
0000000000000000000000
0000000000000000000000
0000000000000000000000
0000000000000000000000
0000000000000000000000
0000000000000000000000
0000000000000000000000
0000000000000000000000
0000000000000000000000
0000000000000000000000
0000000000000000000000
0000000000000000000000
0000000000000000000000
ENDCHAR
STARTCHAR U+00B5
ENCODING 181
SWIDTH 1000 0
DWIDTH 50 0
BBX 83 100 -16 -20
BITMAP
0000000000000000000000
0000000000000000000000
0000000000000000000000
0000000000000000000000
0000000000000000000000
0000000000000000000000
0000000000000000000000
0000000000000000000000
0000000000000000000000
0000000000000000000000
0000000000000000000000
0000000000000000000000
0000000000000000000000
0000000000000000000000
0000000000000000000000
0000000000000000000000
0000000000000000000000
0000000000000000000000
0000000000000000000000
0000000000000000000000
0000000000000000000000
0000000000000000000000
0000000000000000000000
0000000000000000000000
0000000000000000000000
0000000000000000000000
0000000000000000000000
0000000000000000000000
0000000000000000000000
0000000000000000000000
0000001ffc000ffe000000
0000001ffc000ffe000000
0000001ffc000ffe000000
0000003ff8001ffc000000
0000003ff8001ffc000000
0000003ff8001ffc000000
0000007ff0003ff8000000
0000007ff0003ff8000000
0000007ff0003ff8000000
000000ffe0007ff0000000
000000ffe0007ff0000000
000000ffe0007ff0000000
000001ffc000ffe0000000
000001ffc000ffe0000000
000001ffc000ffe0000000
000003ff8001ffc0000000
000003ff8001ffc0000000
000003ff8001ffc0000000
000007ff0003ff80000000
000007ff0003ff80000000
000007ff0003ff80000000
00000ffe0007ff00000000
00000ffe0007ff00000000
00000ffe0007ff00000000
00001ffc000ffe00000000
00001ffc000ffe00000000
00001ffc000ffe00000000
00003ff8001ffc00000000
00003ff8001ffc00000000
00003ff8001ffc00000000
00007fff87fff800000000
00007fff87fff800000000
00007fff87fff800000000
0000ffff0ffff000000000
0000ffff0ffff000000000
0000ffff0ffff000000000
0001fffe1fffe000000000
0001fffe1fffe000000000
0001fffe1fffe000000000
0003fffc3fffc000000000
0003ffffffffc000000000
0003ffffffffc000000000
0007ffffffff8000000000
0007ffffffff8000000000
0007ffffffff8000000000
000fffffffff0000000000
000fffffffff0000000000
000fffffffff0000000000
001ffffffffe0000000000
001ffffffffe0000000000
001ffc0000000000000000
003ff80000000000000000
003ff80000000000000000
003ff80000000000000000
007ff00000000000000000
007ff00000000000000000
007ff00000000000000000
00ffe00000000000000000
00ffe00000000000000000
00ffe00000000000000000
3ff8000000000000000000
3ff8000000000000000000
3ff8000000000000000000
7ff0000000000000000000
7ff0000000000000000000
7ff0000000000000000000
ffe0000000000000000000
ffe0000000000000000000
ffe0000000000000000000
ffc0000000000000000000
ENDCHAR
STARTCHAR U+00B4
ENCODING 180
SWIDTH 1000 0
DWIDTH 50 0
BBX 83 100 -16 -20
BITMAP
0000000000000000000000
0000000000000000000000
0000000000000000000000
0000000000000000000000
0000000000000000000000
0000000000000000000000
0000000000000000000000
0000000000000000000000
0000000000000000000000
0000000000000000000000
0000000000007fff800000
0000000000007fff800000
000000000000ffff000000
000000000000ffff000000
000000000000ffff000000
000000000001fffe000000
000000000001fffe000000
000000000001fffe000000
000000000003fffc000000
000000000003fffc000000
000000000003ff80000000
000000000007ff00000000
000000000007ff00000000
000000000007ff00000000
00000000000ffe00000000
00000000000ffe00000000
00000000000ffe00000000
00000000001ffc00000000
00000000001ffc00000000
00000000001ffc00000000
0000000007ff0000000000
0000000007ff0000000000
0000000007ff0000000000
000000000ffe0000000000
000000000ffe0000000000
000000000ffe0000000000
000000001ffc0000000000
000000001ffc0000000000
000000001ffc0000000000
000000003ff80000000000
0000000000000000000000
0000000000000000000000
0000000000000000000000
0000000000000000000000
0000000000000000000000
0000000000000000000000
0000000000000000000000
0000000000000000000000
0000000000000000000000
0000000000000000000000
0000000000000000000000
0000000000000000000000
0000000000000000000000
0000000000000000000000
0000000000000000000000
0000000000000000000000
0000000000000000000000
0000000000000000000000
0000000000000000000000
0000000000000000000000
0000000000000000000000
0000000000000000000000
0000000000000000000000
0000000000000000000000
0000000000000000000000
0000000000000000000000
0000000000000000000000
0000000000000000000000
0000000000000000000000
0000000000000000000000
0000000000000000000000
0000000000000000000000
0000000000000000000000
0000000000000000000000
0000000000000000000000
0000000000000000000000
0000000000000000000000
0000000000000000000000
0000000000000000000000
0000000000000000000000
0000000000000000000000
0000000000000000000000
0000000000000000000000
0000000000000000000000
0000000000000000000000
0000000000000000000000
0000000000000000000000
0000000000000000000000
0000000000000000000000
0000000000000000000000
0000000000000000000000
0000000000000000000000
0000000000000000000000
0000000000000000000000
0000000000000000000000
0000000000000000000000
0000000000000000000000
0000000000000000000000
0000000000000000000000
0000000000000000000000
ENDCHAR
STARTCHAR U+00B3
ENCODING 179
SWIDTH 1000 0
DWIDTH 50 0
BBX 83 100 -16 -20
BITMAP
0000000007fffffff00000
0000000007fffffff00000
0000000007fffffff00000
000000000fffffffe00000
000000000fffffffe00000
000000000fffffffe00000
000000001fffffffc00000
000000001fffffffc00000
000000001fffffffc00000
000000003fffffff800000
00000000000003ff800000
00000000000003ff800000
00000000000007ff000000
00000000000007ff000000
00000000000007ff000000
0000000000000ffe000000
0000000000000ffe000000
0000000000000ffe000000
0000000000001ffc000000
0000000000001ffc000000
00000000007fff80000000
0000000000ffff00000000
0000000000ffff00000000
0000000000ffff00000000
0000000001fffe00000000
0000000001fffe00000000
0000000001fffe00000000
0000000003fffc00000000
0000000003fffc00000000
0000000003fffc00000000
000000000001ffc0000000
000000000001ffc0000000
000000000001ffc0000000
000000000003ff80000000
000000000003ff80000000
000000000003ff80000000
000000000007ff00000000
000000000007ff00000000
000000000007ff00000000
00000000000ffe00000000
000000ffffffc000000000
000000ffffffc000000000
000001ffffff8000000000
000001ffffff8000000000
000001ffffff8000000000
000003ffffff0000000000
000003ffffff0000000000
000003ffffff0000000000
000007fffffe0000000000
000007fffffe0000000000
0000000000000000000000
0000000000000000000000
0000000000000000000000
0000000000000000000000
0000000000000000000000
0000000000000000000000
0000000000000000000000
0000000000000000000000
0000000000000000000000
0000000000000000000000
0000000000000000000000
0000000000000000000000
0000000000000000000000
0000000000000000000000
0000000000000000000000
0000000000000000000000
0000000000000000000000
0000000000000000000000
0000000000000000000000
0000000000000000000000
0000000000000000000000
0000000000000000000000
0000000000000000000000
0000000000000000000000
0000000000000000000000
0000000000000000000000
0000000000000000000000
0000000000000000000000
0000000000000000000000
0000000000000000000000
0000000000000000000000
0000000000000000000000
0000000000000000000000
0000000000000000000000
0000000000000000000000
0000000000000000000000
0000000000000000000000
0000000000000000000000
0000000000000000000000
0000000000000000000000
0000000000000000000000
0000000000000000000000
0000000000000000000000
0000000000000000000000
0000000000000000000000
0000000000000000000000
0000000000000000000000
0000000000000000000000
0000000000000000000000
0000000000000000000000
ENDCHAR
STARTCHAR U+00B2
ENCODING 178
SWIDTH 1000 0
DWIDTH 50 0
BBX 83 100 -16 -20
BITMAP
00000000003ffffe000000
00000000003ffffe000000
00000000003ffffe000000
00000000007ffffc000000
00000000007ffffc000000
00000000007ffffc000000
0000000000fffff8000000
0000000000fffff8000000
0000000000fffff8000000
0000000001fffff0000000
000000003ff803ff800000
000000003ff803ff800000
000000007ff007ff000000
000000007ff007ff000000
000000007ff007ff000000
00000000ffe00ffe000000
00000000ffe00ffe000000
00000000ffe00ffe000000
00000001ffc01ffc000000
00000001ffc01ffc000000
0000000000dfff80000000
0000000000ffff00000000
0000000000ffff00000000
0000000000ffff00000000
0000000001fffe00000000
0000000001fffe00000000
0000000001fffe00000000
0000000003fffc00000000
0000000003fffc00000000
0000000003fffc00000000
00000000ffe00000000000
00000000ffe00000000000
00000000ffe00000000000
00000001ffc00000000000
00000001ffc00000000000
00000001ffc00000000000
00000003ff800000000000
00000003ff800000000000
00000003ff800000000000
00000007ff000000000000
000000fffffffe00000000
000000fffffffe00000000
000001fffffffc00000000
000001fffffffc00000000
000001fffffffc00000000
000003fffffff800000000
000003fffffff800000000
000003fffffff800000000
000007fffffff000000000
000007fffffff000000000
0000000000000000000000
0000000000000000000000
0000000000000000000000
0000000000000000000000
0000000000000000000000
0000000000000000000000
0000000000000000000000
0000000000000000000000
0000000000000000000000
0000000000000000000000
0000000000000000000000
0000000000000000000000
0000000000000000000000
0000000000000000000000
0000000000000000000000
0000000000000000000000
0000000000000000000000
0000000000000000000000
0000000000000000000000
0000000000000000000000
0000000000000000000000
0000000000000000000000
0000000000000000000000
0000000000000000000000
0000000000000000000000
0000000000000000000000
0000000000000000000000
0000000000000000000000
0000000000000000000000
0000000000000000000000
0000000000000000000000
0000000000000000000000
0000000000000000000000
0000000000000000000000
0000000000000000000000
0000000000000000000000
0000000000000000000000
0000000000000000000000
0000000000000000000000
0000000000000000000000
0000000000000000000000
0000000000000000000000
0000000000000000000000
0000000000000000000000
0000000000000000000000
0000000000000000000000
0000000000000000000000
0000000000000000000000
0000000000000000000000
0000000000000000000000
ENDCHAR
STARTCHAR U+00AF
ENCODING 175
SWIDTH 1000 0
DWIDTH 50 0
BBX 83 100 -16 -20
BITMAP
0000000007fffffff00000
0000000007fffffff00000
0000000007fffffff00000
000000000fffffffe00000
000000000fffffffe00000
000000000fffffffe00000
000000001fffffffc00000
000000001fffffffc00000
000000001fffffffc00000
000000003fffffff800000
0000000000000000000000
0000000000000000000000
0000000000000000000000
0000000000000000000000
0000000000000000000000
0000000000000000000000
0000000000000000000000
0000000000000000000000
0000000000000000000000
0000000000000000000000
0000000000000000000000
0000000000000000000000
0000000000000000000000
0000000000000000000000
0000000000000000000000
0000000000000000000000
0000000000000000000000
0000000000000000000000
0000000000000000000000
0000000000000000000000
0000000000000000000000
0000000000000000000000
0000000000000000000000
0000000000000000000000
0000000000000000000000
0000000000000000000000
0000000000000000000000
0000000000000000000000
0000000000000000000000
0000000000000000000000
0000000000000000000000
0000000000000000000000
0000000000000000000000
0000000000000000000000
0000000000000000000000
0000000000000000000000
0000000000000000000000
0000000000000000000000
0000000000000000000000
0000000000000000000000
0000000000000000000000
0000000000000000000000
0000000000000000000000
0000000000000000000000
0000000000000000000000
0000000000000000000000
0000000000000000000000
0000000000000000000000
0000000000000000000000
0000000000000000000000
0000000000000000000000
0000000000000000000000
0000000000000000000000
0000000000000000000000
0000000000000000000000
0000000000000000000000
0000000000000000000000
0000000000000000000000
0000000000000000000000
0000000000000000000000
0000000000000000000000
0000000000000000000000
0000000000000000000000
0000000000000000000000
0000000000000000000000
0000000000000000000000
0000000000000000000000
0000000000000000000000
0000000000000000000000
0000000000000000000000
0000000000000000000000
0000000000000000000000
0000000000000000000000
0000000000000000000000
0000000000000000000000
0000000000000000000000
0000000000000000000000
0000000000000000000000
0000000000000000000000
0000000000000000000000
0000000000000000000000
0000000000000000000000
0000000000000000000000
0000000000000000000000
0000000000000000000000
0000000000000000000000
0000000000000000000000
0000000000000000000000
0000000000000000000000
0000000000000000000000
ENDCHAR
STARTCHAR U+00AE
ENCODING 174
SWIDTH 1000 0
DWIDTH 50 0
BBX 83 100 -16 -20
BITMAP
0000000000000000000000
0000000000000000000000
0000000000000000000000
0000000000000000000000
0000000000000000000000
0000000000000000000000
0000000000000000000000
0000000000000000000000
0000000000000000000000
0000000000000000000000
0000000001fffff0000000
0000000001fffff0000000
0000000003ffffe0000000
0000000003ffffe0000000
0000000003ffffe0000000
0000000007ffffc0000000
0000000007ffffc0000000
0000000007ffffc0000000
000000000fffff80000000
000000000fffff80000000
00000001ffc01ffc000000
00000003ff803ff8000000
00000003ff803ff8000000
00000003ff803ff8000000
00000007ff007ff0000000
00000007ff007ff0000000
00000007ff007ff0000000
0000000ffe00ffe0000000
0000000ffe00ffe0000000
0000000ffe00ffe0000000
000003fffffffffe000000
000003fffffffffe000000
000003fffffffffe000000
000007fffffffffc000000
000007fffffffffc000000
000007fffffffffc000000
00000ffffffffff8000000
00000ffffffffff8000000
00000ffffffffff8000000
00001ffffffffff0000000
00001fffff0ffff0000000
00001fffff0ffff0000000
00003ffffe1fffe0000000
00003ffffe1fffe0000000
00003ffffe1fffe0000000
00007ffffc3fffc0000000
00007ffffc3fffc0000000
00007ffffc3fffc0000000
0000fffff87fff80000000
0000fffff87fff80000000
0000ffffffffff80000000
0001ffffffffff00000000
0001ffffffffff00000000
0001ffffffffff00000000
0003fffffffffe00000000
0003fffffffffe00000000
0003fffffffffe00000000
0007fffffffffc00000000
0007fffffffffc00000000
0007fffffffffc00000000
000ffffffc3ff800000000
000ffffffc3ff800000000
000ffffffc3ff800000000
001ffffff87ff000000000
001ffffff87ff000000000
001ffffff87ff000000000
003ffffff0ffe000000000
003ffffff0ffe000000000
003ffffff0ffe000000000
007fffffe1ffc000000000
0003fffffff80000000000
0003fffffff80000000000
0007fffffff00000000000
0007fffffff00000000000
0007fffffff00000000000
000fffffffe00000000000
000fffffffe00000000000
000fffffffe00000000000
001fffffffc00000000000
001fffffffc00000000000
0000fffff8000000000000
0001fffff0000000000000
0001fffff0000000000000
0001fffff0000000000000
0003ffffe0000000000000
0003ffffe0000000000000
0003ffffe0000000000000
0007ffffc0000000000000
0007ffffc0000000000000
0007ffffc0000000000000
0000000000000000000000
0000000000000000000000
0000000000000000000000
0000000000000000000000
0000000000000000000000
0000000000000000000000
0000000000000000000000
0000000000000000000000
0000000000000000000000
0000000000000000000000
ENDCHAR
STARTCHAR U+00D7
ENCODING 215
SWIDTH 1000 0
DWIDTH 50 0
BBX 83 100 -16 -20
BITMAP
0000000000000000000000
0000000000000000000000
0000000000000000000000
0000000000000000000000
0000000000000000000000
0000000000000000000000
0000000000000000000000
0000000000000000000000
0000000000000000000000
0000000000000000000000
0000000000000000000000
0000000000000000000000
0000000000000000000000
0000000000000000000000
0000000000000000000000
0000000000000000000000
0000000000000000000000
0000000000000000000000
0000000000000000000000
0000000000000000000000
00000001ffc01ffc000000
00000003ff803ff8000000
00000003ff803ff8000000
00000003ff803ff8000000
00000007ff007ff0000000
00000007ff007ff0000000
00000007ff007ff0000000
0000000ffe00ffe0000000
0000000ffe00ffe0000000
0000000ffe00ffe0000000
00000000fffff800000000
00000000fffff800000000
00000000fffff800000000
00000001fffff000000000
00000001fffff000000000
00000001fffff000000000
00000003ffffe000000000
00000003ffffe000000000
00000003ffffe000000000
00000007ffffc000000000
000000003ff80000000000
000000003ff80000000000
000000007ff00000000000
000000007ff00000000000
000000007ff00000000000
00000000ffe00000000000
00000000ffe00000000000
00000000ffe00000000000
00000001ffc00000000000
00000001ffc00000000000
0000003ffffe0000000000
0000007ffffc0000000000
0000007ffffc0000000000
0000007ffffc0000000000
000000fffff80000000000
000000fffff80000000000
000000fffff80000000000
000001fffff00000000000
000001fffff00000000000
000001fffff00000000000
00007ff007ff0000000000
00007ff007ff0000000000
00007ff007ff0000000000
0000ffe00ffe0000000000
0000ffe00ffe0000000000
0000ffe00ffe0000000000
0001ffc01ffc0000000000
0001ffc01ffc0000000000
0001ffc01ffc0000000000
0003ff803ff80000000000
0000000000000000000000
0000000000000000000000
0000000000000000000000
0000000000000000000000
0000000000000000000000
0000000000000000000000
0000000000000000000000
0000000000000000000000
0000000000000000000000
0000000000000000000000
0000000000000000000000
0000000000000000000000
0000000000000000000000
0000000000000000000000
0000000000000000000000
0000000000000000000000
0000000000000000000000
0000000000000000000000
0000000000000000000000
0000000000000000000000
0000000000000000000000
0000000000000000000000
0000000000000000000000
0000000000000000000000
0000000000000000000000
0000000000000000000000
0000000000000000000000
0000000000000000000000
0000000000000000000000
0000000000000000000000
ENDCHAR
STARTCHAR U+00AC
ENCODING 172
SWIDTH 1000 0
DWIDTH 50 0
BBX 83 100 -16 -20
BITMAP
0000000000000000000000
0000000000000000000000
0000000000000000000000
0000000000000000000000
0000000000000000000000
0000000000000000000000
0000000000000000000000
0000000000000000000000
0000000000000000000000
0000000000000000000000
0000000000000000000000
0000000000000000000000
0000000000000000000000
0000000000000000000000
0000000000000000000000
0000000000000000000000
0000000000000000000000
0000000000000000000000
0000000000000000000000
0000000000000000000000
0000000000000000000000
0000000000000000000000
0000000000000000000000
0000000000000000000000
0000000000000000000000
0000000000000000000000
0000000000000000000000
0000000000000000000000
0000000000000000000000
0000000000000000000000
0000000000000000000000
0000000000000000000000
0000000000000000000000
0000000000000000000000
0000000000000000000000
0000000000000000000000
0000000000000000000000
0000000000000000000000
0000000000000000000000
0000000000000000000000
0000000000000000000000
0000000000000000000000
0000000000000000000000
0000000000000000000000
0000000000000000000000
0000000000000000000000
0000000000000000000000
0000000000000000000000
0000000000000000000000
0000000000000000000000
0000ffffffffff80000000
0001ffffffffff00000000
0001ffffffffff00000000
0001ffffffffff00000000
0003fffffffffe00000000
0003fffffffffe00000000
0003fffffffffe00000000
0007fffffffffc00000000
0007fffffffffc00000000
0007fffffffffc00000000
00000000003ff800000000
00000000003ff800000000
00000000003ff800000000
00000000007ff000000000
00000000007ff000000000
00000000007ff000000000
0000000000ffe000000000
0000000000ffe000000000
0000000000ffe000000000
0000000001ffc000000000
0000000001ffc000000000
0000000001ffc000000000
0000000003ff8000000000
0000000003ff8000000000
0000000003ff8000000000
0000000007ff0000000000
0000000007ff0000000000
0000000007ff0000000000
000000000ffe0000000000
000000000ffe0000000000
0000000000000000000000
0000000000000000000000
0000000000000000000000
0000000000000000000000
0000000000000000000000
0000000000000000000000
0000000000000000000000
0000000000000000000000
0000000000000000000000
0000000000000000000000
0000000000000000000000
0000000000000000000000
0000000000000000000000
0000000000000000000000
0000000000000000000000
0000000000000000000000
0000000000000000000000
0000000000000000000000
0000000000000000000000
0000000000000000000000
ENDCHAR
ENDFONT
